<svg width="97" height="54" viewBox="0 0 97 54" fill="none" xmlns="http://www.w3.org/2000/svg">
<path d="M21.8784 14.8365C21.8784 12.5467 22.1 11.8449 22.8756 9.92437L23.3557 9.0749C23.5404 8.77943 23.6881 8.55782 23.8728 8.29929L25.0916 6.89581C25.2393 6.74808 25.3132 6.71114 25.424 6.60034C25.5717 6.48954 25.6456 6.41567 25.7933 6.26794C26.4951 5.677 27.3815 5.15993 28.231 4.79059C28.8588 4.53206 29.4867 4.27352 30.1885 4.16272C30.5578 4.08885 30.9271 4.01499 31.2965 3.97805C32.5891 3.86725 32.4045 3.83032 33.7341 3.97805C35.7285 4.16272 37.6121 5.04913 39.1264 6.30487L39.6065 6.74808C40.0867 7.15435 39.8281 6.96968 40.0867 7.26515C40.2344 7.41288 40.3083 7.44981 40.3821 7.59755C41.4902 9.0749 42.0442 9.92437 42.5982 11.808C42.9675 13.0268 42.9306 13.8393 42.9306 15.0581C42.9306 17.1634 42.0811 19.1947 40.9731 20.7829C40.5668 21.3738 39.7173 22.2971 39.1264 22.7773C36.9104 24.5132 35.0268 25.2149 32.109 25.2149C29.3759 25.2149 26.8275 23.9961 24.9439 22.1125C24.8331 22.0017 24.7223 21.8909 24.6115 21.7801C23.9097 21.0783 23.2449 19.9334 22.8017 19.047C22.3585 18.0128 21.8784 16.277 21.8784 14.8365ZM20.7334 13.4331C20.7334 15.9815 20.6226 17.2003 21.509 19.5641C21.6568 19.9703 21.8784 20.3397 22.0261 20.7459L22.6171 21.817C22.9864 22.4079 24.316 24.2916 24.8331 24.7348C25.4609 25.2149 26.0519 25.732 26.7167 26.2121C27.9355 27.0616 28.6372 27.4679 30.0407 27.948C33.1062 28.9821 35.9132 28.9821 38.9787 27.9849C39.5327 27.8003 40.2713 27.5048 40.7884 27.2463C41.5271 26.8769 42.2288 26.4337 42.8936 25.9536C44.7034 24.6978 46.1807 22.7773 47.141 20.8198C47.8058 19.4902 48.4706 17.3111 48.4706 15.3167C48.4706 13.8024 48.4337 12.9529 48.0643 11.5125C47.6581 9.99824 47.2518 9.14876 46.5501 7.85609C46.2177 7.22821 45.6267 6.37874 45.1466 5.86167C44.8511 5.52927 44.6295 5.27073 44.2971 4.93833C41.7856 2.2791 38.3139 0.801758 34.6205 0.801758C33.0323 0.801758 31.7397 1.09723 30.3731 1.5035C29.9669 1.6143 29.5606 1.79897 29.1912 1.98363C28.1202 2.42684 26.0149 3.75645 25.1655 4.56899C25.0547 4.67979 25.0177 4.67979 24.9439 4.75366L24.3529 5.38153C24.2791 5.49233 24.2052 5.52927 24.1313 5.60313C24.0575 5.71393 24.0205 5.75087 23.9467 5.82473C23.7989 5.97247 23.6881 6.1202 23.5773 6.30487L22.9125 7.30208C22.8017 7.48675 22.6909 7.63448 22.6171 7.81915C21.7306 9.25956 20.7334 11.6603 20.7334 13.4331Z" fill="black"/>
<path d="M74.6193 14.7627C74.6193 12.8791 74.8779 11.3648 75.6165 9.8505C76.2075 8.63169 76.3552 8.52089 77.1677 7.48675C77.3894 7.22821 77.611 7.04355 77.8326 6.78501C79.1991 5.38153 80.935 4.45819 82.8555 4.01499C85.1085 3.49791 87.5092 3.71952 89.5036 4.64286C91.2025 5.41846 92.7537 6.63728 93.7879 8.18849L94.6374 9.6289C95.1914 10.663 95.7454 12.5836 95.7454 14.1348C95.7454 16.0184 95.4868 17.5327 94.7482 19.01C94.1203 20.2658 93.6032 21.0414 92.606 22.0755C91.9781 22.7034 91.1287 23.3313 90.39 23.7745C85.5517 26.4706 79.5684 25.0302 76.5399 20.6721C76.0228 19.9334 75.9859 19.8226 75.5796 19.01C75.0995 17.9759 74.6193 16.277 74.6193 14.7627ZM82.8186 0.801758C82.597 0.838691 82.4493 0.875625 82.1538 0.838691C80.8611 0.801758 78.5343 1.42963 77.3524 2.02057C76.9461 2.24217 76.6137 2.3899 76.2444 2.61151C74.2131 3.71952 72.1817 5.71393 71.0737 7.67142C70.4089 8.89023 69.9288 9.77664 69.5594 11.2909C69.3378 12.1773 69.1162 13.2115 69.1162 14.3195C69.1162 15.723 69.1901 16.7202 69.5594 18.1236C69.781 19.047 70.1504 19.8595 70.4828 20.6351C70.8152 21.3738 71.2953 22.1863 71.7385 22.8142C72.6618 24.07 73.142 24.587 74.2131 25.4734C76.466 27.4679 79.9747 28.6867 83.0402 28.6867C85.1823 28.6867 87.1398 28.0957 88.6172 27.4679C90.1684 26.803 91.4611 25.8058 92.7168 24.6978C92.9754 24.4393 93.4555 23.8853 93.714 23.5898C94.6374 22.4818 94.5635 22.4449 95.2652 21.263C95.376 21.0783 95.4868 20.8937 95.5607 20.709C95.967 19.7118 96.1516 19.4533 96.484 18.1975C97.5551 13.9501 96.6318 9.37037 93.9356 6.08327C93.8618 6.0094 93.8248 5.93554 93.751 5.86167C91.9412 3.86725 89.9468 2.46377 87.3614 1.57736C86.4381 1.24496 84.813 0.875625 83.8158 0.875625L83.0033 0.801758H82.8186Z" fill="black"/>
<path d="M47.7317 32.2323L47.584 36.5166V49.6649C47.584 49.9973 47.6209 50.2189 47.6209 50.5883C47.6209 51.2162 47.6209 51.881 47.6209 52.5088C47.6209 52.952 47.5101 53.5799 48.4704 53.5799H48.5073H48.5443H48.5812H48.6181H48.6551C49.1352 53.5799 50.1693 53.5799 50.4648 53.4691C50.5756 53.4322 50.6125 53.506 50.6495 53.0628L50.7603 39.5821C50.7603 38.6956 50.7233 37.9939 50.7233 37.1075C50.7603 37.1814 50.7233 37.0706 50.7972 37.1814L57.4453 47.5597C57.6299 47.8552 57.7777 48.1137 57.9623 48.3723C58.147 48.6308 58.2947 48.8893 58.4794 49.1848C58.9226 49.8865 59.3289 49.7388 60.4369 49.7388C60.6216 49.7388 60.8062 49.7019 60.954 49.628C61.3233 49.4064 61.6557 48.9263 61.8773 48.5569C62.2466 48.0029 62.5052 47.4489 62.8745 46.8949L68.5254 37.9939C68.6731 37.7354 68.8947 37.366 69.1163 37.2183L69.0794 49.8127C69.0794 50.2928 69.1163 50.5514 69.1163 51.0315C69.1163 51.7702 69.1163 52.8782 69.264 53.4691C69.7811 53.4691 70.1504 53.5799 70.6306 53.5799C71.1477 53.5799 71.4801 53.4691 71.9602 53.4691C72.3295 52.7304 72.1449 35.4455 72.1449 33.7096C72.1449 33.2664 72.1818 32.8601 72.071 32.4908C72.0341 32.2692 72.0341 32.1584 71.8125 32.1215C71.4431 32.0107 70.409 31.9737 70.0396 32.0107C68.6731 32.1953 69.1163 31.4567 67.7867 33.6357L65.0905 37.957C64.0564 39.619 62.8376 41.4287 61.8404 43.0538C61.508 43.6078 61.2125 44.088 60.8801 44.642C60.6954 44.9374 60.5477 45.159 60.4 45.4545C60.2522 45.6761 60.0306 46.0824 59.809 46.1562C59.6244 45.8238 59.4766 45.5284 59.292 45.196L55.1923 38.8434C55.0815 38.6956 55.0076 38.5479 54.8968 38.4002L52.8655 35.15C52.7547 34.9654 52.6808 34.8915 52.57 34.7068L51.462 32.8601C50.8711 31.8999 50.5756 31.9737 49.3937 31.9737C49.0983 31.9737 49.0244 32.0107 48.8028 32.0107C48.3227 32.1215 48.1011 32.0476 47.7317 32.2323Z" fill="black"/>
<path d="M75.2104 38.2154C75.2104 40.8746 76.2446 42.4997 78.6083 43.2753C79.6424 43.6447 80.9721 43.7924 82.2278 43.9032L89.9469 44.6049C91.2027 44.8635 92.126 45.1589 92.3476 46.4147C92.6062 47.6335 92.4215 49.0739 91.7198 49.7757C91.0919 50.4035 89.6145 50.6251 88.3219 50.6251H82.0062C81.1198 50.6251 80.2334 50.4405 79.6424 50.145C78.6822 49.6279 78.1651 48.5199 78.202 47.375C78.202 46.784 78.239 46.5255 77.7588 46.3778L75.8014 46.23C75.5798 46.267 75.3951 46.3408 75.2104 46.3778C75.2104 46.6363 75.0996 46.8948 75.0996 47.5227C75.0996 49.037 75.9122 51.1791 77.0571 52.1025C78.239 53.0627 80.5658 53.5798 82.1539 53.5798H88.4327C89.3929 53.5798 90.6487 53.4321 91.4243 53.2105C94.4159 52.361 95.5978 50.4774 95.5978 47.3011C95.5978 46.1931 95.4131 45.3436 95.0438 44.568C94.9699 44.3833 94.8591 44.1987 94.7483 44.0509C93.9358 42.8321 92.5323 42.2781 91.1288 41.9457C89.4668 41.5764 89.3191 41.7241 88.2111 41.5764C87.7679 41.5025 87.1769 41.5394 86.6598 41.5025C86.1797 41.4286 85.6257 41.3917 85.1456 41.3178C83.2989 41.0593 80.8243 41.244 79.4209 40.5053C79.0515 40.2837 78.793 40.099 78.6083 39.6928C78.1651 38.7694 78.1282 37.4767 78.6083 36.5165C79.1623 35.4085 80.3811 35.0022 81.7477 35.0022H88.6173C93.3818 35.0022 91.2766 39.3604 92.9016 39.3604C93.8619 39.3604 94.5636 39.2126 95.0438 39.2126C95.4131 37.6983 94.933 35.7039 94.1574 34.4851C93.1232 32.897 91.0919 31.9736 88.8389 31.9736H81.7477C80.8243 31.9736 79.7163 32.1583 79.0146 32.3799C76.3184 33.3402 75.2104 35.4085 75.2104 38.2154Z" fill="black"/>
<path d="M3.30032 53.58C3.74352 53.5431 4.18672 53.3954 4.18672 52.9891V44.0881H13.1985C14.5281 44.0881 14.2696 43.3864 14.2696 41.6505C14.2696 41.3919 14.048 41.1703 13.7895 41.1703H4.18672V35.1132H17.926C18.1476 35.1132 18.4431 35.0393 18.5908 34.9285C18.8124 34.8177 18.6647 34.9655 18.7386 34.7439C18.8863 34.2637 18.9232 32.7125 18.7386 32.3063C18.7016 32.1955 18.6278 32.1585 18.2584 32.1585L17.0027 32.1216C16.7072 32.1216 16.6334 32.0847 16.3748 32.0477C15.2668 32.0108 13.2355 32.1216 12.386 32.0477C11.6473 31.9739 10.687 32.0477 9.83757 32.0477C8.06476 32.0477 6.32888 32.0477 4.59299 32.0477C4.22366 32.0477 1.67524 32.0477 1.4167 32.1585C1.04736 32.3432 1.15816 32.6387 1.15816 33.2665C1.15816 33.5251 1.0843 33.5989 1.0843 33.8944C1.12123 38.2895 1.04736 42.6477 1.04736 47.0428L1.0843 50.9578C1.0843 51.2163 1.15816 53.3215 1.23203 53.4323C1.3059 53.5431 1.49057 53.5431 1.78604 53.5431C2.00764 53.58 2.11844 53.58 2.41391 53.58H2.45084H3.30032Z" fill="black"/>
<path d="M60.3633 8.89026C60.3633 8.96413 60.5849 9.33346 60.5849 9.66586C60.5849 11.1801 59.4769 12.953 58.5905 14.1348L49.985 26.7292C49.3202 27.6526 49.394 27.6895 49.394 28.7606H68.0086V27.0247H55.6728C55.8205 26.4337 62.9118 15.9446 64.0936 14.2456C64.6846 13.3592 65.6079 11.8819 65.6079 10.7369C65.6079 9.07493 64.2044 8.04078 62.8748 8.04078C62.247 8.04078 61.6929 8.00385 61.102 8.29932C60.9173 8.37319 60.3633 8.59479 60.3633 8.89026Z" fill="black"/>
<path d="M7.99127 2.02061C8.10208 2.20527 8.61915 2.38994 8.87768 2.50074C9.21009 2.64848 9.46862 2.79621 9.72716 2.98088C9.87489 3.09168 9.98569 3.16555 10.0965 3.27635C10.2442 3.42408 10.3181 3.49795 10.4658 3.60875C11.6108 4.56903 12.7557 6.37878 12.7557 8.07772C12.7557 9.33347 12.7188 9.77667 12.2386 10.9955C11.6846 12.4359 8.54528 16.7571 7.2526 18.6777L5.92299 20.6721C5.73832 20.9676 4.96271 22.1125 4.92578 22.371C5.29512 22.371 5.47979 22.3341 5.77526 22.3341C6.10766 22.3341 6.40313 22.3341 6.6986 22.3341C7.06793 22.3341 7.2526 22.2972 7.54807 22.2972C7.84354 22.2972 8.17594 22.2972 8.47141 22.2972C9.06235 22.2972 9.61636 22.2602 10.2812 22.2602C10.6505 22.2602 10.8721 22.2233 11.1676 22.2233C11.463 22.2233 11.7954 22.2233 12.0909 22.2233C12.1278 22.1125 12.4602 21.6693 12.571 21.5216C13.8637 19.7118 15.1933 17.7913 16.5229 16.0185C16.6337 15.8707 16.6707 15.7969 16.7815 15.6861C17.8156 14.2826 18.739 11.6972 18.739 9.96134C18.739 8.44706 18.5543 7.41292 17.8895 6.19411C17.2247 5.01223 16.8923 4.49516 15.8581 3.64569C15.3411 3.20248 14.1592 2.61154 13.5313 2.38994C13.0143 2.20527 12.5341 2.05754 11.9062 1.98367C10.946 1.76207 8.80382 1.61434 7.99127 2.02061Z" fill="black"/>
<path d="M28.0093 38.1048V49.3327C28.0093 49.7389 28.0462 52.6198 28.1201 53.1368C28.157 53.4692 28.0462 53.4692 28.3786 53.5431C28.5633 53.58 28.7479 53.617 28.9696 53.617H44.7772C45.7744 53.617 45.5528 52.0288 45.4789 51.2901C45.442 50.9208 45.1465 50.6253 44.7772 50.6253H31.0748C31.0748 49.4435 31.1117 48.4093 31.1117 47.2274V41.9829C31.1117 41.3919 31.1486 40.9118 31.1486 40.2839C31.1486 39.102 31.1117 38.031 31.1117 36.8122C31.1117 35.5195 31.1486 34.3007 31.0009 33.0449C30.927 32.2324 31.1117 32.2693 30.5208 32.1954C30.3361 32.1585 29.9668 32.1216 29.7452 32.1216H28.9696C28.0462 32.1585 28.0831 32.5279 28.0831 32.9711C28.0831 33.562 28.0831 34.116 28.0831 34.7439C28.0831 35.3348 28.0462 35.8149 28.0462 36.4428C28.0093 36.923 28.0093 37.5139 28.0093 38.1048Z" fill="black"/>
<path d="M21.3241 32.1583C21.3241 32.343 21.2503 32.7493 21.2503 32.897C21.2133 33.1925 21.2503 33.451 21.2133 33.7465C21.1395 34.7067 21.1025 37.6614 21.1025 38.7694V45.4544C21.1025 46.0823 21.1395 46.5994 21.1395 47.2272V52.6196C21.1395 53.3213 21.398 53.5429 21.9151 53.6168H23.5771C23.9095 53.6168 24.205 53.4321 24.205 53.1366V32.5646C24.205 31.8259 22.3952 32.0106 21.9151 32.0845C21.7673 32.1214 21.5457 32.1583 21.3241 32.1583Z" fill="black"/>
<path d="M55.7832 10.3307C55.7832 7.59763 57.0759 5.23388 59.5873 4.23667C61.0647 3.64573 62.2466 3.64573 63.7978 3.75653C64.0194 3.79346 64.3149 3.8304 64.4995 3.86733C64.2779 3.53493 62.6159 2.61159 62.1727 2.38999C59.1811 1.13424 54.4905 1.79905 52.1268 4.19973L51.4619 4.97534C50.4278 6.56349 50.2801 7.4499 50.0215 9.25964C49.9846 9.51818 50.0215 9.70285 49.9846 9.96138C49.9477 10.183 49.8369 10.4415 50.0954 10.5154L51.4619 10.4785C51.9421 10.4785 52.4222 10.5154 52.8654 10.4415L55.7832 10.3307Z" fill="black"/>
<path d="M15.7103 23.5159V25.9536C15.7103 26.3968 15.6364 26.6553 15.5995 27.0246C15.2302 27.0246 15.0824 27.0985 14.75 27.0616C10.2441 27.0616 5.70128 27.1724 1.15844 27.1724C0.97377 27.5417 0.899902 27.7264 0.899902 27.948V28.7236H19.5145V22.5557H15.8211C15.5626 22.5557 15.7103 23.0358 15.7103 23.5159Z" fill="black"/>
<path d="M1.74926 8.11469C1.67539 8.37322 1.60152 8.55789 1.56459 8.85336C1.49072 9.4443 1.49072 9.85057 1.49072 10.4784H6.88304C7.80638 10.4784 7.14157 9.40736 7.80638 8.70563C7.95411 8.55789 8.13878 8.37322 8.36038 8.29935C8.36038 7.37601 8.32345 7.08054 7.91718 6.48961C7.1785 5.4924 4.55622 5.34466 4.00221 7.04361C3.78061 7.63455 3.81754 8.07775 3.41127 8.11469C2.8942 8.15162 2.26633 8.11469 1.74926 8.11469Z" fill="black"/>
</svg>
