<svg width="200" height="25" viewBox="0 0 200 25" fill="none" xmlns="http://www.w3.org/2000/svg">
<path d="M40.34 8.00548C39.7903 7.05866 40.1201 5.84133 41.0673 5.3003L50.0148 0.135099C50.3193 -0.0424287 50.6999 -0.0424287 51.0043 0.135099L59.9518 5.3003C60.899 5.84979 61.2289 7.05866 60.6792 8.00548C60.1294 8.95229 58.9201 9.27353 57.9729 8.73249L50.5138 4.42957L43.0547 8.73249C42.0991 9.27353 40.8813 8.95229 40.34 8.00548Z" fill="#EB3723"/>
<path d="M58.8778 10.8968H42.1244C41.5747 10.8968 41.1349 11.3364 41.1349 11.8859V21.5485C41.1349 22.7827 42.1329 23.7802 43.3676 23.7802C44.6023 23.7802 45.6002 22.7827 45.6002 21.5485V14.8616H48.2811V21.5485C48.2811 22.7827 49.279 23.7802 50.5138 23.7802C51.7485 23.7802 52.7464 22.7827 52.7464 21.5485V14.8616H55.4188V21.5485C55.4188 22.7827 56.4168 23.7802 57.6515 23.7802C58.8862 23.7802 59.8841 22.7827 59.8841 21.5485V11.8859C59.8672 11.3364 59.4275 10.8968 58.8778 10.8968ZM9.75094 17.3808C9.41266 17.1356 9.06592 16.975 8.76147 16.8567C9.45494 16.4847 10.3852 15.6985 10.3852 14.2783C10.3852 13.7795 10.3683 10.8968 6.37659 10.8968H0.372109C0.16914 10.8968 0 11.0574 0 11.2603V23.4083C0 23.6112 0.16914 23.7718 0.372109 23.7718H6.71487C10.8165 23.7718 11.0871 20.72 11.0871 20.086C11.0871 18.6996 10.436 17.8711 9.75094 17.3808ZM3.92406 13.8218H5.26872C5.5478 13.8218 5.91145 13.8472 6.19899 13.9909C6.46962 14.1261 6.68104 14.3628 6.68104 14.8447C6.68104 15.4449 6.30893 15.8 5.26872 15.8H3.92406V13.8218ZM5.40403 20.8553H3.92406V18.7334H5.41249C6.52036 18.7334 7.09544 19.173 7.09544 19.7563C7.09544 20.441 6.58802 20.8553 5.40403 20.8553ZM131.49 9.91619C133.443 9.91619 134.703 9.09618 135.456 8.02256C135.574 7.85349 135.532 7.62524 135.371 7.51534L133.477 6.56008C133.325 6.49245 133.147 6.53472 133.004 6.7207C132.614 7.26173 132.056 7.53225 131.498 7.53225C130.94 7.53225 130.373 7.27019 129.993 6.7207C129.849 6.53472 129.671 6.49245 129.519 6.56008L127.625 7.51534C127.456 7.6337 127.422 7.86194 127.532 8.02256C128.276 9.09618 129.536 9.91619 131.49 9.91619ZM33.8788 13.9317C34.8514 13.9317 35.7901 14.422 36.4244 15.1828C36.5681 15.3265 36.7965 15.3265 36.9403 15.1828L38.7247 12.9595C38.8685 12.8158 38.8684 12.5791 38.7162 12.4185C37.4392 11.2941 35.7224 10.677 33.8788 10.677C30.1154 10.677 27.3077 13.2638 27.3077 17.3385C27.3077 20.0183 28.9145 24.0085 33.8788 24.0085C35.9931 24.0085 37.583 23.2815 38.7078 22.2332C38.8515 22.0895 38.8515 21.8612 38.6993 21.6837L36.9741 19.528C36.8303 19.3843 36.5935 19.3843 36.4497 19.528C35.7478 20.348 34.6991 20.7538 33.8788 20.7538C32.5511 20.7538 31.2148 19.6717 31.2148 17.347C31.2233 15.4364 32.1874 13.9317 33.8788 13.9317ZM19.1974 10.677C15.4341 10.677 12.6263 13.2638 12.6263 17.3385C12.6263 20.0183 14.2332 24.0085 19.1974 24.0085C24.1617 24.0085 25.7685 20.0268 25.7685 17.3385C25.7685 13.2638 22.9608 10.677 19.1974 10.677ZM19.1974 20.813C17.8697 20.813 16.5335 19.7056 16.5335 17.3385C16.5335 15.3942 17.506 13.8641 19.1974 13.8641C20.8888 13.8641 21.8614 15.3942 21.8614 17.3385C21.8614 19.7056 20.5252 20.813 19.1974 20.813ZM102.82 10.8968H99.6321C99.4291 10.8968 99.2685 11.0574 99.2685 11.2603V15.7408H95.4713V11.2603C95.4713 11.0574 95.3106 10.8968 95.1076 10.8968H91.9193C91.7164 10.8968 91.5472 11.0574 91.5472 11.2603V23.4083C91.5472 23.6112 91.7164 23.7718 91.9193 23.7718H95.1076C95.3106 23.7718 95.4713 23.6112 95.4713 23.4083V18.6827H99.2685V23.4083C99.2685 23.6112 99.4291 23.7718 99.6321 23.7718H102.82C103.023 23.7718 103.184 23.6112 103.184 23.4083V11.2603C103.184 11.0574 103.023 10.8968 102.82 10.8968ZM136.877 10.8968H133.545C133.409 10.8968 133.291 10.9644 133.223 11.0913L129.655 17.7443V11.2603C129.655 11.0574 129.494 10.8968 129.291 10.8968H126.103C125.9 10.8968 125.739 11.0574 125.739 11.2603V23.4083C125.739 23.6112 125.9 23.7718 126.103 23.7718H129.435C129.57 23.7718 129.705 23.6872 129.756 23.5773L133.325 16.9158V23.4083C133.325 23.6112 133.486 23.7718 133.689 23.7718H136.877C137.08 23.7718 137.24 23.6112 137.24 23.4083V11.2603C137.24 11.0574 137.08 10.8968 136.877 10.8968ZM68.7386 10.677C64.9753 10.677 62.1675 13.2638 62.1675 17.3385C62.1675 20.0183 63.7744 24.0085 68.7386 24.0085C73.7029 24.0085 75.3097 20.0268 75.3097 17.3385C75.3097 13.2638 72.502 10.677 68.7386 10.677ZM68.7386 20.813C67.4109 20.813 66.0747 19.7056 66.0747 17.3385C66.0747 15.3942 67.0472 13.8641 68.7386 13.8641C70.43 13.8641 71.4026 15.3942 71.4026 17.3385C71.4026 19.7056 70.0664 20.813 68.7386 20.813ZM122.348 10.8968H119.168C118.965 10.8968 118.796 11.0574 118.796 11.2603V23.4083C118.796 23.6112 118.965 23.7718 119.168 23.7718H122.348C122.551 23.7718 122.72 23.6112 122.72 23.4083V11.2603C122.711 11.0574 122.551 10.8968 122.348 10.8968ZM111.971 15.5971H110.127V11.2603C110.127 11.0574 109.967 10.8968 109.764 10.8968H106.575C106.372 10.8968 106.212 11.0574 106.212 11.2603V23.4083C106.212 23.6112 106.372 23.7718 106.575 23.7718H111.979C115.311 23.7718 117.087 22.3346 117.087 19.6295C117.079 16.9497 115.295 15.5971 111.971 15.5971ZM111.633 20.8553H110.119V18.5305H111.633C111.912 18.5305 112.309 18.5559 112.622 18.708C112.918 18.8517 113.155 19.1138 113.155 19.6379C113.155 20.6608 112.199 20.8553 111.633 20.8553ZM88.1644 10.8968H84.9761C84.7731 10.8968 84.6125 11.0574 84.6125 11.2603V16.5439C81.5595 17.0004 81.0182 15.9268 81.0182 14.9884V11.2603C81.0182 11.0574 80.8575 10.8968 80.6546 10.8968H77.4663C77.2971 10.8968 77.1449 11.0152 77.1111 11.1758C77.1026 11.6661 77.1026 12.7228 77.1026 13.7288C77.1111 15.0898 77.1364 16.6115 77.221 17.1441C77.5086 18.8686 79.0731 19.5365 80.663 19.7309C82.1092 19.9 83.6822 19.7056 84.6125 19.4689V23.4083C84.6125 23.6112 84.7816 23.7718 84.9761 23.7718H88.1644C88.3674 23.7718 88.5365 23.6112 88.5365 23.4083V11.2603C88.5365 11.0574 88.3674 10.8968 88.1644 10.8968ZM185.293 10.8968H182.105C181.902 10.8968 181.741 11.0574 181.741 11.2603V15.7408H177.944V11.2603C177.944 11.0574 177.775 10.8968 177.58 10.8968H174.392C174.189 10.8968 174.02 11.0574 174.02 11.2603V23.4083C174.02 23.6112 174.189 23.7718 174.392 23.7718H177.58C177.783 23.7718 177.944 23.6112 177.944 23.4083V18.6827H181.741V23.4083C181.741 23.6112 181.902 23.7718 182.105 23.7718H185.293C185.496 23.7718 185.657 23.6112 185.657 23.4083V11.2603C185.665 11.0574 185.496 10.8968 185.293 10.8968ZM153.765 15.7492H150.975V13.8387H156.852C157.055 13.8387 157.216 13.6696 157.216 13.4667V11.2688C157.216 11.0659 157.055 10.8968 156.852 10.8968H147.423C147.22 10.8968 147.051 11.0574 147.051 11.2603V23.4083C147.051 23.6112 147.22 23.7718 147.423 23.7718H153.765C157.842 23.7718 158.138 20.7961 158.138 19.7478C158.138 18.7249 157.842 15.7492 153.765 15.7492ZM152.463 20.8553H150.975V18.6742H152.463C153.622 18.6742 154.129 19.0715 154.146 19.7732C154.129 20.4579 153.622 20.8553 152.463 20.8553ZM196.025 17.3385L199.932 11.4717C199.975 11.4125 199.992 11.3449 199.992 11.2688C199.992 11.0659 199.831 10.8968 199.628 10.8968H196.237C196.101 10.8968 195.991 10.9644 195.924 11.0743L192.6 16.5354V11.2688C192.6 11.0659 192.439 10.9053 192.236 10.9053H189.048C188.845 10.9053 188.685 11.0659 188.685 11.2688V23.4167C188.685 23.6196 188.845 23.7802 189.048 23.7802H192.236C192.439 23.7802 192.6 23.6196 192.6 23.4167V18.1501L195.924 23.6027C195.991 23.7041 196.101 23.7802 196.237 23.7802H199.628C199.831 23.7802 199.992 23.6196 199.992 23.4167C199.992 23.3406 199.966 23.273 199.932 23.2138L196.025 17.3385ZM167.66 11.1335C167.61 10.9898 167.474 10.8968 167.314 10.8968H163.897C163.736 10.8968 163.601 10.9983 163.55 11.1335L158.933 23.273C158.916 23.3153 158.907 23.3575 158.907 23.4083C158.907 23.6112 159.068 23.7718 159.271 23.7718H162.628C162.798 23.7718 162.933 23.6619 162.984 23.5097L163.55 21.6161H167.652L168.219 23.5097C168.261 23.6619 168.405 23.7718 168.574 23.7718H171.931C172.134 23.7718 172.295 23.6112 172.295 23.4083C172.295 23.3575 172.286 23.3153 172.269 23.273L167.66 11.1335ZM164.438 18.6827L165.605 14.7855L166.772 18.6827H164.438Z" fill="#00549D"/>
</svg>
