<svg width="160" height="35" viewBox="0 0 160 35" fill="none" xmlns="http://www.w3.org/2000/svg">
<path d="M73.9056 7.14667C73.4189 6.30021 73.707 5.21911 74.5494 4.7279L82.4958 0.118417C82.7686 -0.0394723 83.1047 -0.0394723 83.3753 0.118417L91.3217 4.7279C92.1642 5.21911 92.4522 6.30021 91.9656 7.14667C91.481 7.99094 90.4029 8.2804 89.5605 7.79358L82.9345 3.94723L76.3107 7.79139C75.4682 8.2804 74.3901 7.99094 73.9056 7.14667Z" fill="#E52A0E"/>
<path d="M90.3722 9.7277H75.4965C75.0098 9.7277 74.6169 10.1224 74.6169 10.6114V19.2339C74.6169 20.3348 75.503 21.2251 76.5986 21.2251C77.6942 21.2251 78.5803 20.337 78.5803 19.2339V13.2649H80.957V19.2339C80.957 20.3348 81.8431 21.2251 82.9365 21.2251C84.0321 21.2251 84.9182 20.337 84.9182 19.2339V13.2649H87.295V19.2339C87.295 20.3348 88.1789 21.2251 89.2745 21.2251C90.3679 21.2251 91.254 20.337 91.254 19.2339V10.6114C91.2518 10.1246 90.8589 9.7277 90.3722 9.7277ZM46.738 15.5126C46.4346 15.2933 46.1291 15.1529 45.8584 15.0477C46.4717 14.7122 47.2967 14.0148 47.2967 12.7473C47.2967 12.3 47.2836 9.7277 43.7349 9.7277H38.4074C38.2263 9.7277 38.0801 9.87463 38.0801 10.0566V20.8984C38.0801 21.0804 38.2263 21.2251 38.4074 21.2251H44.0404C47.6808 21.2251 47.9231 18.4993 47.9231 17.9335C47.9231 16.6924 47.3469 15.9512 46.738 15.5126ZM41.5633 12.3395H42.7528C42.9994 12.3395 43.3246 12.3636 43.5799 12.493C43.8178 12.6136 44.0055 12.8285 44.0055 13.2561C44.0055 13.7912 43.6738 14.1069 42.7506 14.1069H41.5611V12.3395H41.5633ZM42.8815 18.6155H41.5633V16.7187H42.8815C43.8702 16.7187 44.3787 17.109 44.3787 17.6309C44.3809 18.2471 43.9291 18.6155 42.8815 18.6155ZM154.862 8.85274C156.595 8.85274 157.715 8.1225 158.385 7.16639C158.49 7.01728 158.452 6.81334 158.306 6.71027L156.621 5.85942C156.484 5.79802 156.327 5.8353 156.2 5.99977C155.857 6.48659 155.358 6.72123 154.862 6.72123C154.367 6.72123 153.867 6.4844 153.524 5.99977C153.398 5.8353 153.239 5.79802 153.103 5.85942L151.416 6.71027C151.27 6.81334 151.231 7.01728 151.335 7.16639C152.01 8.1225 153.129 8.85274 154.862 8.85274ZM68.1743 12.4381C69.0385 12.4381 69.8701 12.8745 70.4353 13.5521C70.5619 13.6815 70.7692 13.6815 70.898 13.5521L72.4803 11.5632C72.6069 11.436 72.6069 11.2276 72.4716 11.0851C71.3389 10.083 69.8111 9.52815 68.1743 9.52815C64.8285 9.52815 62.3383 11.8395 62.3383 15.4753C62.3383 17.87 63.7678 21.4268 68.1743 21.4268C70.049 21.4268 71.4589 20.7777 72.4628 19.8414C72.5872 19.712 72.5872 19.5037 72.4519 19.348L70.9176 17.4248C70.7911 17.2954 70.5859 17.2954 70.4571 17.4248C69.8329 18.1528 68.901 18.5169 68.1743 18.5169C66.9935 18.5169 65.8085 17.5476 65.8085 15.4775C65.8085 13.7802 66.6684 12.4381 68.1743 12.4381ZM55.1318 9.52815C51.7882 9.52815 49.2958 11.8395 49.2958 15.4753C49.2958 17.87 50.7254 21.4268 55.1318 21.4268C59.5382 21.4268 60.9677 17.87 60.9677 15.4753C60.9677 11.8395 58.4753 9.52815 55.1318 9.52815ZM55.1318 18.5805C53.9576 18.5805 52.7682 17.5915 52.7682 15.4731C52.7682 13.7407 53.6302 12.3723 55.1318 12.3723C56.6333 12.3723 57.4976 13.7407 57.4976 15.4731C57.4976 17.5915 56.3081 18.5805 55.1318 18.5805ZM129.401 9.7277H126.571C126.392 9.7277 126.246 9.87463 126.246 10.0566V14.0565H122.872V10.0566C122.872 9.87463 122.727 9.7277 122.546 9.7277H119.718C119.537 9.7277 119.39 9.87463 119.39 10.0566V20.8984C119.39 21.0804 119.537 21.2251 119.718 21.2251H122.546C122.727 21.2251 122.872 21.0804 122.872 20.8984V16.6814H126.246V20.8984C126.246 21.0804 126.392 21.2251 126.571 21.2251H129.401C129.58 21.2251 129.729 21.0804 129.729 20.8984V10.0566C129.729 9.87463 129.58 9.7277 129.401 9.7277ZM159.648 9.7277H156.689C156.567 9.7277 156.464 9.78911 156.401 9.89875L153.232 15.8415V10.0566C153.232 9.87463 153.086 9.7277 152.907 9.7277H150.076C149.895 9.7277 149.751 9.87463 149.751 10.0566V20.8984C149.751 21.0804 149.895 21.2251 150.076 21.2251H153.04C153.162 21.2251 153.278 21.1505 153.326 21.0519L156.497 15.1047V20.8984C156.497 21.0804 156.643 21.2251 156.822 21.2251H159.653C159.832 21.2251 159.978 21.0804 159.978 20.8984V10.0566C159.974 9.87463 159.83 9.7277 159.648 9.7277ZM99.1327 9.52815C95.787 9.52815 93.2968 11.8395 93.2968 15.4753C93.2968 17.87 94.7263 21.4268 99.1327 21.4268C103.537 21.4268 104.966 17.87 104.966 15.4753C104.969 11.8395 102.476 9.52815 99.1327 9.52815ZM99.1305 18.5805C97.9563 18.5805 96.7669 17.5915 96.7669 15.4731C96.7669 13.7407 97.6312 12.3723 99.1305 12.3723C100.634 12.3723 101.496 13.7407 101.496 15.4731C101.496 17.5915 100.307 18.5805 99.1305 18.5805ZM146.743 9.7277H143.917C143.736 9.7277 143.59 9.87463 143.59 10.0566V20.8984C143.59 21.0804 143.736 21.2251 143.917 21.2251H146.743C146.925 21.2251 147.071 21.0804 147.071 20.8984V10.0566C147.071 9.87463 146.925 9.7277 146.743 9.7277ZM137.527 13.9249H135.888V10.0566C135.888 9.87463 135.739 9.7277 135.558 9.7277H132.73C132.551 9.7277 132.405 9.87463 132.405 10.0566V20.8984C132.405 21.0804 132.551 21.2251 132.73 21.2251H137.527C140.488 21.2251 142.064 19.9379 142.064 17.5301C142.064 15.131 140.484 13.9249 137.527 13.9249ZM137.23 18.6155H135.89V16.5367H137.23C137.481 16.5367 137.828 16.5564 138.11 16.6968C138.371 16.8261 138.581 17.0564 138.581 17.5279C138.581 18.4423 137.734 18.6155 137.23 18.6155ZM116.383 9.7277H113.555C113.376 9.7277 113.227 9.87463 113.227 10.0566V14.7736C110.517 15.1836 110.036 14.2232 110.036 13.3855V10.0566C110.036 9.87463 109.892 9.7277 109.711 9.7277H106.881C106.728 9.7277 106.599 9.83296 106.564 9.9755C106.56 10.4141 106.553 11.357 106.555 12.2583C106.56 13.4754 106.584 14.835 106.662 15.3086C106.915 16.8459 108.308 17.4445 109.722 17.6156C111.008 17.7713 112.398 17.5893 113.229 17.3809V20.8984C113.229 21.0804 113.376 21.2251 113.557 21.2251H116.385C116.566 21.2251 116.713 21.0804 116.713 20.8984V10.0566C116.71 9.87463 116.566 9.7277 116.383 9.7277Z" fill="white"/>
<path d="M40.83 33.5953H38.6235V28.2248H42.2726V29.4002H39.9374V30.1414H40.8322C41.9518 30.1414 42.6175 30.8651 42.6175 31.8695C42.6153 32.8716 41.954 33.5953 40.83 33.5953ZM40.7689 31.3256H39.9352V32.4111H40.7689C41.0985 32.4111 41.3036 32.1787 41.3036 31.8716C41.3036 31.5603 41.0985 31.3256 40.7689 31.3256Z" fill="white"/>
<path d="M46.965 33.5953V29.4002H46.0637L46.0113 31.5581C45.9829 32.9001 45.374 33.5953 44.3221 33.5953H43.7874V32.4177H43.9467C44.3286 32.4177 44.6734 32.1699 44.6887 31.5888L44.7716 28.2248H48.2767V33.5953H46.965Z" fill="white"/>
<path d="M53.0781 33.5953L52.8293 32.7949H51.1859L50.924 33.5953H49.5491L51.4937 28.2248H52.5063L54.4531 33.5953H53.0781ZM52.0349 30.2621L51.5548 31.6962H52.4845L52.0349 30.2621Z" fill="white"/>
<path d="M57.0397 29.4002V33.5953H55.7258V28.2248H59.1698V29.4002H57.0397Z" fill="white"/>
<path d="M63.8047 33.0361C63.4206 33.444 62.9252 33.6413 62.3162 33.6413C61.6942 33.6413 61.2054 33.444 60.8147 33.0361C60.2669 32.4638 60.2734 31.7313 60.2734 31.0581V30.7204C60.2734 29.6722 60.3935 29.2205 60.8147 28.7819C61.1988 28.374 61.6942 28.1788 62.301 28.1788C62.9164 28.1788 63.4118 28.374 63.8025 28.7819C64.1757 29.1744 64.3438 29.6568 64.3438 30.4331V30.909C64.3459 31.6875 64.3743 32.4331 63.8047 33.0361ZM63.0299 30.6831C63.0299 30.1788 62.9797 29.7796 62.8357 29.5889C62.7156 29.4397 62.5301 29.3564 62.3097 29.3564C62.0936 29.3564 61.9059 29.4397 61.7837 29.5889C61.6419 29.7796 61.5895 30.1788 61.5895 30.6831V31.0537C61.5895 31.7401 61.6419 32.0405 61.7837 32.2247C61.9038 32.376 62.1002 32.466 62.3097 32.466C62.5214 32.466 62.7156 32.3738 62.8357 32.2247C62.9797 32.0427 63.0299 31.7423 63.0299 31.0537V30.6831Z" fill="white"/>
<path d="M68.1177 29.4002V33.5953H66.8038V29.4002H65.49V28.2248H69.4315V29.4002H68.1177Z" fill="white"/>
<path d="M73.2552 33.5953H70.9287V28.2248H73.1417C74.185 28.2248 74.8463 28.8103 74.8463 29.7336C74.8463 30.2094 74.6738 30.5427 74.2614 30.8432C74.7328 31.1458 74.9226 31.4769 74.9226 32.0208C74.9205 32.9769 74.2679 33.5953 73.2552 33.5953ZM73.0588 29.409H72.2404V30.284H73.061C73.3622 30.284 73.5324 30.1195 73.5324 29.8476C73.5324 29.5757 73.36 29.409 73.0588 29.409ZM73.1265 31.4682H72.2404V32.4111H73.1265C73.4276 32.4111 73.6066 32.2313 73.6066 31.9374C73.6088 31.6414 73.4276 31.4682 73.1265 31.4682Z" fill="white"/>
<path d="M79.9163 33.0361C79.5322 33.444 79.0367 33.6413 78.43 33.6413C77.808 33.6413 77.3191 33.444 76.9285 33.0361C76.3807 32.4638 76.3872 31.7313 76.3872 31.0581V30.7204C76.3872 29.6722 76.5073 29.2205 76.9285 28.7819C77.3104 28.374 77.808 28.1788 78.4147 28.1788C79.0302 28.1788 79.5234 28.374 79.9163 28.7819C80.2917 29.1744 80.4575 29.6568 80.4575 30.4331V30.909C80.4575 31.6875 80.4881 32.4331 79.9163 33.0361ZM79.1437 30.6831C79.1437 30.1788 79.0891 29.7796 78.9494 29.5889C78.8294 29.4397 78.6417 29.3564 78.4235 29.3564C78.2052 29.3564 78.0175 29.4397 77.8997 29.5889C77.7556 29.7796 77.7033 30.1788 77.7033 30.6831V31.0537C77.7033 31.7401 77.7556 32.0405 77.8997 32.2247C78.0175 32.376 78.2139 32.466 78.4235 32.466C78.633 32.466 78.8294 32.3738 78.9494 32.2247C79.0913 32.0427 79.1437 31.7423 79.1437 31.0537V30.6831Z" fill="white"/>
<path d="M84.2134 31.6809H83.4103V33.5975H82.0964V28.2271H84.2134C85.2719 28.2271 86.038 28.9485 86.038 29.9551C86.038 30.9551 85.2785 31.6809 84.2134 31.6809ZM84.1523 29.4091H83.4103V30.4945H84.1523C84.4841 30.4945 84.7241 30.2621 84.7241 29.9529C84.7241 29.6437 84.4841 29.4091 84.1523 29.4091Z" fill="white"/>
<path d="M90.3964 33.5953V30.67L88.6831 33.5953H87.5352V28.2271H88.849V31.1524L90.5601 28.2271H91.7081V33.5953H90.3964Z" fill="white"/>
<path d="M95.8328 29.4002V33.5953H94.5189V29.4002H93.2073V28.2248H97.1445V29.4002H95.8328Z" fill="white"/>
<path d="M98.6438 33.5953V28.2271H102.275V29.4003H99.9576V30.2994H101.939V31.477H99.9576V32.4177H102.275V33.5953H98.6438Z" fill="white"/>
<path d="M106.647 33.5953V29.4002H105.748L105.695 31.5581C105.665 32.9001 105.056 33.5953 104.006 33.5953H103.474V32.4177H103.631C104.013 32.4177 104.36 32.1699 104.375 31.5888L104.456 28.2248H107.961V33.5953H106.647Z" fill="white"/>
<path d="M111.929 33.5953H109.774V28.2248H111.088V30.1414H111.929C112.994 30.1414 113.716 30.8651 113.716 31.8695C113.716 32.8716 112.987 33.5953 111.929 33.5953ZM111.83 31.3256H111.088V32.4177H111.83C112.16 32.4177 112.4 32.1787 112.4 31.8695C112.402 31.5603 112.16 31.3256 111.83 31.3256Z" fill="white"/>
<path d="M117.922 33.5953V31.4682H116.527V33.5953H115.213V28.2271H116.527V30.2928H117.922V28.2271H119.238V33.5953H117.922Z" fill="white"/>
<path d="M123.203 33.5953H121.049V28.2248H122.363V30.1393H123.203C124.271 30.1393 124.991 30.8629 124.991 31.8673C124.991 32.8716 124.262 33.5953 123.203 33.5953ZM123.105 31.3256H122.363V32.4177H123.105C123.437 32.4177 123.677 32.1787 123.677 31.8695C123.677 31.5603 123.437 31.3256 123.105 31.3256ZM126.8 33.5953H125.484V28.2248H126.8V33.5953Z" fill="white"/>
<path d="M131.473 33.5953V30.6678L129.762 33.5953H128.612V28.2249H129.928V31.1502L131.639 28.2249H132.787V33.5953H131.473ZM130.715 27.9683C129.928 27.9683 129.528 27.5231 129.485 26.7841H130.281C130.312 27.0253 130.454 27.1394 130.715 27.1394C130.977 27.1394 131.121 27.0253 131.15 26.7841H131.946C131.903 27.5231 131.497 27.9683 130.715 27.9683Z" fill="white"/>
<path d="M136.754 30.7971C136.754 29.4616 137.619 28.6634 138.909 28.5954V28.181H140.225V28.5954C141.514 28.6656 142.376 29.4616 142.376 30.7971C142.376 32.1479 141.634 33.0821 140.225 33.1523V33.6413H138.909V33.1523C137.499 33.0821 136.754 32.1479 136.754 30.7971ZM138.068 30.8585C138.068 31.5361 138.339 31.9221 138.909 31.9901V29.7577C138.339 29.8103 138.068 30.1349 138.068 30.8585ZM140.225 31.9901C140.792 31.9221 141.065 31.5361 141.065 30.8585C141.065 30.1349 140.794 29.8103 140.225 29.7577V31.9901Z" fill="white"/>
<path d="M147.307 33.0361C146.923 33.444 146.427 33.6413 145.818 33.6413C145.196 33.6413 144.707 33.444 144.317 33.0361C143.769 32.4638 143.775 31.7313 143.775 31.0581V30.7204C143.775 29.6722 143.895 29.2205 144.317 28.7819C144.699 28.374 145.194 28.1788 145.803 28.1788C146.418 28.1788 146.914 28.374 147.304 28.7819C147.678 29.1744 147.843 29.6568 147.843 30.4331V30.909C147.846 31.6875 147.876 32.4331 147.307 33.0361ZM146.532 30.6831C146.532 30.1788 146.479 29.7796 146.338 29.5889C146.218 29.4397 146.03 29.3564 145.812 29.3564C145.596 29.3564 145.408 29.4397 145.286 29.5889C145.144 29.7796 145.091 30.1788 145.091 30.6831V31.0537C145.091 31.7401 145.144 32.0405 145.286 32.2247C145.406 32.376 145.602 32.466 145.812 32.466C146.023 32.466 146.218 32.3738 146.338 32.2247C146.482 32.0427 146.532 31.7423 146.532 31.0537V30.6831Z" fill="white"/>
<path d="M152.197 33.5953V31.4682H150.801V33.5953H149.487V28.2271H150.801V30.2928H152.197V28.2271H153.509V33.5953H152.197Z" fill="white"/>
<path d="M158.739 34.6829V33.5953H156.117V34.6829H154.854V32.4177H155.382C155.757 31.4155 155.923 30.352 155.923 28.4507V28.2248H159.391V32.4177H160V34.6829H158.739ZM158.077 29.4002H157.213V29.5516C157.213 30.8256 157.012 31.6326 156.733 32.4155H158.077V29.4002Z" fill="white"/>
<path fill-rule="evenodd" clip-rule="evenodd" d="M6.15714 20.5037C6.17023 20.0015 7.01922 19.8984 8.43128 19.6068C8.5535 19.5827 8.50767 19.4884 8.40291 19.4489C6.29464 18.6595 4.01613 19.0739 4.27366 18.3744C4.44171 17.9336 6.32737 18.1244 8.093 18.1617C8.2174 18.166 8.1672 18.0674 8.11046 18.0367C6.72458 17.2977 3.99649 16.5258 4.31513 16.1069C4.57048 15.7714 5.80139 16.0499 7.61067 16.6705C7.97514 16.7955 8.44438 16.9534 8.691 16.9753C8.80885 16.9841 8.80012 16.9512 8.79357 16.8876C8.77611 16.6946 7.91403 16.188 7.26365 15.8174C5.92798 15.0565 5.30161 14.71 5.38891 14.2451C5.45438 13.8899 6.55217 14.2364 8.63207 15.2912C10.6225 16.2999 11.8076 16.4819 12.0346 16.3416C12.0869 16.3109 12.1415 16.2297 12.1393 16.1047C12.1328 15.5017 11.4889 15.028 11.2423 14.2605C10.9608 13.3877 11.1288 12.6641 11.5871 12.686C11.8752 12.6991 11.6548 13.2737 12.4623 14.2671C12.8988 14.9578 13.2567 15.2473 13.6867 16.2166C14.0359 17.0038 14.1494 17.9884 14.2389 18.8678C14.5531 18.5191 14.8674 18.1529 15.1795 17.7647C15.2581 17.6661 15.293 17.62 15.2122 17.449C13.9246 14.6421 12.6937 12.1882 11.1768 10.7365C9.21043 8.85279 6.96684 8.52166 5.4391 9.04357C2.85942 9.92293 1.78564 13.436 4.0816 15.1705C4.13835 15.2122 4.10561 15.2407 4.04232 15.2517C0.12477 15.9424 -0.191689 18.0849 0.068026 19.5432C0.369208 21.2142 2.93798 23.4663 6.6482 23.201C8.36144 23.0782 10.1489 22.3523 11.9189 21.0037C9.92191 19.9072 6.14404 20.9291 6.15714 20.5037ZM23.0888 28.317C22.9688 26.5978 22.2464 24.8018 20.9041 23.0233C19.8107 25.032 20.8278 28.8258 20.4044 28.8148C19.9046 28.7994 19.802 27.9464 19.5117 26.5298C19.4855 26.4048 19.3917 26.4508 19.3524 26.5561C18.5667 28.6744 18.9792 30.966 18.283 30.7029C17.8443 30.5406 18.0342 28.6415 18.0735 26.8697C18.0778 26.7447 17.9774 26.7951 17.9469 26.8521C17.2092 28.2446 16.4432 30.9858 16.0263 30.6656C15.6902 30.409 15.9674 29.17 16.585 27.3521C16.7094 26.9859 16.8666 26.5166 16.8884 26.2666C16.8993 26.1482 16.8644 26.157 16.8033 26.1636C16.6112 26.1855 16.1049 27.0473 15.736 27.7008C14.9787 29.0429 14.6361 29.6722 14.1712 29.5845C13.8176 29.5187 14.1603 28.4179 15.2122 26.3258C16.2162 24.3281 16.3973 23.1352 16.2576 22.9049C16.2249 22.8567 16.1463 22.7997 16.0198 22.8018C15.4218 22.8084 14.9503 23.4531 14.1843 23.7009C13.3135 23.9838 12.5954 23.815 12.6151 23.3545C12.6282 23.065 13.2 23.2909 14.1865 22.4751C14.8761 22.0387 15.1642 21.6769 16.1289 21.2449C16.9146 20.9006 17.8967 20.7844 18.7697 20.6945C18.4248 20.3765 18.0604 20.0607 17.6741 19.7493C17.5759 19.6704 17.5278 19.6353 17.3576 19.7142C14.5662 21.0102 12.1219 22.247 10.6792 23.7689C8.80448 25.7447 8.47057 27.999 8.99436 29.5341C9.87608 32.1261 13.3746 33.205 15.0988 30.8959C15.1424 30.8388 15.1686 30.8717 15.1817 30.9397C15.8713 34.876 18.0014 35.1939 19.4528 34.9308C21.1158 34.6304 23.3529 32.0471 23.0888 28.317Z" fill="white"/>
<path fill-rule="evenodd" clip-rule="evenodd" d="M34.7629 15.4578C34.4639 13.7846 31.8929 11.5347 28.1827 11.8C26.4716 11.9206 24.6842 12.6465 22.912 13.9951C24.9112 15.0916 28.6912 14.0697 28.6759 14.4973C28.6607 14.9995 27.8095 15.1025 26.4018 15.3942C26.2774 15.4183 26.3232 15.5126 26.428 15.5521C28.5363 16.3415 30.8169 15.9271 30.5572 16.6266C30.3935 17.0674 28.5035 16.8766 26.7401 16.8393C26.6157 16.8349 26.6659 16.9336 26.7226 16.9643C28.1085 17.7033 30.8344 18.4752 30.5158 18.8963C30.2604 19.2318 29.0273 18.9533 27.218 18.3327C26.8536 18.2077 26.3865 18.0498 26.1399 18.0279C26.0199 18.0191 26.0308 18.052 26.0351 18.1134C26.0548 18.3042 26.9147 18.8129 27.5672 19.1835C28.9029 19.9445 29.5271 20.2909 29.442 20.758C29.3765 21.1133 28.2809 20.7668 26.1988 19.712C24.2106 18.7033 23.0233 18.5213 22.7963 18.6616C22.7461 18.6923 22.6894 18.7713 22.6916 18.9006C22.6981 19.5015 23.342 19.9752 23.5886 20.7449C23.8701 21.6198 23.7021 22.3413 23.2459 22.3194C22.9557 22.3062 23.1805 21.7317 22.3708 20.7405C21.9364 20.0497 21.5742 19.7603 21.1464 18.7888C20.7972 18.0037 20.6837 17.0169 20.5942 16.1398C20.2778 16.4863 19.9635 16.8547 19.6536 17.2406C19.5728 17.3393 19.5401 17.3875 19.6208 17.5586C20.9107 20.3633 22.1416 22.8216 23.6541 24.2689C25.6205 26.1548 27.8662 26.4859 29.394 25.9618C31.9715 25.0759 33.0453 21.5628 30.7493 19.8282C30.6947 19.7844 30.7253 19.7603 30.7908 19.7471C34.7083 19.0585 35.027 16.9161 34.7629 15.4578ZM25.8409 5.46692C24.9592 2.87491 21.4607 1.796 19.7387 4.10512C19.695 4.15995 19.6688 4.12705 19.6558 4.06127C18.9661 0.125005 16.8338 -0.195159 15.3825 0.0701822C13.7194 0.37061 11.4802 2.95604 11.7443 6.68398C11.8665 8.40322 12.5867 10.2014 13.9311 11.9776C15.0224 9.97114 14.0053 6.17303 14.4287 6.18619C14.9307 6.20154 15.0311 7.05677 15.3214 8.4712C15.3475 8.59619 15.4414 8.55233 15.4807 8.44488C16.2664 6.32434 15.8517 4.03495 16.5479 4.29591C16.9888 4.45818 16.7967 6.35724 16.7574 8.1291C16.7574 8.25629 16.8535 8.20147 16.884 8.14445C17.6217 6.75415 18.3877 4.01302 18.8046 4.33319C19.1407 4.58976 18.8635 5.82655 18.2459 7.64666C18.1215 8.01288 17.9622 8.48216 17.9425 8.73215C17.9338 8.85057 17.9665 8.8396 18.0276 8.83522C18.2175 8.81329 18.726 7.95148 19.0949 7.29799C19.8522 5.95594 20.197 5.32877 20.6597 5.41429C21.0154 5.48008 20.6706 6.58091 19.6208 8.67294C18.6169 10.6707 18.4357 11.8636 18.5754 12.0939C18.606 12.1443 18.6846 12.1991 18.8111 12.1991C19.4113 12.1926 19.8827 11.5456 20.6466 11.2978C21.5174 11.015 22.2354 11.1838 22.2136 11.6421C22.2005 11.9338 21.6287 11.7079 20.6401 12.5215C19.9526 12.9579 19.6645 13.3197 18.6998 13.7517C17.9185 14.1004 16.9364 14.2166 16.0634 14.3043C16.4104 14.6223 16.7749 14.9381 17.1612 15.2495C17.2594 15.3284 17.3074 15.3613 17.4776 15.2845C20.2712 13.9885 22.7134 12.7517 24.1582 11.2321C26.0308 9.25626 26.3625 7.00195 25.8409 5.46692Z" fill="#E52A0E"/>
</svg>
