<svg width="268" height="42" viewBox="0 0 268 42" fill="none" xmlns="http://www.w3.org/2000/svg">
<path d="M59.84 19V7.64H62.944V11.816H63.584L66.512 7.64H69.936L65.936 13.128L70.304 19H66.528L63.456 14.648H62.944V19H59.84ZM74.5344 19.112V16.552H75.6704C75.9478 16.552 76.1611 16.504 76.3104 16.408C76.4704 16.3013 76.5771 16.1307 76.6304 15.896L76.6624 15.736L72.4544 7.64H75.8944L78.0544 12.584L80.0384 7.64H83.3184L78.9824 17.352C78.6518 18.024 78.2571 18.488 77.7984 18.744C77.3398 18.9893 76.7371 19.112 75.9904 19.112H74.5344ZM93.0973 19V10.36H90.8893L90.8253 11.896C90.7613 13.3467 90.6226 14.5413 90.4093 15.48C90.2066 16.408 89.9026 17.1387 89.4973 17.672C89.092 18.1947 88.5693 18.568 87.9293 18.792C87.3 19.0053 86.5373 19.112 85.6413 19.112V16.424C86.004 16.424 86.3133 16.36 86.5693 16.232C86.836 16.0933 87.0546 15.8373 87.2253 15.464C87.4066 15.08 87.5453 14.5307 87.6413 13.816C87.748 13.0907 87.8226 12.1413 87.8653 10.968L87.9933 7.64H96.2173V19H93.0973ZM100.314 19V7.64H103.434V11.4H105.29C106.56 11.4 107.562 11.736 108.298 12.408C109.045 13.0693 109.418 13.9867 109.418 15.16C109.418 16.344 109.066 17.2827 108.362 17.976C107.658 18.6587 106.688 19 105.45 19H100.314ZM103.434 16.472H105.002C105.408 16.472 105.712 16.3547 105.914 16.12C106.128 15.8853 106.234 15.5653 106.234 15.16C106.234 14.84 106.128 14.5573 105.914 14.312C105.712 14.056 105.408 13.928 105.002 13.928H103.434V16.472ZM121.632 10.36H118.368V19H115.248V10.36H111.968V7.64H121.632V10.36ZM125.792 19.112V16.552H126.928C127.205 16.552 127.419 16.504 127.568 16.408C127.728 16.3013 127.835 16.1307 127.888 15.896L127.92 15.736L123.712 7.64H127.152L129.312 12.584L131.296 7.64H134.576L130.24 17.352C129.909 18.024 129.515 18.488 129.056 18.744C128.597 18.9893 127.995 19.112 127.248 19.112H125.792ZM137.475 19V7.64H142.371C142.925 7.64 143.437 7.752 143.907 7.976C144.376 8.2 144.781 8.504 145.123 8.888C145.464 9.26133 145.725 9.68267 145.907 10.152C146.099 10.6213 146.195 11.096 146.195 11.576C146.195 12.248 146.035 12.8827 145.715 13.48C145.405 14.0773 144.968 14.568 144.403 14.952C143.848 15.3253 143.197 15.512 142.451 15.512H140.595V19H137.475ZM140.595 12.792H142.243C142.435 12.792 142.611 12.7067 142.771 12.536C142.941 12.3547 143.027 12.0347 143.027 11.576C143.027 11.1067 142.931 10.7867 142.739 10.616C142.547 10.4453 142.355 10.36 142.163 10.36H140.595V12.792ZM151.319 7.64H154.807L158.423 19H155.255L154.567 16.776H151.543L150.871 19H147.687L151.319 7.64ZM154.071 14.696L153.063 10.696L152.007 14.696H154.071ZM166.637 19V7.64H171.533C172.087 7.64 172.599 7.752 173.069 7.976C173.538 8.2 173.943 8.504 174.285 8.888C174.626 9.26133 174.887 9.68267 175.069 10.152C175.261 10.6213 175.357 11.096 175.357 11.576C175.357 12.248 175.197 12.8827 174.877 13.48C174.567 14.0773 174.13 14.568 173.565 14.952C173.01 15.3253 172.359 15.512 171.613 15.512H169.757V19H166.637ZM169.757 12.792H171.405C171.597 12.792 171.773 12.7067 171.933 12.536C172.103 12.3547 172.189 12.0347 172.189 11.576C172.189 11.1067 172.093 10.7867 171.901 10.616C171.709 10.4453 171.517 10.36 171.325 10.36H169.757V12.792ZM180.481 7.64H183.969L187.585 19H184.417L183.729 16.776H180.705L180.033 19H176.849L180.481 7.64ZM183.233 14.696L182.225 10.696L181.169 14.696H183.233ZM194.961 19.096C193.905 19.096 192.956 18.8933 192.113 18.488C191.281 18.072 190.62 17.496 190.129 16.76L192.465 15.304C192.711 15.6773 193.036 15.976 193.441 16.2C193.857 16.4133 194.337 16.52 194.881 16.52C195.447 16.52 195.841 16.424 196.065 16.232C196.289 16.0293 196.401 15.7787 196.401 15.48C196.401 15.1707 196.289 14.9253 196.065 14.744C195.841 14.552 195.447 14.456 194.881 14.456H193.297V12.12H194.881C195.351 12.12 195.676 12.0453 195.857 11.896C196.049 11.736 196.145 11.5173 196.145 11.24C196.145 10.9627 196.044 10.744 195.841 10.584C195.649 10.424 195.287 10.344 194.753 10.344C194.135 10.344 193.617 10.4507 193.201 10.664C192.796 10.8773 192.487 11.1493 192.273 11.48L190.033 9.88C190.556 9.19733 191.196 8.64267 191.953 8.216C192.711 7.78933 193.687 7.576 194.881 7.576C196.236 7.576 197.287 7.84267 198.033 8.376C198.791 8.89867 199.169 9.688 199.169 10.744C199.169 11.2133 199.057 11.672 198.833 12.12C198.609 12.568 198.215 12.92 197.649 13.176C198.268 13.368 198.743 13.6987 199.073 14.168C199.404 14.6267 199.569 15.1707 199.569 15.8C199.569 16.5253 199.367 17.1333 198.961 17.624C198.556 18.1147 198.007 18.4827 197.313 18.728C196.62 18.9733 195.836 19.096 194.961 19.096ZM212.853 16.088C212.853 16.7707 212.666 17.3253 212.293 17.752C211.93 18.1787 211.44 18.4933 210.821 18.696C210.202 18.8987 209.52 19 208.773 19H203.189V7.64H209.781C210.314 7.64 210.773 7.784 211.157 8.072C211.552 8.34933 211.85 8.712 212.053 9.16C212.266 9.608 212.373 10.072 212.373 10.552C212.373 11.0747 212.234 11.5813 211.957 12.072C211.69 12.5627 211.285 12.9307 210.741 13.176C211.392 13.368 211.904 13.704 212.277 14.184C212.661 14.664 212.853 15.2987 212.853 16.088ZM206.309 10.296V12.04H208.437C208.65 12.04 208.842 11.9813 209.013 11.864C209.194 11.7467 209.285 11.512 209.285 11.16C209.285 10.8507 209.21 10.632 209.061 10.504C208.912 10.3653 208.736 10.296 208.533 10.296H206.309ZM209.685 15.448C209.685 15.1707 209.61 14.9413 209.461 14.76C209.312 14.568 209.12 14.472 208.885 14.472H206.309V16.376H208.773C209.029 16.376 209.242 16.296 209.413 16.136C209.594 15.976 209.685 15.7467 209.685 15.448ZM216.38 19V7.64H219.5V14.552L223.692 7.64H226.604V19H223.484V12.088L219.34 19H216.38ZM239.541 10.36H236.277V19H233.157V10.36H229.877V7.64H239.541V10.36ZM242.821 19V7.64H245.941V14.552L250.133 7.64H253.045V19H249.925V12.088L245.781 19H242.821ZM256.83 19L259.406 14.664C258.788 14.3867 258.302 13.96 257.95 13.384C257.598 12.7973 257.422 12.1147 257.422 11.336C257.422 10.6107 257.588 9.97067 257.918 9.416C258.249 8.86133 258.702 8.42933 259.278 8.12C259.854 7.8 260.51 7.64 261.246 7.64H266.462V19H263.342V15.032H262.542L260.334 19H256.83ZM261.694 12.392H263.342V10.28H261.694C261.438 10.28 261.188 10.3547 260.942 10.504C260.708 10.6427 260.59 10.92 260.59 11.336C260.59 11.752 260.708 12.0347 260.942 12.184C261.177 12.3227 261.428 12.392 261.694 12.392Z" fill="#30ADD4"/>
<path d="M60.668 29.54H65.0889V30.2959H61.5294V32.2031H63.3311C63.709 32.2031 64.0372 32.2471 64.3155 32.335C64.5938 32.4229 64.8253 32.5488 65.0098 32.7129C65.1944 32.877 65.3306 33.0762 65.4185 33.3105C65.5093 33.5449 65.5547 33.8086 65.5547 34.1016C65.5547 34.3887 65.5093 34.6494 65.4185 34.8838C65.3277 35.1152 65.1944 35.3145 65.0186 35.4814C64.8458 35.6455 64.6319 35.7729 64.377 35.8638C64.1251 35.9546 63.8365 36 63.5113 36H60.668V29.54ZM61.5294 35.2441H63.397C63.5728 35.2441 63.7354 35.2251 63.8848 35.187C64.0372 35.1489 64.169 35.0859 64.2803 34.998C64.3917 34.9072 64.4781 34.79 64.5396 34.6465C64.6041 34.5 64.6363 34.3184 64.6363 34.1016C64.6363 33.8877 64.6026 33.7075 64.5352 33.561C64.4708 33.4146 64.377 33.2974 64.254 33.2095C64.1309 33.1187 63.9815 33.0542 63.8057 33.0161C63.6299 32.978 63.4307 32.959 63.2081 32.959H61.5294V35.2441ZM73.9341 30.2959H71.6269C71.6269 30.7969 71.6211 31.2891 71.6094 31.7725C71.5976 32.2559 71.5727 32.7144 71.5347 33.1479C71.4966 33.5786 71.4394 33.9756 71.3633 34.3389C71.2871 34.7021 71.1831 35.0171 71.0513 35.2837C70.9194 35.5474 70.7554 35.7539 70.5591 35.9033C70.3657 36.0498 70.1299 36.123 69.8515 36.123C69.7666 36.123 69.6948 36.1157 69.6362 36.1011C69.5805 36.0864 69.519 36.0703 69.4516 36.0527V35.2529C69.4839 35.2676 69.5234 35.2808 69.5703 35.2925C69.6201 35.3013 69.6904 35.3057 69.7812 35.3057C69.916 35.3057 70.0317 35.2573 70.1284 35.1606C70.228 35.061 70.313 34.9233 70.3833 34.7476C70.4536 34.5718 70.5107 34.3638 70.5547 34.1235C70.6015 33.8804 70.6382 33.6167 70.6645 33.3325C70.6938 33.0483 70.7143 32.748 70.7261 32.4316C70.7407 32.1152 70.751 31.7944 70.7568 31.4692C70.7656 31.1411 70.77 30.8145 70.77 30.4893C70.7729 30.1611 70.7773 29.8447 70.7832 29.54H74.7998V36H73.9341V30.2959ZM82.8847 33.3369L81.9003 30.4629L80.8105 33.3369H82.8847ZM78.956 36L81.3773 29.439H82.4276L84.7699 36H83.8119L83.1308 34.0225H80.5907L79.87 36H78.956ZM88.9041 29.54H92.701V30.2959H89.7655V36H88.9041V29.54ZM102.891 32.77C102.891 33.0483 102.863 33.3267 102.807 33.605C102.752 33.8804 102.667 34.144 102.552 34.396C102.438 34.645 102.295 34.8779 102.122 35.0947C101.952 35.3086 101.75 35.4961 101.515 35.6572C101.281 35.8154 101.016 35.9385 100.72 36.0264C100.427 36.1172 100.102 36.1626 99.7444 36.1626C99.387 36.1626 99.0603 36.1172 98.7644 36.0264C98.4685 35.9385 98.2034 35.8154 97.969 35.6572C97.7375 35.4961 97.5354 35.3086 97.3625 35.0947C97.1897 34.8779 97.0461 34.645 96.9319 34.396C96.8176 34.144 96.7327 33.8804 96.677 33.605C96.6213 33.3267 96.5935 33.0483 96.5935 32.77C96.5935 32.269 96.6638 31.8105 96.8044 31.3945C96.948 30.9785 97.1545 30.6211 97.4241 30.3223C97.6936 30.0234 98.0232 29.792 98.4128 29.6279C98.8025 29.4609 99.2463 29.3774 99.7444 29.3774C100.239 29.3774 100.682 29.4609 101.072 29.6279C101.464 29.792 101.794 30.0234 102.06 30.3223C102.33 30.6211 102.535 30.9785 102.676 31.3945C102.819 31.8105 102.891 32.269 102.891 32.77ZM102.03 32.77C102.03 32.3862 101.978 32.0332 101.876 31.7109C101.773 31.3857 101.624 31.1074 101.427 30.876C101.234 30.6416 100.995 30.46 100.711 30.3311C100.427 30.1992 100.105 30.1333 99.7444 30.1333C99.3811 30.1333 99.0574 30.1992 98.7732 30.3311C98.489 30.46 98.2488 30.6416 98.0525 30.876C97.8591 31.1074 97.7112 31.3857 97.6086 31.7109C97.5061 32.0332 97.4548 32.3862 97.4548 32.77C97.4548 33.1626 97.5017 33.5215 97.5955 33.8467C97.6892 34.1689 97.8313 34.4458 98.0217 34.6772C98.2122 34.9087 98.4495 35.0889 98.7336 35.2178C99.0207 35.3438 99.3577 35.4067 99.7444 35.4067C100.128 35.4067 100.464 35.3438 100.751 35.2178C101.038 35.0889 101.275 34.9087 101.463 34.6772C101.653 34.4458 101.795 34.1689 101.889 33.8467C101.983 33.5215 102.03 33.1626 102.03 32.77ZM106.704 29.54H111.96V30.2959H109.763V36H108.897V30.2959H106.704V29.54ZM116.077 29.54H118.388C118.643 29.54 118.866 29.5474 119.056 29.562C119.247 29.5737 119.425 29.6016 119.592 29.6455C119.751 29.6895 119.899 29.7539 120.036 29.8389C120.177 29.9209 120.3 30.0264 120.405 30.1553C120.511 30.2812 120.593 30.4292 120.651 30.5991C120.713 30.7661 120.744 30.9551 120.744 31.166C120.744 31.2773 120.729 31.3975 120.7 31.5264C120.67 31.6553 120.622 31.7827 120.555 31.9087C120.487 32.0317 120.398 32.1475 120.287 32.2559C120.178 32.3613 120.044 32.4478 119.882 32.5151C120.014 32.5591 120.149 32.6206 120.287 32.6997C120.424 32.7788 120.549 32.8813 120.66 33.0073C120.774 33.1304 120.868 33.2812 120.941 33.46C121.015 33.6357 121.051 33.8467 121.051 34.0928C121.051 34.2334 121.034 34.3799 120.999 34.5322C120.966 34.6816 120.912 34.8267 120.836 34.9673C120.763 35.1079 120.668 35.2412 120.55 35.3672C120.433 35.4932 120.291 35.603 120.124 35.6968C119.957 35.7905 119.764 35.8652 119.544 35.9209C119.327 35.9736 119.08 36 118.801 36H116.077V29.54ZM118.674 35.2441C118.955 35.2441 119.191 35.2178 119.381 35.165C119.575 35.1094 119.73 35.0332 119.847 34.9365C119.967 34.8369 120.054 34.7183 120.107 34.5806C120.159 34.4429 120.186 34.2891 120.186 34.1191C120.186 33.9492 120.159 33.7954 120.107 33.6577C120.054 33.52 119.967 33.4028 119.847 33.3062C119.73 33.2065 119.575 33.1304 119.381 33.0776C119.191 33.022 118.955 32.9941 118.674 32.9941H116.938V35.2441H118.674ZM118.551 32.291C118.835 32.291 119.064 32.2646 119.236 32.2119C119.412 32.1562 119.547 32.083 119.641 31.9922C119.737 31.8984 119.802 31.7886 119.834 31.6626C119.866 31.5366 119.882 31.4019 119.882 31.2583C119.882 31.106 119.859 30.9712 119.812 30.854C119.768 30.7339 119.693 30.6328 119.588 30.5508C119.483 30.4688 119.345 30.4058 119.175 30.3618C119.005 30.3179 118.797 30.2959 118.551 30.2959H116.938V32.291H118.551ZM131.391 32.77C131.391 33.0483 131.363 33.3267 131.307 33.605C131.251 33.8804 131.167 34.144 131.052 34.396C130.938 34.645 130.794 34.8779 130.622 35.0947C130.452 35.3086 130.25 35.4961 130.015 35.6572C129.781 35.8154 129.516 35.9385 129.22 36.0264C128.927 36.1172 128.602 36.1626 128.244 36.1626C127.887 36.1626 127.56 36.1172 127.264 36.0264C126.968 35.9385 126.703 35.8154 126.469 35.6572C126.237 35.4961 126.035 35.3086 125.862 35.0947C125.689 34.8779 125.546 34.645 125.432 34.396C125.317 34.144 125.232 33.8804 125.177 33.605C125.121 33.3267 125.093 33.0483 125.093 32.77C125.093 32.269 125.164 31.8105 125.304 31.3945C125.448 30.9785 125.654 30.6211 125.924 30.3223C126.193 30.0234 126.523 29.792 126.913 29.6279C127.302 29.4609 127.746 29.3774 128.244 29.3774C128.739 29.3774 129.182 29.4609 129.571 29.6279C129.964 29.792 130.293 30.0234 130.56 30.3223C130.83 30.6211 131.035 30.9785 131.175 31.3945C131.319 31.8105 131.391 32.269 131.391 32.77ZM130.529 32.77C130.529 32.3862 130.478 32.0332 130.375 31.7109C130.273 31.3857 130.124 31.1074 129.927 30.876C129.734 30.6416 129.495 30.46 129.211 30.3311C128.927 30.1992 128.604 30.1333 128.244 30.1333C127.881 30.1333 127.557 30.1992 127.273 30.3311C126.989 30.46 126.749 30.6416 126.552 30.876C126.359 31.1074 126.211 31.3857 126.108 31.7109C126.006 32.0332 125.955 32.3862 125.955 32.77C125.955 33.1626 126.001 33.5215 126.095 33.8467C126.189 34.1689 126.331 34.4458 126.521 34.6772C126.712 34.9087 126.949 35.0889 127.233 35.2178C127.521 35.3438 127.857 35.4067 128.244 35.4067C128.628 35.4067 128.963 35.3438 129.25 35.2178C129.538 35.0889 129.775 34.9087 129.962 34.6772C130.153 34.4458 130.295 34.1689 130.389 33.8467C130.482 33.5215 130.529 33.1626 130.529 32.77ZM138.372 32.5635C138.83 32.5635 139.159 32.4668 139.361 32.2734C139.563 32.0801 139.664 31.7988 139.664 31.4297C139.664 31.0605 139.563 30.7793 139.361 30.5859C139.159 30.3926 138.83 30.2959 138.372 30.2959H136.606V32.5635H138.372ZM135.745 29.54H138.46C138.815 29.54 139.121 29.5854 139.379 29.6763C139.64 29.7671 139.855 29.896 140.025 30.063C140.195 30.2271 140.321 30.4248 140.403 30.6562C140.488 30.8877 140.53 31.1455 140.53 31.4297C140.53 31.7139 140.488 31.9717 140.403 32.2031C140.321 32.4346 140.195 32.6338 140.025 32.8008C139.855 32.9648 139.64 33.0923 139.379 33.1831C139.121 33.2739 138.815 33.3193 138.46 33.3193H136.606V36H135.745V29.54ZM145.077 29.54H145.939V34.7651H145.956L149.243 29.54H150.241V36H149.375V30.7441H149.358L146.075 36H145.077V29.54ZM154.371 29.54H159.627V30.2959H157.429V36H156.564V30.2959H154.371V29.54ZM163.743 29.54H168.459V30.2959H164.605V32.291H168.16V33.0469H164.605V35.2441H168.52V36H163.743V29.54ZM177.053 30.2959H174.746C174.746 30.7969 174.74 31.2891 174.729 31.7725C174.717 32.2559 174.692 32.7144 174.654 33.1479C174.616 33.5786 174.559 33.9756 174.483 34.3389C174.406 34.7021 174.302 35.0171 174.171 35.2837C174.039 35.5474 173.875 35.7539 173.678 35.9033C173.485 36.0498 173.249 36.123 172.971 36.123C172.886 36.123 172.814 36.1157 172.755 36.1011C172.7 36.0864 172.638 36.0703 172.571 36.0527V35.2529C172.603 35.2676 172.643 35.2808 172.69 35.2925C172.739 35.3013 172.81 35.3057 172.9 35.3057C173.035 35.3057 173.151 35.2573 173.248 35.1606C173.347 35.061 173.432 34.9233 173.503 34.7476C173.573 34.5718 173.63 34.3638 173.674 34.1235C173.721 33.8804 173.757 33.6167 173.784 33.3325C173.813 33.0483 173.834 32.748 173.845 32.4316C173.86 32.1152 173.87 31.7944 173.876 31.4692C173.885 31.1411 173.889 30.8145 173.889 30.4893C173.892 30.1611 173.897 29.8447 173.902 29.54H177.919V36H177.053V30.2959ZM182.585 29.54H183.451V32.2031H185.169C185.556 32.2031 185.891 32.2471 186.175 32.335C186.459 32.4229 186.694 32.5488 186.878 32.7129C187.063 32.877 187.201 33.0762 187.292 33.3105C187.382 33.5449 187.428 33.8086 187.428 34.1016C187.428 34.3887 187.382 34.6494 187.292 34.8838C187.201 35.1152 187.067 35.3145 186.892 35.4814C186.719 35.6455 186.505 35.7729 186.25 35.8638C185.998 35.9546 185.709 36 185.384 36H182.585V29.54ZM185.27 35.2441C185.446 35.2441 185.608 35.2251 185.758 35.187C185.91 35.1489 186.042 35.0859 186.153 34.998C186.265 34.9072 186.351 34.79 186.413 34.6465C186.477 34.5 186.509 34.3184 186.509 34.1016C186.509 33.8877 186.476 33.7075 186.408 33.561C186.344 33.4146 186.25 33.2974 186.127 33.2095C186.004 33.1187 185.855 33.0542 185.679 33.0161C185.503 32.978 185.304 32.959 185.081 32.959H183.451V35.2441H185.27ZM191.777 29.54H192.639V32.2031H196.075V29.54H196.941V36H196.075V32.959H192.639V36H191.777V29.54ZM201.611 29.54H202.477V32.2031H204.195C204.582 32.2031 204.917 32.2471 205.202 32.335C205.486 32.4229 205.72 32.5488 205.905 32.7129C206.089 32.877 206.227 33.0762 206.318 33.3105C206.409 33.5449 206.454 33.8086 206.454 34.1016C206.454 34.3887 206.409 34.6494 206.318 34.8838C206.227 35.1152 206.094 35.3145 205.918 35.4814C205.745 35.6455 205.531 35.7729 205.276 35.8638C205.024 35.9546 204.736 36 204.411 36H201.611V29.54ZM204.296 35.2441C204.472 35.2441 204.635 35.2251 204.784 35.187C204.936 35.1489 205.068 35.0859 205.18 34.998C205.291 34.9072 205.377 34.79 205.439 34.6465C205.503 34.5 205.536 34.3184 205.536 34.1016C205.536 33.8877 205.502 33.7075 205.434 33.561C205.37 33.4146 205.276 33.2974 205.153 33.2095C205.03 33.1187 204.881 33.0542 204.705 33.0161C204.529 32.978 204.33 32.959 204.107 32.959H202.477V35.2441H204.296ZM207.328 29.54H208.19V36H207.328V29.54ZM214.583 27.8745C214.624 28.1118 214.718 28.2803 214.864 28.3799C215.013 28.4795 215.205 28.5293 215.44 28.5293C215.677 28.5293 215.869 28.4751 216.015 28.3667C216.162 28.2583 216.256 28.0942 216.297 27.8745H217.092C217.092 28.0649 217.051 28.2363 216.969 28.3887C216.89 28.541 216.777 28.6714 216.631 28.7798C216.487 28.8882 216.313 28.9717 216.108 29.0303C215.906 29.0859 215.683 29.1138 215.44 29.1138C215.182 29.1138 214.95 29.083 214.745 29.0215C214.54 28.957 214.366 28.8706 214.222 28.7622C214.082 28.6509 213.973 28.5205 213.897 28.3711C213.824 28.2188 213.789 28.0532 213.792 27.8745H214.583ZM212.86 29.54H213.721V34.7651H213.739L217.026 29.54H218.024V36H217.158V30.7441H217.14L213.858 36H212.86V29.54ZM234.418 32.77C234.418 32.4712 234.372 32.2046 234.281 31.9702C234.191 31.7329 234.051 31.5322 233.864 31.3682C233.679 31.2041 233.443 31.0796 233.156 30.9946C232.869 30.9067 232.531 30.8628 232.141 30.8628V34.6729C232.531 34.6729 232.869 34.6304 233.156 34.5454C233.443 34.4575 233.679 34.333 233.864 34.1719C234.051 34.0078 234.191 33.8086 234.281 33.5742C234.372 33.3369 234.418 33.0688 234.418 32.77ZM231.276 35.4111C230.789 35.4111 230.353 35.3555 229.966 35.2441C229.579 35.1299 229.251 34.9614 228.982 34.7388C228.712 34.5161 228.505 34.2407 228.362 33.9126C228.218 33.5815 228.147 33.2007 228.147 32.77C228.147 32.3394 228.218 31.96 228.362 31.6318C228.505 31.3008 228.712 31.0239 228.982 30.8013C229.251 30.5786 229.579 30.4116 229.966 30.3003C230.353 30.186 230.789 30.1289 231.276 30.1289V29.4082H232.141V30.1289C232.628 30.1289 233.064 30.186 233.451 30.3003C233.838 30.4116 234.166 30.5786 234.435 30.8013C234.705 31.0239 234.911 31.3008 235.055 31.6318C235.201 31.96 235.275 32.3394 235.275 32.77C235.275 33.2007 235.201 33.5815 235.055 33.9126C234.911 34.2407 234.705 34.5161 234.435 34.7388C234.166 34.9614 233.838 35.1299 233.451 35.2441C233.064 35.3555 232.628 35.4111 232.141 35.4111V36.1318H231.276V35.4111ZM228.999 32.77C228.999 33.0688 229.045 33.3369 229.135 33.5742C229.226 33.8086 229.364 34.0078 229.548 34.1719C229.736 34.333 229.972 34.4575 230.256 34.5454C230.543 34.6304 230.883 34.6729 231.276 34.6729V30.8628C230.883 30.8628 230.543 30.9067 230.256 30.9946C229.972 31.0796 229.736 31.2041 229.548 31.3682C229.364 31.5322 229.226 31.7329 229.135 31.9702C229.045 32.2046 228.999 32.4712 228.999 32.77ZM245.539 32.77C245.539 33.0483 245.511 33.3267 245.456 33.605C245.4 33.8804 245.315 34.144 245.201 34.396C245.086 34.645 244.943 34.8779 244.77 35.0947C244.6 35.3086 244.398 35.4961 244.164 35.6572C243.929 35.8154 243.664 35.9385 243.368 36.0264C243.075 36.1172 242.75 36.1626 242.393 36.1626C242.035 36.1626 241.709 36.1172 241.413 36.0264C241.117 35.9385 240.852 35.8154 240.617 35.6572C240.386 35.4961 240.184 35.3086 240.011 35.0947C239.838 34.8779 239.694 34.645 239.58 34.396C239.466 34.144 239.381 33.8804 239.325 33.605C239.27 33.3267 239.242 33.0483 239.242 32.77C239.242 32.269 239.312 31.8105 239.453 31.3945C239.596 30.9785 239.803 30.6211 240.072 30.3223C240.342 30.0234 240.671 29.792 241.061 29.6279C241.451 29.4609 241.895 29.3774 242.393 29.3774C242.888 29.3774 243.33 29.4609 243.72 29.6279C244.112 29.792 244.442 30.0234 244.709 30.3223C244.978 30.6211 245.183 30.9785 245.324 31.3945C245.467 31.8105 245.539 32.269 245.539 32.77ZM244.678 32.77C244.678 32.3862 244.627 32.0332 244.524 31.7109C244.421 31.3857 244.272 31.1074 244.076 30.876C243.882 30.6416 243.644 30.46 243.359 30.3311C243.075 30.1992 242.753 30.1333 242.393 30.1333C242.029 30.1333 241.706 30.1992 241.421 30.3311C241.137 30.46 240.897 30.6416 240.701 30.876C240.507 31.1074 240.359 31.3857 240.257 31.7109C240.154 32.0332 240.103 32.3862 240.103 32.77C240.103 33.1626 240.15 33.5215 240.244 33.8467C240.337 34.1689 240.48 34.4458 240.67 34.6772C240.86 34.9087 241.098 35.0889 241.382 35.2178C241.669 35.3438 242.006 35.4067 242.393 35.4067C242.776 35.4067 243.112 35.3438 243.399 35.2178C243.686 35.0889 243.923 34.9087 244.111 34.6772C244.301 34.4458 244.443 34.1689 244.537 33.8467C244.631 33.5215 244.678 33.1626 244.678 32.77ZM249.893 29.54H250.754V32.2031H254.191V29.54H255.057V36H254.191V32.959H250.754V36H249.893V29.54ZM259.222 37.3843V35.2441H259.806C259.868 35.1035 259.925 34.9614 259.977 34.8179C260.03 34.6714 260.078 34.5073 260.122 34.3257C260.169 34.1411 260.212 33.9302 260.25 33.6929C260.291 33.4556 260.329 33.1743 260.364 32.8491C260.405 32.5063 260.437 32.1694 260.461 31.8384C260.484 31.5044 260.502 31.1924 260.514 30.9023C260.528 30.6123 260.537 30.3501 260.54 30.1157C260.546 29.8813 260.55 29.6895 260.553 29.54H264.614V35.2441H265.343V37.3843H264.535V36H260.03V37.3843H259.222ZM261.362 30.2959C261.362 30.7148 261.344 31.1323 261.309 31.5483C261.277 31.9644 261.237 32.3833 261.19 32.8052C261.158 33.1392 261.124 33.4233 261.089 33.6577C261.057 33.8892 261.022 34.0957 260.984 34.2773C260.949 34.4561 260.908 34.6216 260.861 34.7739C260.817 34.9233 260.766 35.0801 260.707 35.2441H263.726V30.2959H261.362Z" fill="#212121"/>
<path fill-rule="evenodd" clip-rule="evenodd" d="M27.7068 33.9804C27.5628 31.9164 26.6952 29.7624 25.0848 27.6276C23.7732 30.0384 24.9936 34.5912 24.4848 34.578C23.8848 34.5588 23.7624 33.5352 23.4144 31.836C23.382 31.686 23.2704 31.74 23.2224 31.8672C22.2804 34.4088 22.7748 37.1592 21.9396 36.8436C21.4128 36.6492 21.6408 34.3704 21.6876 32.244C21.6936 32.094 21.5724 32.154 21.5364 32.2224C20.6508 33.894 19.7316 37.1832 19.2324 36.7992C18.828 36.4908 19.1604 35.004 19.902 32.8224C20.0508 32.3832 20.2404 31.8204 20.2656 31.5204C20.2788 31.3776 20.2368 31.3884 20.1636 31.3968C19.9332 31.422 19.326 32.4564 18.8832 33.2412C17.9748 34.8516 17.5632 35.6064 17.0052 35.5008C16.5816 35.4228 16.9932 34.1016 18.2544 31.5912C19.4592 29.1936 19.6764 27.7632 19.5096 27.486C19.47 27.4284 19.3752 27.36 19.224 27.3624C18.5064 27.3696 17.94 28.1436 17.0208 28.4412C15.9768 28.7808 15.114 28.578 15.138 28.026C15.1536 27.678 15.84 27.9492 17.0244 26.97C17.8524 26.4468 18.1968 26.0124 19.3548 25.494C20.298 25.0812 21.4764 24.942 22.5228 24.834C22.11 24.4512 21.672 24.0732 21.2088 23.6988C21.0912 23.604 21.0336 23.562 20.8296 23.6568C17.4792 25.212 14.5464 26.6964 12.8148 28.5228C10.5648 30.894 10.1652 33.5988 10.7928 35.4408C11.8512 38.5512 16.0488 39.846 18.1188 37.0752C18.1704 37.0068 18.2028 37.0464 18.2184 37.128C19.0464 41.8512 21.6024 42.2328 23.3424 41.916C25.3392 41.556 28.0224 38.4564 27.7068 33.9804Z" fill="#FFA84F"/>
<path fill-rule="evenodd" clip-rule="evenodd" d="M7.38853 24.6048C7.40413 24.0012 8.42293 23.8776 10.1173 23.5284C10.2649 23.4996 10.2097 23.3856 10.0837 23.3388C7.55413 22.3908 4.81933 22.8888 5.12773 22.0488C5.33053 21.5208 7.59253 21.7488 9.71173 21.7944C9.86053 21.7992 9.80053 21.6804 9.73213 21.6444C8.07013 20.7564 4.79533 19.8312 5.17813 19.3284C5.48413 18.9252 6.96133 19.26 9.13333 20.0052C9.57013 20.1552 10.1329 20.3436 10.4293 20.37C10.5709 20.382 10.5613 20.3412 10.5529 20.2656C10.5313 20.034 9.49693 19.4256 8.71693 18.9816C7.11373 18.0684 6.36253 17.652 6.46693 17.094C6.54493 16.668 7.86253 17.0832 10.3585 18.3492C12.7465 19.56 14.1697 19.7772 14.4421 19.6092C14.5045 19.5732 14.5705 19.476 14.5669 19.326C14.5597 18.6024 13.7869 18.0336 13.4905 17.112C13.1533 16.0656 13.3549 15.1968 13.9045 15.2232C14.2501 15.2388 13.9861 15.9288 14.9545 17.1204C15.4789 17.9484 15.9085 18.2964 16.4245 19.4604C16.8433 20.4048 16.9789 21.5856 17.0869 22.6404C17.4637 22.2228 17.8405 21.7836 18.2149 21.318C18.3109 21.1992 18.3517 21.144 18.2545 20.9388C16.7101 17.5704 15.2329 14.6268 13.4125 12.8832C11.0521 10.6236 8.36053 10.2264 6.52693 10.8528C3.43093 11.9076 2.14333 16.1232 4.89853 18.2052C4.96573 18.2544 4.92733 18.2892 4.85053 18.3012C0.150128 19.1304 -0.230271 21.702 0.0817285 23.4516C0.442929 25.4568 3.52573 28.1592 7.97773 27.8412C10.0333 27.6936 12.1777 26.8224 14.3017 25.2048C11.9065 23.8884 7.37173 25.1148 7.38853 24.6048Z" fill="#FF7B77"/>
<path fill-rule="evenodd" clip-rule="evenodd" d="M14.4256 8.01913C14.5696 10.0831 15.4372 12.2371 17.0476 14.3719C18.3592 11.9611 17.1388 7.40833 17.6476 7.42153C18.2476 7.44073 18.37 8.46433 18.718 10.1635C18.7504 10.3135 18.862 10.2595 18.91 10.1323C19.852 7.59073 19.3576 4.84033 20.1928 5.15593C20.7196 5.35033 20.4916 7.62913 20.4448 9.75553C20.4388 9.90553 20.56 9.84553 20.596 9.77713C21.4816 8.10553 22.4008 4.81633 22.9 5.20033C23.3044 5.50873 22.972 6.99553 22.2304 9.17713C22.0816 9.61633 21.892 10.1791 21.8668 10.4791C21.8536 10.6219 21.8956 10.6111 21.9688 10.6027C22.1992 10.5775 22.8064 9.54313 23.2492 8.75833C24.1576 7.14793 24.5692 6.39313 25.1272 6.49873C25.5508 6.57673 25.1392 7.89793 23.878 10.4083C22.6732 12.8059 22.456 14.2363 22.6228 14.5135C22.6624 14.5711 22.7572 14.6395 22.9084 14.6371C23.626 14.6299 24.1924 13.8559 25.1116 13.5583C26.1556 13.2187 27.0184 13.4215 26.9944 13.9735C26.9788 14.3215 26.2924 14.0503 25.108 15.0295C24.28 15.5527 23.9356 15.9871 22.7776 16.5055C21.8344 16.9183 20.656 17.0575 19.6096 17.1655C20.0224 17.5483 20.4604 17.9263 20.9236 18.3007C21.0412 18.3955 21.0988 18.4375 21.3028 18.3427C24.6532 16.7875 27.586 15.3031 29.3176 13.4767C31.5676 11.1055 31.9672 8.40073 31.3396 6.55873C30.2812 3.44833 26.0836 2.15353 24.0136 4.92433C23.962 4.99273 23.9296 4.95313 23.914 4.87153C23.086 0.148326 20.53 -0.233274 18.79 0.0835255C16.7932 0.443526 14.11 3.54313 14.4256 8.01913Z" fill="#7AC133"/>
<path fill-rule="evenodd" clip-rule="evenodd" d="M34.7439 17.3947C34.7283 17.9983 33.7095 18.1219 32.0151 18.4711C31.8675 18.4999 31.9227 18.6139 32.0487 18.6607C34.5783 19.6087 37.3131 19.1107 37.0047 19.9507C36.8019 20.4787 34.5399 20.2507 32.4207 20.2051C32.2719 20.2003 32.3319 20.3191 32.4003 20.3551C34.0623 21.2431 37.3371 22.1683 36.9543 22.6711C36.6483 23.0743 35.1711 22.7395 32.9991 21.9943C32.5623 21.8443 31.9995 21.6559 31.7031 21.6295C31.5615 21.6175 31.5711 21.6583 31.5795 21.7339C31.6011 21.9655 32.6355 22.5739 33.4155 23.0179C35.0187 23.9311 35.7699 24.3475 35.6655 24.9055C35.5875 25.3315 34.2699 24.9163 31.7739 23.6503C29.3859 22.4395 27.9627 22.2223 27.6903 22.3903C27.6279 22.4263 27.5619 22.5235 27.5655 22.6735C27.5727 23.3971 28.3455 23.9659 28.6419 24.8875C28.9791 25.9339 28.7775 26.8027 28.2279 26.7763C27.8823 26.7607 28.1463 26.0707 27.1779 24.8791C26.6535 24.0511 26.2239 23.7031 25.7079 22.5391C25.2891 21.5947 25.1535 20.4139 25.0455 19.3591C24.6687 19.7767 24.2919 20.2159 23.9175 20.6815C23.8215 20.8003 23.7807 20.8555 23.8779 21.0607C25.4223 24.4291 26.8995 27.3727 28.7199 29.1163C31.0803 31.3759 33.7719 31.7731 35.6055 31.1467C38.7015 30.0919 39.9891 25.8763 37.2339 23.7943C37.1667 23.7451 37.2051 23.7103 37.2819 23.6983C41.9823 22.8691 42.3627 20.2975 42.0507 18.5479C41.6895 16.5427 38.6067 13.8403 34.1547 14.1583C32.0991 14.3059 29.9547 15.1771 27.8307 16.7947C30.2259 18.1111 34.7607 16.8847 34.7439 17.3947Z" fill="#51C0D8"/>
</svg>
