<svg width="235" height="22" viewBox="0 0 235 22" fill="none" xmlns="http://www.w3.org/2000/svg">
<g clip-path="url(#clip0)">
<g clip-path="url(#clip1)">
<path d="M15.1667 16.5003H12.3314L14.1048 5.53516H16.9399L15.1667 16.5003Z" fill="#00579F"/>
<path d="M25.4447 5.80326C24.8854 5.58139 23.9985 5.33643 22.9017 5.33643C20.1018 5.33643 18.1301 6.82948 18.118 8.96409C18.0948 10.539 19.5297 11.4137 20.6029 11.9389C21.6998 12.4755 22.0727 12.8257 22.0727 13.304C22.0615 14.0386 21.1863 14.3772 20.37 14.3772C19.238 14.3772 18.6315 14.2026 17.7098 13.7939L17.3364 13.6187L16.9397 16.0802C17.6047 16.3831 18.8298 16.652 20.1018 16.6638C23.0767 16.6638 25.0135 15.1938 25.0365 12.919C25.0478 11.6708 24.2901 10.7144 22.6566 9.93279C21.6649 9.43107 21.0576 9.09277 21.0576 8.57943C21.0692 8.11276 21.5713 7.63476 22.6907 7.63476C23.6124 7.61135 24.2896 7.83291 24.8027 8.05461L25.0591 8.17105L25.4447 5.80326Z" fill="#00579F"/>
<path d="M29.2129 12.6158C29.4464 11.9858 30.3448 9.54779 30.3448 9.54779C30.333 9.5712 30.5778 8.90623 30.7178 8.498L30.916 9.44282C30.916 9.44282 31.4529 12.0675 31.5695 12.6158C31.1264 12.6158 29.7729 12.6158 29.2129 12.6158ZM32.7126 5.53516H30.5195C29.8433 5.53516 29.3294 5.7333 29.0377 6.44494L24.8263 16.5002H27.8012C27.8012 16.5002 28.291 15.1468 28.3963 14.8553C28.7226 14.8553 31.6166 14.8553 32.0365 14.8553C32.1179 15.2403 32.3748 16.5002 32.3748 16.5002H34.9999L32.7126 5.53516Z" fill="#00579F"/>
<path d="M9.96323 5.53516L7.18659 13.0123L6.88317 11.4959C6.36983 9.74609 4.75988 7.84497 2.96326 6.89968L5.50656 16.4887H8.50475L12.9613 5.53516H9.96323Z" fill="#00579F"/>
<path d="M4.6083 5.53516H0.0466673L0 5.75671C3.55836 6.66665 5.91499 8.86002 6.88322 11.4963L5.89158 6.45688C5.72832 5.75656 5.22661 5.55826 4.6083 5.53516Z" fill="#FAA61A"/>
</g>
<path d="M72.3976 2.88135H62.6052V18.7153H72.3976V2.88135Z" fill="#FF5F00"/>
<path d="M63.6138 10.7998C63.6126 9.27514 63.9617 7.77017 64.6347 6.39881C65.3078 5.02744 66.2871 3.8256 67.4985 2.88424C65.9981 1.71683 64.1961 0.990884 62.2986 0.789376C60.4011 0.587868 58.4846 0.918927 56.7682 1.74472C55.0518 2.57051 53.6046 3.85771 52.5922 5.45921C51.5798 7.06071 51.0428 8.9119 51.0428 10.8012C51.0428 12.6905 51.5798 14.5417 52.5922 16.1432C53.6046 17.7447 55.0518 19.0319 56.7682 19.8577C58.4846 20.6835 60.4011 21.0145 62.2986 20.813C64.1961 20.6115 65.9981 19.8856 67.4985 18.7182C66.2867 17.7765 65.3072 16.5742 64.6341 15.2023C63.9611 13.8305 63.6122 12.3249 63.6138 10.7998Z" fill="#EB001B"/>
<path d="M82.9839 17.04V16.7156H83.1251V16.6484H82.7889V16.7156H82.9217V17.04H82.9839ZM83.6365 17.04V16.6484H83.5348L83.4162 16.9281L83.2975 16.6484H83.1958V17.04H83.2692V16.7435L83.3794 16.9981H83.4557L83.5659 16.7435V17.04H83.6365Z" fill="#F79E1B"/>
<path d="M83.9559 10.7999C83.9558 12.6893 83.4188 14.5406 82.4062 16.1422C81.3935 17.7437 79.9462 19.0309 78.2295 19.8566C76.5129 20.6822 74.5962 21.0131 72.6986 20.8113C70.801 20.6095 68.999 19.8832 67.4987 18.7154C68.7096 17.7732 69.6887 16.571 70.3619 15.1996C71.0351 13.8282 71.3849 12.3233 71.3849 10.7985C71.3849 9.27365 71.0351 7.76875 70.3619 6.39731C69.6887 5.02586 68.7096 3.82369 67.4987 2.8815C68.999 1.71372 70.801 0.987424 72.6986 0.785627C74.5962 0.583829 76.5129 0.914676 78.2295 1.74035C79.9462 2.56602 81.3935 3.8532 82.4062 5.45476C83.4188 7.05631 83.9558 8.90762 83.9559 10.7971V10.7999Z" fill="#F79E1B"/>
<path fill-rule="evenodd" clip-rule="evenodd" d="M105.561 6.88888C105.836 6.88724 106.654 6.81359 107 7.98266C107.233 8.77016 107.605 10.0601 108.115 11.8525H108.323C108.87 9.96284 109.246 8.67288 109.45 7.98266C109.8 6.80141 110.675 6.88891 111.025 6.88891L113.725 6.88891V15.2889H110.973V10.3386H110.789L109.254 15.2889H107.184L105.649 10.335H105.465V15.2889H102.713V6.88891L105.561 6.88888ZM117.678 6.88891V11.8428H117.897L119.763 7.76926C120.126 6.95861 120.898 6.88891 120.898 6.88891H123.561V15.2889H120.751V10.335H120.532L118.702 14.4086C118.34 15.2155 117.531 15.2889 117.531 15.2889H114.868V6.88891H117.678ZM133.273 10.8806C132.881 11.9913 131.65 12.7867 130.287 12.7867H127.341V15.2889H124.669V10.8806H133.273Z" fill="#0F754E"/>
<path fill-rule="evenodd" clip-rule="evenodd" d="M130.416 6.88892H124.529C124.669 8.75904 126.279 10.36 127.947 10.36H133.458C133.777 8.8057 132.682 6.88892 130.416 6.88892Z" fill="url(#paint0_linear)"/>
<g clip-path="url(#clip2)">
<path d="M156.398 5.66797C155.988 6.15332 155.332 6.53613 154.676 6.48145C154.594 5.8252 154.915 5.12793 155.291 4.69727C155.701 4.19824 156.419 3.84277 157 3.81543C157.068 4.49902 156.802 5.16895 156.398 5.66797ZM156.993 6.61133C156.043 6.55664 155.23 7.15137 154.778 7.15137C154.32 7.15137 153.63 6.63867 152.878 6.65234C151.9 6.66602 150.991 7.21973 150.492 8.10156C149.467 9.86523 150.226 12.4766 151.217 13.9121C151.702 14.623 152.283 15.4023 153.049 15.375C153.773 15.3477 154.061 14.9033 154.936 14.9033C155.817 14.9033 156.07 15.375 156.836 15.3613C157.629 15.3477 158.128 14.6504 158.613 13.9395C159.167 13.1328 159.393 12.3467 159.406 12.3057C159.393 12.292 157.875 11.7109 157.861 9.96094C157.848 8.49805 159.058 7.80078 159.112 7.75977C158.429 6.74805 157.362 6.63867 156.993 6.61133ZM162.482 4.62891V15.2861H164.137V11.6426H166.427C168.519 11.6426 169.988 10.207 169.988 8.12891C169.988 6.05078 168.546 4.62891 166.481 4.62891H162.482ZM164.137 6.02344H166.044C167.48 6.02344 168.3 6.78906 168.3 8.13574C168.3 9.48242 167.48 10.2549 166.037 10.2549H164.137V6.02344ZM173.01 15.3682C174.049 15.3682 175.013 14.8418 175.45 14.0078H175.484V15.2861H177.016V9.98145C177.016 8.44336 175.785 7.45215 173.892 7.45215C172.135 7.45215 170.836 8.45703 170.788 9.83789H172.278C172.401 9.18164 173.01 8.75098 173.844 8.75098C174.855 8.75098 175.423 9.22266 175.423 10.0908V10.6787L173.358 10.8018C171.438 10.918 170.398 11.7041 170.398 13.0713C170.398 14.4521 171.472 15.3682 173.01 15.3682ZM173.454 14.1035C172.572 14.1035 172.012 13.6797 172.012 13.0303C172.012 12.3604 172.552 11.9707 173.584 11.9092L175.423 11.793V12.3945C175.423 13.3926 174.575 14.1035 173.454 14.1035ZM179.06 18.1846C180.673 18.1846 181.432 17.5693 182.095 15.7031L185 7.55469H183.318L181.37 13.8506H181.336L179.388 7.55469H177.658L180.461 15.3135L180.311 15.7852C180.058 16.585 179.647 16.8926 178.916 16.8926C178.786 16.8926 178.533 16.8789 178.431 16.8652V18.1436C178.526 18.1709 178.937 18.1846 179.06 18.1846Z" fill="black"/>
</g>
<g clip-path="url(#clip3)">
<path d="M216.554 10.8406V14.9148H215.261V4.85322H218.689C219.099 4.84467 219.505 4.91724 219.886 5.06674C220.267 5.21624 220.615 5.43971 220.909 5.72426C221.206 5.99153 221.443 6.31931 221.603 6.68557C221.763 7.05183 221.842 7.44808 221.836 7.84769C221.845 8.24944 221.766 8.64827 221.606 9.01686C221.446 9.38546 221.208 9.71508 220.909 9.98316C220.31 10.5548 219.57 10.8403 218.689 10.8398H216.554V10.8406ZM216.554 6.09195V9.60423H218.721C218.959 9.61127 219.196 9.56864 219.416 9.47907C219.636 9.38949 219.835 9.25493 220 9.08401C220.165 8.9242 220.295 8.73306 220.385 8.52187C220.474 8.31069 220.52 8.08377 220.52 7.85451C220.52 7.62526 220.474 7.39833 220.385 7.18715C220.295 6.97597 220.165 6.78482 220 6.62501C219.837 6.45049 219.639 6.31264 219.418 6.2206C219.198 6.12856 218.96 6.08443 218.721 6.09114H216.554V6.09195Z" fill="#5F6368"/>
<path d="M224.815 7.80615C225.77 7.80615 226.524 8.06145 227.077 8.57203C227.63 9.08262 227.906 9.78266 227.906 10.6722V14.915H226.669V13.9597H226.613C226.078 14.7464 225.366 15.1398 224.478 15.1398C223.719 15.1398 223.085 14.915 222.574 14.4654C222.329 14.2591 222.133 14.0007 222.001 13.709C221.868 13.4174 221.802 13.0998 221.808 12.7795C221.808 12.0672 222.077 11.5007 222.616 11.08C223.154 10.6593 223.873 10.4485 224.772 10.4474C225.54 10.4474 226.172 10.5879 226.668 10.8689V10.5734C226.67 10.3551 226.623 10.1391 226.53 9.94127C226.438 9.7434 226.303 9.56856 226.135 9.42943C225.793 9.12105 225.347 8.95279 224.887 8.95818C224.165 8.95818 223.594 9.26271 223.173 9.87178L222.035 9.15487C222.661 8.25572 223.588 7.80615 224.815 7.80615ZM223.142 12.8076C223.142 12.9721 223.18 13.1345 223.255 13.2811C223.329 13.4277 223.438 13.5544 223.571 13.6506C223.857 13.8755 224.212 13.9946 224.575 13.9878C225.121 13.9869 225.644 13.7698 226.029 13.3841C226.458 12.9811 226.672 12.5082 226.672 11.9655C226.269 11.6444 225.707 11.4838 224.986 11.4838C224.461 11.4838 224.023 11.6104 223.672 11.8635C223.318 12.1204 223.142 12.4327 223.142 12.8076Z" fill="#5F6368"/>
<path d="M235.002 8.03076L230.687 17.9494H229.352L230.954 14.4789L228.116 8.03076H229.521L231.572 12.9761H231.6L233.595 8.03076H235.002Z" fill="#5F6368"/>
<path d="M211.331 9.96242C211.331 9.56852 211.298 9.17531 211.231 8.78711H205.78V11.0133H208.902C208.839 11.3688 208.703 11.7078 208.505 12.0097C208.306 12.3116 208.049 12.5701 207.748 12.7698V14.2149H209.611C210.702 13.209 211.331 11.7214 211.331 9.96242Z" fill="#4285F4"/>
<path d="M205.78 15.611C207.34 15.611 208.653 15.0988 209.611 14.2157L207.748 12.7706C207.229 13.1223 206.561 13.323 205.78 13.323C204.273 13.323 202.993 12.3066 202.535 10.937H200.616V12.4262C201.097 13.3836 201.835 14.1883 202.746 14.7507C203.658 15.3131 204.709 15.6109 205.78 15.611Z" fill="#34A853"/>
<path d="M202.535 10.9371C202.293 10.2194 202.293 9.44223 202.535 8.72456V7.23535H200.616C200.211 8.04069 200 8.92952 200 9.83083C200 10.7321 200.211 11.621 200.616 12.4263L202.535 10.9371Z" fill="#FBBC04"/>
<path d="M205.78 6.33843C206.604 6.32496 207.401 6.63641 207.998 7.20546L209.647 5.55569C208.601 4.57312 207.215 4.03367 205.78 4.05043C204.709 4.05048 203.658 4.34831 202.746 4.91069C201.835 5.47306 201.097 6.27783 200.616 7.23517L202.535 8.72437C202.993 7.35478 204.273 6.33843 205.78 6.33843Z" fill="#EA4335"/>
</g>
</g>
<defs>
<linearGradient id="paint0_linear" x1="133.513" y1="9.07237" x2="124.529" y2="9.07237" gradientUnits="userSpaceOnUse">
<stop stop-color="#1F5CD7"/>
<stop offset="1" stop-color="#02AEFF"/>
</linearGradient>
<clipPath id="clip0">
<rect width="235" height="21" fill="white" transform="translate(0 0.5)"/>
</clipPath>
<clipPath id="clip1">
<rect width="35" height="11.3273" fill="white" transform="translate(0 5.33643)"/>
</clipPath>
<clipPath id="clip2">
<rect width="35" height="14.3691" fill="white" transform="translate(150 3.81543)"/>
</clipPath>
<clipPath id="clip3">
<rect width="35" height="13.899" fill="white" transform="translate(200 4.05054)"/>
</clipPath>
</defs>
</svg>
