<svg width="540" height="241" viewBox="0 0 540 241" fill="none" xmlns="http://www.w3.org/2000/svg">
<path d="M5.27298 5.87041L9.89154 0.730321C10.0416 0.558984 10.0333 0.284846 9.8832 0.122077C9.73314 -0.0406923 9.49971 -0.0406923 9.34965 0.122077L4.99787 4.96232L0.654434 0.130644C0.504372 -0.0406923 0.262607 -0.0406923 0.112546 0.130644C-0.0375153 0.30198 -0.0375153 0.567551 0.112546 0.738887L4.7311 5.87897C4.88116 6.04174 5.12292 6.04174 5.27298 5.87041Z" fill="white"/>
<path d="M5.27298 16.8704L9.89154 11.7303C10.0416 11.559 10.0333 11.2848 9.8832 11.1221C9.73314 10.9593 9.49971 10.9593 9.34965 11.1221L4.99787 15.9623L0.654434 11.1306C0.504372 10.9593 0.262607 10.9593 0.112546 11.1306C-0.0375153 11.302 -0.0375153 11.5676 0.112546 11.7389L4.7311 16.879C4.88116 17.0417 5.12292 17.0417 5.27298 16.8704Z" fill="#424E5A"/>
<path d="M5.27298 22.1296L9.89154 27.2697C10.0416 27.441 10.0333 27.7152 9.8832 27.8779C9.73314 28.0407 9.49971 28.0407 9.34965 27.8779L4.99787 23.0377L0.654434 27.8694C0.504372 28.0407 0.262607 28.0407 0.112546 27.8694C-0.0375153 27.698 -0.0375153 27.4324 0.112546 27.2611L4.7311 22.121C4.88116 21.9583 5.12292 21.9583 5.27298 22.1296Z" fill="#424E5A"/>
<path d="M15.6075 25.518L40.4675 0.582758C41.2875 -0.217088 42.5975 -0.187094 43.3975 0.632749C44.1775 1.44259 44.1775 2.71235 43.3975 3.52219L19.9975 26.9877L43.3975 50.4532C44.2075 51.263 44.2075 52.5828 43.3975 53.3926C42.5875 54.2025 41.2775 54.2025 40.4675 53.3926L15.6075 28.4574C14.7975 27.6376 14.7975 26.3278 15.6075 25.518Z" fill="#B8C4D4"/>
<path d="M77.3925 25.518L52.5325 0.582758C51.7125 -0.217088 50.4025 -0.187094 49.6025 0.632749C48.8225 1.44259 48.8225 2.71235 49.6025 3.52219L73.0025 26.9877L49.6025 50.4532C48.7925 51.263 48.7925 52.5828 49.6025 53.3926C50.4125 54.2025 51.7225 54.2025 52.5325 53.3926L77.3925 28.4574C78.2025 27.6376 78.2025 26.3278 77.3925 25.518Z" fill="#B8C4D4"/>
<path d="M89.325 6.8525L94.865 0.8525C95.045 0.6525 95.035 0.3325 94.855 0.1425C94.675 -0.0475 94.395 -0.0475 94.215 0.1425L88.995 5.7925L83.785 0.1525C83.605 -0.0475 83.315 -0.0475 83.135 0.1525C82.955 0.3525 82.955 0.6625 83.135 0.8625L88.675 6.8625C88.855 7.0525 89.145 7.0525 89.325 6.8525Z" fill="#00549D"/>
<path d="M100.612 25.518L125.472 0.582758C126.292 -0.217088 127.602 -0.187094 128.402 0.632749C129.182 1.44259 129.182 2.71235 128.402 3.52219L105.002 26.9877L128.402 50.4532C129.212 51.263 129.212 52.5828 128.402 53.3926C127.592 54.2025 126.282 54.2025 125.472 53.3926L100.612 28.4574C99.8024 27.6376 99.8024 26.3278 100.612 25.518Z" fill="#3276CF"/>
<path d="M162.392 25.518L137.533 0.582758C136.713 -0.217088 135.403 -0.187094 134.603 0.632749C133.823 1.44259 133.823 2.71235 134.603 3.52219L158.003 26.9877L134.603 50.4532C133.793 51.263 133.793 52.5828 134.603 53.3926C135.413 54.2025 136.723 54.2025 137.533 53.3926L162.392 28.4574C163.202 27.6376 163.202 26.3278 162.392 25.518Z" fill="#3276CF"/>
<path d="M169.392 11.424V9.248H168V8.208H169.392V6.784H168V5.568H169.392V0H172.4C173.797 0 174.832 0.282667 175.504 0.848001C176.187 1.41333 176.528 2.23467 176.528 3.312C176.528 4.4 176.16 5.25333 175.424 5.872C174.688 6.48 173.605 6.784 172.176 6.784H170.832V8.208H173.472V9.248H170.832V11.424H169.392ZM170.832 5.568H171.968C172.939 5.568 173.691 5.408 174.224 5.088C174.768 4.768 175.04 4.192 175.04 3.36C175.04 2.63467 174.816 2.096 174.368 1.744C173.92 1.392 173.221 1.216 172.272 1.216H170.832V5.568Z" fill="#424E5A"/>
<path d="M169.392 28.424V26.248H168V25.208H169.392V23.784H168V22.568H169.392V17H172.4C173.797 17 174.832 17.2827 175.504 17.848C176.187 18.4133 176.528 19.2347 176.528 20.312C176.528 21.4 176.16 22.2533 175.424 22.872C174.688 23.48 173.605 23.784 172.176 23.784H170.832V25.208H173.472V26.248H170.832V28.424H169.392ZM170.832 22.568H171.968C172.939 22.568 173.691 22.408 174.224 22.088C174.768 21.768 175.04 21.192 175.04 20.36C175.04 19.6347 174.816 19.096 174.368 18.744C173.92 18.392 173.221 18.216 172.272 18.216H170.832V22.568Z" fill="#3276CF"/>
<path d="M169.392 45.424V43.248H168V42.208H169.392V40.784H168V39.568H169.392V34H172.4C173.797 34 174.832 34.2827 175.504 34.848C176.187 35.4133 176.528 36.2347 176.528 37.312C176.528 38.4 176.16 39.2533 175.424 39.872C174.688 40.48 173.605 40.784 172.176 40.784H170.832V42.208H173.472V43.248H170.832V45.424H169.392ZM170.832 39.568H171.968C172.939 39.568 173.691 39.408 174.224 39.088C174.768 38.768 175.04 38.192 175.04 37.36C175.04 36.6347 174.816 36.096 174.368 35.744C173.92 35.392 173.221 35.216 172.272 35.216H170.832V39.568Z" fill="white"/>
<path d="M186.714 0C185.85 0 185.143 0.703125 185.143 1.5625V23.4375C185.143 24.2969 185.85 25 186.714 25H202.429C203.293 25 204 24.2969 204 23.4375V6.25L197.714 0H186.714Z" fill="#E2E5E7"/>
<path d="M199.286 6.25H204L197.714 0V4.6875C197.714 5.54688 198.421 6.25 199.286 6.25Z" fill="#B0B7BD"/>
<path d="M204 10.9375L199.286 6.25H204V10.9375Z" fill="#CAD1D8"/>
<path d="M200.857 20.3125C200.857 20.7422 200.504 21.0938 200.071 21.0938H182.786C182.354 21.0938 182 20.7422 182 20.3125V12.5C182 12.0703 182.354 11.7188 182.786 11.7188H200.071C200.504 11.7188 200.857 12.0703 200.857 12.5V20.3125Z" fill="#F15642"/>
<path d="M185.425 14.8021C185.425 14.5958 185.588 14.3708 185.851 14.3708H187.303C188.12 14.3708 188.855 14.9146 188.855 15.9568C188.855 16.9443 188.12 17.4943 187.303 17.4943H186.254V18.3193C186.254 18.5943 186.078 18.7498 185.851 18.7498C185.644 18.7498 185.425 18.5943 185.425 18.3193V14.8021ZM186.254 15.1576V16.7138H187.303C187.724 16.7138 188.057 16.3443 188.057 15.9568C188.057 15.5201 187.724 15.1576 187.303 15.1576H186.254Z" fill="white"/>
<path d="M190.086 18.7501C189.878 18.7501 189.652 18.6376 189.652 18.3634V14.815C189.652 14.5908 189.878 14.4275 190.086 14.4275H191.524C194.395 14.4275 194.332 18.7501 191.581 18.7501H190.086ZM190.482 15.19V17.9884H191.524C193.221 17.9884 193.296 15.19 191.524 15.19H190.482Z" fill="white"/>
<path d="M195.351 15.24V16.233H196.953C197.179 16.233 197.405 16.458 197.405 16.676C197.405 16.8822 197.179 17.051 196.953 17.051H195.351V18.3627C195.351 18.5814 195.194 18.7494 194.974 18.7494C194.698 18.7494 194.529 18.5814 194.529 18.3627V14.8143C194.529 14.59 194.699 14.4268 194.974 14.4268H197.18C197.456 14.4268 197.62 14.59 197.62 14.8143C197.62 15.0143 197.456 15.2393 197.18 15.2393H195.351V15.24Z" fill="white"/>
<path d="M200.072 21.0938H185.143V21.875H200.072C200.504 21.875 200.857 21.5234 200.857 21.0938V20.3125C200.857 20.7422 200.504 21.0938 200.072 21.0938Z" fill="#CAD1D8"/>
<path d="M186.714 30C185.85 30 185.143 30.7031 185.143 31.5625V53.4375C185.143 54.2969 185.85 55 186.714 55H202.429C203.293 55 204 54.2969 204 53.4375V36.25L197.714 30H186.714Z" fill="#E2E5E7"/>
<path d="M199.286 36.25H204L197.714 30V34.6875C197.714 35.5469 198.421 36.25 199.286 36.25Z" fill="#B0B7BD"/>
<path d="M204 40.9375L199.286 36.25H204V40.9375Z" fill="#CAD1D8"/>
<g clip-path="url(#clip0)">
<path d="M58.8002 116.4H11.2002V85.894C11.2002 84.571 12.2712 83.5 13.5942 83.5H56.3992C57.7292 83.5 58.8002 84.571 58.8002 85.894V116.4Z" fill="white"/>
<path fill-rule="evenodd" clip-rule="evenodd" d="M10.5 85.894C10.5 84.1844 11.8844 82.8 13.594 82.8H56.399C58.1143 82.8 59.5 84.1831 59.5 85.894V117.1H10.5V85.894Z" fill="#24447C"/>
<path d="M63.0002 119.2H7.0002C5.4532 119.2 4.2002 117.947 4.2002 116.4H65.8002C65.8002 117.947 64.5472 119.2 63.0002 119.2Z" fill="white"/>
<path fill-rule="evenodd" clip-rule="evenodd" d="M3.5 115.7H66.5V116.4C66.5 118.334 64.9336 119.9 63 119.9H7C5.0664 119.9 3.5 118.334 3.5 116.4V115.7Z" fill="#BBD7EF"/>
<path d="M53.9998 85.6H15.2998C14.1952 85.6 13.2998 86.4954 13.2998 87.6V111.95C13.2998 113.055 14.1952 113.95 15.2998 113.95H53.9998C55.1044 113.95 55.9998 113.055 55.9998 111.95V87.6C55.9998 86.4954 55.1044 85.6 53.9998 85.6Z" fill="#F3F7F8"/>
<path d="M51.1945 99.6C60.4729 99.6 67.9945 92.0784 67.9945 82.8C67.9945 73.5216 60.4729 66 51.1945 66C41.9161 66 34.3945 73.5216 34.3945 82.8C34.3945 92.0784 41.9161 99.6 51.1945 99.6Z" fill="#DD4754"/>
<path d="M45.6045 83.2495L50.1944 87.2689L57.4294 79.31" stroke="white" stroke-width="2" stroke-linecap="round"/>
</g>
<g clip-path="url(#clip1)">
<path d="M118.206 120.136H88.7821C88.5518 120.136 88.3237 120.091 88.1109 120.003C87.898 119.915 87.7046 119.786 87.5418 119.623C87.379 119.46 87.2499 119.267 87.1619 119.054C87.074 118.841 87.0289 118.613 87.0293 118.383V70.9912C87.0289 70.7609 87.074 70.5328 87.1619 70.32C87.2499 70.1072 87.379 69.9138 87.5418 69.7509C87.7046 69.5881 87.898 69.459 88.1109 69.3711C88.3237 69.2831 88.5518 69.238 88.7821 69.2384H118.145C118.375 69.238 118.603 69.2831 118.816 69.3711C119.029 69.459 119.222 69.5881 119.385 69.7509C119.548 69.9138 119.677 70.1072 119.765 70.32C119.853 70.5328 119.898 70.7609 119.898 70.9912V118.382C119.91 118.611 119.876 118.839 119.796 119.054C119.716 119.268 119.593 119.464 119.435 119.628C119.276 119.793 119.085 119.923 118.873 120.01C118.662 120.098 118.435 120.14 118.206 120.136Z" fill="#24447C"/>
<path d="M115.953 112.766H91.2251C90.8608 112.762 90.5124 112.616 90.2548 112.359C89.9972 112.101 89.851 111.753 89.8477 111.389V74.139C89.8509 73.7747 89.997 73.4262 90.2546 73.1686C90.5123 72.911 90.8607 72.7648 91.2251 72.7616H115.953C116.318 72.7648 116.666 72.911 116.924 73.1686C117.181 73.4262 117.328 73.7747 117.331 74.139V111.389C117.327 111.753 117.181 112.101 116.924 112.359C116.666 112.616 116.318 112.762 115.953 112.766Z" fill="#F3F7F8"/>
<path d="M103.431 118.811C104.745 118.811 105.81 117.746 105.81 116.432C105.81 115.118 104.745 114.053 103.431 114.053C102.117 114.053 101.052 115.118 101.052 116.432C101.052 117.746 102.117 118.811 103.431 118.811Z" fill="#D6E7FD"/>
<path d="M126.2 121.3C135.478 121.3 143 113.778 143 104.5C143 95.2216 135.478 87.7 126.2 87.7C116.922 87.7 109.4 95.2216 109.4 104.5C109.4 113.778 116.922 121.3 126.2 121.3Z" fill="#DD4754"/>
<path d="M121.3 104.454L125.324 107.979L131.669 101" stroke="white" stroke-width="2" stroke-linecap="round"/>
</g>
<path d="M195.871 118.662H166.641C166.412 118.663 166.186 118.618 165.974 118.53C165.763 118.443 165.571 118.315 165.409 118.153C165.247 117.991 165.119 117.799 165.032 117.588C164.944 117.376 164.9 117.15 164.9 116.921V69.8412C164.9 69.6125 164.944 69.3859 165.032 69.1744C165.119 68.963 165.247 68.7709 165.409 68.6091C165.571 68.4474 165.763 68.3191 165.974 68.2318C166.186 68.1444 166.412 68.0996 166.641 68.1H195.811C196.039 68.0996 196.266 68.1444 196.477 68.2318C196.689 68.3191 196.881 68.4474 197.043 68.6091C197.205 68.7709 197.333 68.963 197.42 69.1744C197.507 69.3859 197.552 69.6125 197.552 69.8412V116.92C197.565 117.147 197.53 117.374 197.451 117.587C197.372 117.8 197.25 117.995 197.092 118.158C196.934 118.322 196.744 118.451 196.534 118.538C196.324 118.624 196.099 118.667 195.871 118.662Z" fill="#BBD7EF"/>
<path d="M191.742 78.6H170.958C170.651 78.5998 170.359 78.5922 170.142 78.5786C169.925 78.5651 169.803 78.5468 169.8 78.5277V76.5723C169.802 76.5532 169.925 76.5349 170.142 76.5214C170.358 76.5078 170.651 76.5002 170.958 76.5H191.742C192.048 76.5002 192.341 76.5078 192.558 76.5214C192.774 76.5349 192.897 76.5532 192.9 76.5723V78.5277C192.897 78.5468 192.774 78.5651 192.558 78.5786C192.341 78.5922 192.048 78.5998 191.742 78.6Z" fill="white"/>
<path d="M189.747 82.8H170.852C170.574 82.7998 170.308 82.7922 170.111 82.7787C169.914 82.7651 169.802 82.7469 169.8 82.7277V80.7723C169.802 80.7532 169.914 80.7349 170.111 80.7214C170.308 80.7079 170.574 80.7002 170.852 80.7H189.747C190.026 80.7002 190.292 80.7079 190.489 80.7214C190.686 80.7349 190.797 80.7532 190.8 80.7723V82.7277C190.797 82.7469 190.686 82.7651 190.489 82.7787C190.292 82.7922 190.026 82.7998 189.747 82.8Z" fill="white"/>
<path d="M191.077 87H170.922C170.626 86.9998 170.342 86.9922 170.132 86.9786C169.922 86.9651 169.803 86.9468 169.8 86.9277V84.9723C169.802 84.9532 169.922 84.9349 170.132 84.9214C170.341 84.9078 170.626 84.9002 170.922 84.9H191.077C191.374 84.9002 191.658 84.9078 191.868 84.9214C192.078 84.9349 192.197 84.9532 192.2 84.9723V86.9277C192.197 86.9468 192.078 86.9651 191.868 86.9786C191.658 86.9922 191.374 86.9998 191.077 87Z" fill="white"/>
<path d="M177.779 111.5H170.221C170.109 111.5 170.003 111.492 169.924 111.479C169.846 111.465 169.801 111.447 169.8 111.428V109.472C169.801 109.453 169.845 109.435 169.924 109.421C170.003 109.408 170.109 109.4 170.221 109.4H177.779C177.89 109.4 177.997 109.408 178.075 109.421C178.154 109.435 178.199 109.453 178.2 109.472V111.428C178.199 111.447 178.154 111.465 178.075 111.479C177.997 111.492 177.89 111.5 177.779 111.5Z" fill="white"/>
<path d="M207.997 119.595C217.443 119.595 225.1 111.938 225.1 102.492C225.1 93.0467 217.443 85.3896 207.997 85.3896C198.552 85.3896 190.895 93.0467 190.895 102.492C190.895 111.938 198.552 119.595 207.997 119.595Z" fill="#DD4754"/>
<path d="M211.027 99.1228C208.285 99.1228 205.37 98.3336 205.37 96.8804C205.37 95.4194 208.285 94.6381 211.027 94.6381C213.769 94.6381 216.684 95.4272 216.684 96.8804C216.684 98.3415 213.769 99.1228 211.027 99.1228ZM211.027 95.3881C208.033 95.3881 206.118 96.271 206.118 96.8882C206.118 97.4977 208.025 98.3883 211.027 98.3883C214.021 98.3883 215.936 97.4977 215.936 96.8882C215.928 96.271 214.021 95.3881 211.027 95.3881Z" fill="white"/>
<path d="M205.74 99.3181C205.527 99.3181 205.362 99.154 205.362 98.9431V97.3492C205.362 97.1461 205.527 96.9742 205.74 96.9742C205.945 96.9742 206.118 97.1383 206.118 97.3492V98.9431C206.118 99.1462 205.953 99.3181 205.74 99.3181Z" fill="white"/>
<path d="M211.027 104.451C210.215 104.451 209.435 104.389 208.71 104.272C208.505 104.24 208.364 104.045 208.403 103.842C208.435 103.639 208.632 103.498 208.836 103.537C209.522 103.654 210.263 103.709 211.027 103.709C214.021 103.709 215.936 102.826 215.936 102.209V99.9587C215.936 99.7556 216.101 99.5837 216.314 99.5837C216.527 99.5837 216.692 99.7478 216.692 99.9587V102.209C216.684 103.662 213.769 104.451 211.027 104.451Z" fill="white"/>
<path d="M211.027 107.069C210.208 107.069 209.42 107.006 208.679 106.881C208.474 106.85 208.332 106.654 208.372 106.451C208.403 106.248 208.6 106.108 208.805 106.147C209.499 106.264 210.247 106.326 211.027 106.326C214.021 106.326 215.936 105.443 215.936 104.826V102.584C215.936 102.381 216.101 102.209 216.314 102.209C216.527 102.209 216.692 102.373 216.692 102.584V104.826C216.684 106.279 213.769 107.069 211.027 107.069Z" fill="white"/>
<path d="M203.479 104.357C200.737 104.357 197.821 103.568 197.821 102.115C197.821 100.654 200.737 99.8728 203.479 99.8728C206.221 99.8728 209.136 100.662 209.136 102.115C209.136 103.568 206.221 104.357 203.479 104.357ZM203.479 100.615C200.484 100.615 198.578 101.498 198.578 102.115C198.578 102.725 200.484 103.615 203.479 103.615C206.473 103.615 208.387 102.725 208.387 102.115C208.387 101.498 206.473 100.615 203.479 100.615Z" fill="white"/>
<path d="M203.479 106.975C200.737 106.975 197.821 106.186 197.821 104.732V102.49C197.821 102.287 197.987 102.115 198.199 102.115C198.404 102.115 198.578 102.279 198.578 102.49V104.732C198.578 105.342 200.484 106.233 203.479 106.233C206.473 106.233 208.387 105.35 208.387 104.732V102.49C208.387 102.287 208.553 102.115 208.766 102.115C208.97 102.115 209.144 102.279 209.144 102.49V104.732C209.136 106.186 206.221 106.975 203.479 106.975Z" fill="white"/>
<path d="M211.027 101.748C208.285 101.748 205.37 100.959 205.37 99.5056V97.2633C205.37 97.0601 205.535 96.8882 205.748 96.8882C205.961 96.8882 206.126 97.0601 206.126 97.2633V99.5056C206.126 100.115 208.033 101.006 211.035 101.006C214.029 101.006 215.944 100.123 215.944 99.5056V97.2633C215.944 97.0601 216.109 96.8882 216.322 96.8882C216.527 96.8882 216.7 97.0601 216.7 97.2633V99.5056C216.684 100.959 213.769 101.748 211.027 101.748Z" fill="white"/>
<path d="M203.479 109.592C200.737 109.592 197.821 108.803 197.821 107.35V105.108C197.821 104.904 197.987 104.732 198.199 104.732C198.404 104.732 198.578 104.904 198.578 105.108V107.35C198.578 107.959 200.484 108.85 203.479 108.85C206.473 108.85 208.387 107.967 208.387 107.35V105.108C208.387 104.904 208.553 104.732 208.766 104.732C208.97 104.732 209.144 104.904 209.144 105.108V107.35C209.136 108.811 206.221 109.592 203.479 109.592Z" fill="white"/>
<ellipse cx="210.909" cy="96.8769" rx="5.18151" ry="1.82877" fill="white"/>
<ellipse cx="203.594" cy="102.363" rx="5.18151" ry="1.82877" fill="white"/>
<path d="M299.442 101.321H252.471V122.147H299.442V101.321Z" fill="#BBD7EF"/>
<path d="M299.388 101.379H252.529V122.092H299.385V101.379H299.388ZM252.471 101.263H299.442H299.5V101.321V122.147V122.204H299.442H252.471H252.417V122.147V101.321V101.263H252.471Z" fill="#F3F7F8"/>
<path d="M298.987 100.866H252.016V121.692H298.987V100.866Z" fill="#BBD7EF"/>
<path d="M298.93 100.924H252.074V121.634H298.93V100.924ZM252.016 100.809H298.987H299.045V100.866V121.692V121.75H298.987H252.016H251.958V121.692V100.866V100.809H252.016Z" fill="#F3F7F8"/>
<path d="M298.533 100.412H251.562V121.237H298.533V100.412Z" fill="#EEEEEE"/>
<path d="M298.475 100.469H251.619V121.18H298.475V100.469ZM251.562 100.354H298.533H298.59V100.412V121.237V121.295H298.533H251.562H251.504V121.237V100.412V100.354H251.562Z" fill="#F3F7F8"/>
<path d="M298.893 100.222H251.921V121.048H298.893V100.222Z" fill="#BBD7EF"/>
<path d="M298.838 100.28H251.979V120.993H298.835V100.28H298.838ZM251.922 100.164H298.893H298.951V100.222V121.048V121.105H298.893H251.922H251.867V121.048V100.222V100.164H251.922Z" fill="#F3F7F8"/>
<path d="M298.438 99.7673H251.467V120.593H298.438V99.7673Z" fill="#BBD7EF"/>
<path d="M298.38 99.8249H251.524V120.535H298.38V99.8249ZM251.467 99.7097H298.438H298.496V99.7673V120.593V120.651H298.438H251.467H251.409V120.593V99.7673V99.7097H251.467Z" fill="#F3F7F8"/>
<path d="M297.983 99.3126H251.012V120.138H297.983V99.3126Z" fill="#EEEEEE"/>
<path d="M297.926 99.3702H251.07V120.081H297.926V99.3702ZM251.012 99.255H297.983H298.041V99.3126V120.138V120.196H297.983H251.012H250.955V120.138V99.3126V99.255H251.012Z" fill="#F3F7F8"/>
<path d="M297.471 98.9H250.5V119.726H297.471V98.9Z" fill="#F5F5F5"/>
<path fill-rule="evenodd" clip-rule="evenodd" d="M255.199 100.213C256.405 100.213 257.381 101.189 257.381 102.396C257.381 103.602 256.405 104.578 255.199 104.578C253.992 104.578 253.016 103.602 253.016 102.396C253.016 101.189 253.992 100.213 255.199 100.213Z" fill="#CA6F70"/>
<path d="M286.125 98.8579H259.327V119.683H286.125V98.8579Z" fill="#F3BDAF"/>
<path d="M268.415 98.8579H259.327V119.683H268.415V98.8579Z" fill="#FE806D"/>
<path d="M286.871 113.336H275.53V115.946H286.871V113.336Z" fill="#CA6F70"/>
<path fill-rule="evenodd" clip-rule="evenodd" d="M269.219 114.276C271.986 113.875 274.405 114.955 276.77 114.276C276.77 115.146 276.77 116.016 276.77 116.886C273.975 117.361 271.959 115.946 269.219 116.886C269.219 116.016 269.219 115.146 269.219 114.276Z" fill="#CA6F70"/>
<path fill-rule="evenodd" clip-rule="evenodd" d="M263.435 115.576C266.203 115.176 268.622 116.255 270.986 115.576C270.986 116.446 270.986 117.316 270.986 118.186C268.191 118.662 266.175 117.246 263.435 118.186C263.435 117.316 263.435 116.446 263.435 115.576Z" fill="#CA6F70"/>
<path fill-rule="evenodd" clip-rule="evenodd" d="M270.719 112.123C270.713 112.09 270.659 112.129 270.343 111.893C269.846 111.523 270.037 109.656 270.077 109.092C270.128 108.392 270.643 107.843 269.992 106.994C269.592 106.476 269.464 105.591 269.631 104.887C269.892 104.827 270.186 104.605 270.704 104.66C271.219 104.712 270.895 103.511 270.65 103.308C270.695 103.029 270.377 102.699 270.737 102.335C271.438 101.635 272.459 102.02 272.459 103.308C272.459 103.705 272.52 103.863 272.365 104.166C272.229 104.43 272.311 104.708 272.699 104.708C273.369 104.708 273.581 104.645 273.754 105.075C274.026 105.754 274.275 106.624 274.172 107.134C274.048 107.74 273.341 107.703 273.341 107.719C273.341 108.416 273.59 109.174 273.945 109.765C275.078 111.647 274.287 116.082 274.681 116.152C274.69 116.155 276.042 116.782 275.318 117.14C275.112 117.243 273.532 117.043 273.532 116.458C273.532 115.749 273.508 114.203 273.366 113.545C273.299 113.245 273.241 111.82 272.908 111.744C272.887 111.593 272.083 111.802 272.089 112.093C272.126 113.36 272.235 115.027 272.238 116.234C272.371 116.376 272.444 116.582 272.532 116.707C272.69 116.928 272.617 117.386 272.429 117.38C270.531 117.304 270.91 117.307 270.819 116.164C270.707 114.821 270.834 112.899 270.719 112.123Z" fill="#FE806D"/>
<path fill-rule="evenodd" clip-rule="evenodd" d="M260.713 100.601H265.609C266.594 100.601 267.4 101.407 267.4 102.392C267.4 103.378 266.594 104.184 265.609 104.184H260.713C259.728 104.184 258.921 103.378 258.921 102.392C258.918 101.41 259.725 100.601 260.713 100.601Z" fill="#CA6F70"/>
<path fill-rule="evenodd" clip-rule="evenodd" d="M278.728 116.673H296.277L295.625 118.556H278.077L278.728 116.673Z" fill="#CA6F70"/>
<path fill-rule="evenodd" clip-rule="evenodd" d="M282.312 101.989H286.125V105.873C286.125 106.248 285.819 106.555 285.443 106.555H282.994C282.618 106.555 282.312 106.248 282.312 105.873V101.989Z" fill="#CA6F70"/>
<path d="M297.471 98.9155H250.615V119.626H297.471V98.9155ZM250.558 98.8003H297.529H297.586V98.8579V119.683V119.741H297.529H250.558H250.5V119.683V98.8579V98.8003H250.558Z" fill="#F3F7F8"/>
<path fill-rule="evenodd" clip-rule="evenodd" d="M252.983 115.485H256.96C257.703 115.485 258.312 116.094 258.312 116.837C258.312 117.58 257.703 118.189 256.96 118.189H252.983C252.24 118.189 251.631 117.58 251.631 116.837C251.631 116.094 252.24 115.485 252.983 115.485Z" fill="#BBD7EF"/>
<path fill-rule="evenodd" clip-rule="evenodd" d="M289.929 112.135H294.37C295.419 112.135 296.274 112.993 296.274 114.039C296.274 115.088 295.416 115.943 294.37 115.943H289.929C288.88 115.943 288.025 115.085 288.025 114.039C288.025 112.993 288.883 112.135 289.929 112.135Z" fill="#BBD7EF"/>
<path fill-rule="evenodd" clip-rule="evenodd" d="M279.131 99.7673H295.689L295.182 101.225H278.625L279.131 99.7673Z" fill="#CA6F70"/>
<path fill-rule="evenodd" clip-rule="evenodd" d="M287.547 101.989H295.601C295.974 101.989 296.277 102.292 296.277 102.665C296.277 103.038 295.974 103.341 295.601 103.341H287.547C287.174 103.341 286.871 103.038 286.871 102.665C286.871 102.292 287.174 101.989 287.547 101.989Z" fill="#BBD7EF"/>
<path d="M251.125 87.5969C249.835 85.3732 250.609 82.5142 252.833 81.2436L273.839 69.1127C274.553 68.6958 275.447 68.6958 276.161 69.1127L297.167 81.2436C299.391 82.5341 300.165 85.3732 298.875 87.5969C297.584 89.8205 294.745 90.575 292.521 89.3043L275.01 79.1986L257.498 89.3043C255.255 90.575 252.396 89.8205 251.125 87.5969Z" fill="#DD4754"/>
<path d="M340.886 93.2618H330.121C328.911 93.2618 327.876 92.2599 327.876 91.0295V69.1287C327.876 67.8983 328.876 66.8788 330.121 66.8788H379.896C381.124 66.8788 382.141 67.9159 382.141 69.1287V91.0295C382.141 92.2423 381.106 93.2618 379.896 93.2618H369.114" fill="#24447C"/>
<path d="M341.211 91.2H333.168C332.107 91.2 331.2 90.4025 331.2 89.4232V71.9908C331.2 71.0115 332.076 70.2 333.168 70.2H376.831C377.908 70.2 378.8 71.0255 378.8 71.9908V89.4232C378.8 90.3886 377.892 91.2 376.831 91.2H369.473" fill="#F3F7F8"/>
<path d="M369.096 84.2097H373.409C374.356 84.2097 375.145 83.4363 375.145 82.4696V78.7784C375.145 77.8293 374.356 77.0383 373.409 77.0383H336.573C335.626 77.0383 334.837 77.8293 334.837 78.7784V82.4696C334.837 83.4187 335.608 84.2097 336.573 84.2097H340.886" fill="#24447C"/>
<path d="M365.107 86.18C365.887 86.1799 366.521 86.8077 366.521 87.5876L366.58 122.074C366.581 122.853 365.947 123.491 365.173 123.488L345.228 123.519C344.449 123.519 343.814 122.891 343.814 122.111L343.755 87.6252C343.755 86.8453 344.392 86.2139 345.162 86.211L365.107 86.18Z" fill="#DD4754"/>
<path d="M349.914 89.3304C349.938 101.965 352.497 113.712 356.879 123.502L365.173 123.488C365.947 123.491 366.581 122.853 366.58 122.074L366.521 87.5876C366.521 86.8077 365.887 86.1799 365.107 86.18L349.967 86.206C349.932 87.2438 349.912 88.2812 349.914 89.3304Z" fill="#24447C"/>
<path d="M358.116 118.933L357.672 118.935L357.574 118.932C357.481 118.935 357.435 118.968 357.433 119.009C357.433 119.024 357.437 119.046 357.444 119.074C357.451 119.102 357.459 119.13 357.456 119.139C357.458 119.202 357.421 119.238 357.355 119.233C357.324 119.234 357.302 119.223 357.282 119.201C357.263 119.18 357.256 119.152 357.255 119.121C357.257 119.096 357.253 119.058 357.264 119.02C357.272 118.976 357.277 118.942 357.273 118.904C357.272 118.873 357.268 118.851 357.264 118.829C357.25 118.789 357.243 118.761 357.243 118.745C357.242 118.714 357.266 118.701 357.307 118.703L357.338 118.702L357.448 118.714C357.545 118.717 357.69 118.718 357.887 118.731L358.123 118.739L358.808 118.726C358.892 118.72 358.946 118.715 358.964 118.705C358.982 118.695 358.991 118.667 358.993 118.626C358.992 118.61 358.995 118.585 358.99 118.548C358.989 118.517 358.985 118.495 358.988 118.47C358.986 118.407 359.019 118.365 359.085 118.369C359.157 118.37 359.192 118.407 359.188 118.473C359.193 118.51 359.182 118.564 359.175 118.639C359.162 118.718 359.157 118.768 359.155 118.809C359.157 118.871 359.159 118.934 359.177 119.012C359.192 119.083 359.197 119.136 359.195 119.161C359.194 119.234 359.158 119.269 359.092 119.265C359.029 119.267 358.987 119.234 358.989 119.178C358.988 119.162 358.99 119.137 358.993 119.112C359.001 119.083 358.997 119.061 358.997 119.046C359.001 118.98 358.944 118.947 358.846 118.944C358.821 118.942 358.78 118.94 358.708 118.939C358.564 118.938 358.364 118.935 358.116 118.933Z" fill="white"/>
<path d="M358.612 117.702C358.673 117.756 358.75 117.795 358.841 117.817C358.739 117.745 358.686 117.662 358.692 117.571C358.693 117.499 358.731 117.422 358.801 117.345L358.901 117.235C358.961 117.171 358.988 117.117 358.99 117.076C358.989 117.045 358.972 117.014 358.943 116.99C358.904 116.963 358.866 116.951 358.82 116.953C358.82 116.953 358.813 116.956 358.804 116.953C358.798 116.957 358.788 116.954 358.782 116.957C358.795 116.982 358.805 117 358.803 117.025C358.804 117.057 358.789 117.089 358.768 117.108C358.741 117.131 358.713 117.138 358.672 117.136C358.631 117.134 358.593 117.123 358.561 117.093C358.529 117.063 358.518 117.028 358.514 116.991C358.515 116.935 358.539 116.89 358.594 116.86C358.646 116.824 358.718 116.809 358.806 116.809C358.924 116.809 359.019 116.837 359.096 116.891C359.173 116.945 359.216 117.009 359.212 117.091C359.214 117.153 359.173 117.239 359.092 117.339L358.999 117.461C358.942 117.532 358.912 117.595 358.917 117.648C358.918 117.68 358.929 117.714 358.942 117.738C358.959 117.769 358.972 117.778 358.997 117.78C359.003 117.777 359.015 117.77 359.021 117.751C359.042 117.716 359.072 117.7 359.104 117.699C359.176 117.699 359.211 117.736 359.213 117.798C359.212 117.855 359.188 117.899 359.127 117.933C359.071 117.963 358.997 117.987 358.909 117.987C358.728 117.989 358.573 117.938 358.457 117.842C358.373 117.775 358.278 117.628 358.177 117.412C358.116 117.286 358.06 117.197 357.999 117.142C357.941 117.094 357.862 117.065 357.768 117.068C357.658 117.072 357.572 117.103 357.501 117.165C357.438 117.223 357.403 117.306 357.403 117.409C357.406 117.503 357.43 117.577 357.479 117.638C357.538 117.702 357.601 117.731 357.683 117.735C357.69 117.66 357.735 117.611 357.817 117.615C357.87 117.61 357.911 117.628 357.947 117.664C357.979 117.694 357.999 117.731 358.001 117.778C357.999 117.835 357.982 117.876 357.936 117.909C357.89 117.941 357.825 117.953 357.746 117.955C357.596 117.957 357.463 117.902 357.362 117.789C357.255 117.68 357.204 117.541 357.205 117.381C357.203 117.231 357.255 117.107 357.362 117.009C357.468 116.912 357.601 116.864 357.761 116.865C357.858 116.868 357.956 116.887 358.042 116.928C358.128 116.969 358.199 117.026 358.245 117.097C358.281 117.149 358.321 117.238 358.369 117.34C358.442 117.491 358.518 117.617 358.612 117.702Z" fill="white"/>
<path d="M358.049 115.969L357.455 115.534L357.454 115.973C357.455 116.092 357.494 116.15 357.572 116.148C357.588 116.147 357.625 116.143 357.669 116.135C357.7 116.134 357.728 116.127 357.759 116.126C357.853 116.123 357.898 116.162 357.897 116.219C357.899 116.281 357.859 116.311 357.772 116.31C357.747 116.308 357.7 116.309 357.64 116.302C357.58 116.295 357.539 116.293 357.502 116.297L357.349 116.308C357.267 116.305 357.223 116.281 357.227 116.231C357.23 116.206 357.231 116.165 357.236 116.115C357.237 116.058 357.242 116.024 357.245 115.998L357.245 115.807L357.246 115.544L357.23 115.354C357.23 115.354 357.227 115.348 357.23 115.338C357.227 115.26 357.266 115.215 357.332 115.219C357.367 115.224 357.414 115.238 357.472 115.286L357.97 115.677L357.969 115.646C357.972 115.518 358.018 115.413 358.116 115.328C358.217 115.25 358.344 115.205 358.513 115.209C358.72 115.208 358.884 115.263 359.01 115.378C359.136 115.493 359.197 115.635 359.2 115.816C359.199 115.976 359.147 116.115 359.041 116.229C358.941 116.338 358.805 116.396 358.655 116.398C358.557 116.394 358.475 116.375 358.415 116.336C358.354 116.298 358.318 116.246 358.322 116.18C358.322 116.076 358.377 116.031 358.486 116.027C358.583 116.03 358.635 116.066 358.634 116.138C358.637 116.144 358.634 116.154 358.632 116.179L358.663 116.178C358.751 116.178 358.828 116.145 358.892 116.07C358.955 115.996 358.984 115.917 358.983 115.814C358.986 115.701 358.942 115.605 358.846 115.53C358.753 115.461 358.642 115.418 358.498 115.416C358.388 115.42 358.304 115.441 358.24 115.5C358.176 115.558 358.144 115.631 358.147 115.725C358.148 115.756 358.156 115.784 358.16 115.822C358.174 115.878 358.181 115.906 358.188 115.918C358.187 115.974 358.166 115.994 358.112 115.999C358.11 116.008 358.087 115.996 358.049 115.969Z" fill="white"/>
<path d="M358.669 114.129L358.603 114.125L358.6 114.724C358.601 114.827 358.561 114.872 358.483 114.875C358.436 114.876 358.382 114.85 358.302 114.805L357.284 114.202C357.232 114.167 357.209 114.123 357.204 114.07C357.206 114.014 357.223 113.973 357.254 113.956C357.281 113.933 357.341 113.925 357.428 113.925L358.396 113.919L358.396 113.728C358.397 113.656 358.427 113.624 358.49 113.622C358.562 113.622 358.594 113.668 358.6 113.753L358.603 113.919L358.665 113.917L358.825 113.918C358.934 113.914 358.99 113.884 358.988 113.822C358.987 113.806 358.987 113.79 358.983 113.769C358.979 113.747 358.979 113.731 358.978 113.715C358.976 113.653 359.013 113.617 359.075 113.615C359.106 113.614 359.129 113.626 359.148 113.647C359.168 113.669 359.181 113.693 359.182 113.724C359.18 113.75 359.175 113.8 359.168 113.86C359.154 113.923 359.149 113.973 359.15 114.004C359.149 114.045 359.153 114.098 359.168 114.17C359.18 114.235 359.185 114.288 359.189 114.326C359.191 114.388 359.155 114.424 359.082 114.423C359.02 114.425 358.988 114.395 358.986 114.332C358.988 114.323 358.988 114.307 358.99 114.282C358.992 114.257 358.998 114.238 358.998 114.222C358.999 114.166 358.951 114.136 358.866 114.126C358.848 114.136 358.782 114.132 358.669 114.129ZM358.401 114.664L358.4 114.132L357.501 114.133L358.401 114.664Z" fill="white"/>
<path d="M357.556 111.309L358.009 111.351C357.908 111.238 357.857 111.114 357.856 110.98C357.857 110.82 357.915 110.693 358.031 110.598C358.154 110.5 358.302 110.452 358.493 110.452C358.7 110.451 358.865 110.506 359 110.623C359.132 110.735 359.203 110.88 359.199 111.049C359.204 111.206 359.155 111.336 359.061 111.442C358.967 111.548 358.847 111.605 358.712 111.607C358.634 111.609 358.574 111.586 358.526 111.556C358.478 111.527 358.451 111.477 358.45 111.43C358.452 111.39 358.463 111.352 358.497 111.326C358.53 111.299 358.564 111.289 358.611 111.287C358.699 111.288 358.744 111.327 358.75 111.411C358.921 111.359 359.001 111.243 359.008 111.065C359.007 110.946 358.957 110.853 358.867 110.775C358.771 110.7 358.647 110.663 358.503 110.661C358.375 110.659 358.266 110.694 358.19 110.759C358.108 110.828 358.067 110.913 358.067 111.017C358.068 111.151 358.131 111.253 358.243 111.327C358.278 111.348 358.304 111.366 358.31 111.379C358.317 111.391 358.321 111.413 358.322 111.444C358.318 111.51 358.281 111.545 358.209 111.545C358.168 111.543 358.128 111.541 358.068 111.534C357.993 111.527 357.948 111.519 357.923 111.516C357.883 111.515 357.813 111.504 357.726 111.504C357.594 111.496 357.481 111.493 357.39 111.487L357.318 111.486C357.287 111.487 357.261 111.484 357.249 111.476C357.236 111.467 357.229 111.454 357.228 111.423C357.228 111.407 357.23 111.398 357.233 111.388C357.247 111.238 357.247 111.134 357.248 111.078L357.244 111.056L357.24 110.827C357.242 110.802 357.235 110.774 357.234 110.727C357.226 110.684 357.225 110.653 357.227 110.627C357.224 110.606 357.229 110.587 357.242 110.58C357.254 110.573 357.266 110.567 357.297 110.566C357.323 110.568 357.338 110.567 357.354 110.567L357.416 110.565C357.448 110.564 357.491 110.556 357.551 110.548C357.61 110.54 357.653 110.532 357.679 110.534C357.735 110.536 357.764 110.56 357.763 110.616C357.761 110.673 357.737 110.702 357.675 110.704L357.581 110.707C357.528 110.712 357.497 110.728 357.473 110.757C357.455 110.783 357.444 110.836 357.443 110.909L357.443 111.187C357.441 111.228 357.451 111.247 357.461 111.265C357.472 111.299 357.5 111.308 357.556 111.309Z" fill="white"/>
<path d="M357.389 109.41C357.387 109.539 357.456 109.637 357.587 109.717C357.718 109.797 357.901 109.841 358.127 109.847C358.03 109.771 357.968 109.701 357.926 109.637C357.889 109.569 357.865 109.495 357.871 109.404C357.866 109.247 357.934 109.123 358.053 109.019C358.175 108.921 358.33 108.869 358.515 108.872C358.712 108.869 358.877 108.923 359.009 109.035C359.137 109.141 359.204 109.279 359.207 109.445C359.207 109.549 359.179 109.643 359.122 109.73C359.065 109.816 358.989 109.881 358.893 109.925C358.708 110.009 358.487 110.057 358.224 110.056C357.924 110.06 357.684 109.999 357.492 109.88C357.306 109.757 357.207 109.604 357.207 109.413C357.207 109.294 357.244 109.186 357.326 109.102C357.408 109.018 357.503 108.974 357.622 108.973C357.751 108.975 357.815 109.02 357.818 109.114C357.816 109.155 357.801 109.187 357.774 109.21C357.746 109.232 357.712 109.243 357.665 109.244C357.618 109.246 357.574 109.222 357.541 109.176C357.436 109.217 357.385 109.301 357.389 109.41ZM358.073 109.438C358.073 109.541 358.11 109.625 358.197 109.697C358.274 109.767 358.379 109.798 358.507 109.8C358.642 109.799 358.756 109.76 358.848 109.695C358.937 109.623 358.987 109.54 358.987 109.437C358.987 109.333 358.944 109.253 358.851 109.184C358.761 109.121 358.644 109.081 358.509 109.083C358.374 109.084 358.272 109.115 358.19 109.184C358.12 109.245 358.079 109.331 358.073 109.438Z" fill="white"/>
<path d="M357.308 108.26C357.308 108.26 357.317 108.263 357.333 108.262C357.349 108.262 357.364 108.261 357.38 108.261C357.313 108.225 357.271 108.192 357.251 108.155C357.228 108.128 357.217 108.078 357.219 108.022C357.22 107.981 357.24 107.915 357.287 107.825C357.331 107.73 357.357 107.66 357.352 107.607C357.352 107.591 357.348 107.57 357.338 107.536C357.316 107.555 357.294 107.559 357.273 107.563C357.21 107.565 357.184 107.531 357.182 107.469C357.185 107.371 357.268 107.319 357.45 107.316C357.6 107.314 357.726 107.357 357.848 107.434C357.899 107.47 357.96 107.509 358.012 107.561C358.141 107.666 358.249 107.735 358.347 107.769C358.455 107.806 358.581 107.818 358.734 107.822C358.741 107.819 358.756 107.819 358.775 107.824C358.797 107.82 358.813 107.82 358.822 107.823C358.885 107.821 358.932 107.819 358.969 107.815C359.113 107.816 359.183 107.858 359.186 107.936C359.182 108.002 359.145 108.038 359.062 108.059C359.04 108.063 358.971 108.068 358.858 108.066C358.626 108.064 358.421 108.024 358.231 107.936C358.122 107.883 357.988 107.796 357.84 107.67C357.766 107.606 357.708 107.558 357.66 107.528C357.615 107.505 357.555 107.482 357.476 107.468C357.529 107.536 357.559 107.591 357.554 107.641C357.552 107.666 357.549 107.692 357.535 107.723C357.529 107.742 357.514 107.774 357.491 107.834C357.456 107.917 357.437 107.983 357.441 108.036C357.44 108.093 357.461 108.145 357.506 108.185C357.551 108.224 357.602 108.244 357.674 108.245C357.699 108.247 357.736 108.243 357.768 108.242C357.821 108.237 357.858 108.233 357.88 108.229C357.993 108.247 358.041 108.277 358.047 108.346C358.046 108.418 358.012 108.444 357.934 108.447C357.893 108.445 357.843 108.44 357.783 108.433C357.704 108.419 357.639 108.415 357.573 108.411C357.541 108.412 357.494 108.414 357.435 108.422C357.376 108.43 357.323 108.435 357.298 108.433C357.232 108.428 357.203 108.404 357.201 108.342C357.196 108.289 357.23 108.263 357.308 108.26Z" fill="white"/>
<path d="M358.222 106.802C358.164 106.754 358.124 106.68 358.093 106.578C358.02 106.752 357.885 106.841 357.685 106.838C357.541 106.837 357.42 106.791 357.329 106.696C357.239 106.602 357.188 106.479 357.189 106.334C357.191 106.19 357.234 106.079 357.328 105.989C357.416 105.901 357.534 105.854 357.678 105.855C357.869 105.855 358.009 105.938 358.103 106.111C358.174 105.889 358.336 105.777 358.59 105.776C358.765 105.776 358.914 105.831 359.027 105.937C359.14 106.043 359.195 106.188 359.191 106.357C359.194 106.523 359.132 106.66 359.032 106.77C358.926 106.883 358.787 106.934 358.621 106.937C358.465 106.942 358.329 106.896 358.222 106.802ZM357.377 106.344C357.38 106.422 357.404 106.497 357.462 106.545C357.52 106.593 357.59 106.619 357.678 106.619C357.765 106.62 357.83 106.592 357.891 106.544C357.949 106.488 357.978 106.425 357.976 106.347C357.973 106.268 357.946 106.204 357.888 106.155C357.827 106.101 357.757 106.075 357.679 106.077C357.591 106.077 357.526 106.104 357.465 106.153C357.404 106.202 357.378 106.272 357.377 106.344ZM358.205 106.358C358.205 106.461 358.245 106.551 358.317 106.624C358.388 106.697 358.483 106.725 358.596 106.727C358.715 106.727 358.814 106.689 358.89 106.624C358.963 106.553 359.004 106.467 359.004 106.364C359 106.254 358.969 106.167 358.892 106.098C358.814 106.028 358.716 105.994 358.603 105.991C358.484 105.992 358.388 106.02 358.315 106.091C358.242 106.163 358.201 106.248 358.205 106.358Z" fill="white"/>
<path d="M358.992 103.194C358.988 103.069 358.925 102.968 358.794 102.887C358.666 102.813 358.483 102.769 358.254 102.758C358.35 102.833 358.412 102.903 358.455 102.967C358.492 103.035 358.516 103.109 358.516 103.197C358.515 103.357 358.456 103.484 358.334 103.582C358.212 103.68 358.063 103.728 357.872 103.728C357.675 103.732 357.507 103.671 357.378 103.566C357.246 103.454 357.182 103.322 357.18 103.156C357.18 103.052 357.208 102.957 357.265 102.871C357.322 102.785 357.398 102.719 357.493 102.676C357.679 102.591 357.903 102.55 358.166 102.551C358.46 102.55 358.707 102.608 358.892 102.731C359.084 102.85 359.177 103.007 359.177 103.198C359.181 103.323 359.134 103.428 359.058 103.508C358.976 103.592 358.881 103.636 358.768 103.634C358.633 103.635 358.566 103.584 358.569 103.487C358.571 103.446 358.579 103.417 358.613 103.391C358.64 103.368 358.681 103.355 358.721 103.356C358.778 103.358 358.813 103.378 358.846 103.424C358.941 103.381 358.995 103.304 358.992 103.194ZM358.308 103.166C358.308 103.063 358.267 102.973 358.184 102.907C358.1 102.841 358.002 102.806 357.873 102.804C357.739 102.806 357.621 102.838 357.532 102.909C357.44 102.975 357.393 103.064 357.393 103.168C357.394 103.271 357.437 103.351 357.53 103.42C357.62 103.483 357.734 103.517 357.868 103.516C358.003 103.514 358.105 103.483 358.188 103.414C358.267 103.355 358.308 103.27 358.308 103.166Z" fill="white"/>
<path d="M358.916 102.01C358.741 102.128 358.496 102.189 358.179 102.193C357.869 102.194 357.623 102.136 357.444 102.01C357.268 101.891 357.182 101.746 357.179 101.58C357.177 101.399 357.266 101.255 357.441 101.136C357.628 101.011 357.873 100.95 358.177 100.953C358.487 100.952 358.733 101.01 358.913 101.136C359.089 101.255 359.178 101.406 359.177 101.566C359.183 101.738 359.091 101.891 358.916 102.01ZM357.389 101.57C357.386 101.683 357.461 101.778 357.614 101.854C357.767 101.931 357.953 101.966 358.181 101.961C358.413 101.963 358.6 101.926 358.751 101.852C358.902 101.778 358.977 101.682 358.98 101.569C358.983 101.456 358.901 101.365 358.755 101.285C358.602 101.208 358.416 101.174 358.184 101.172C357.952 101.17 357.765 101.207 357.618 101.287C357.46 101.364 357.385 101.461 357.389 101.57Z" fill="white"/>
<path d="M358.09 100.276L357.645 100.278L357.542 100.278C357.448 100.281 357.402 100.314 357.403 100.361C357.404 100.376 357.408 100.398 357.409 100.43C357.416 100.458 357.42 100.479 357.42 100.495C357.422 100.558 357.382 100.587 357.32 100.589C357.289 100.59 357.266 100.578 357.247 100.557C357.227 100.536 357.22 100.508 357.219 100.476C357.221 100.451 357.217 100.414 357.228 100.376C357.236 100.332 357.241 100.297 357.237 100.26C357.236 100.228 357.232 100.207 357.228 100.185C357.215 100.145 357.207 100.117 357.207 100.101C357.206 100.07 357.231 100.056 357.271 100.058L357.303 100.057L357.413 100.069C357.51 100.072 357.654 100.074 357.846 100.09L358.09 100.085L358.775 100.072C358.86 100.066 358.913 100.061 358.931 100.051C358.956 100.038 358.958 100.013 358.96 99.9722C358.959 99.9566 358.962 99.9315 358.951 99.8974C358.95 99.8661 358.943 99.8381 358.949 99.8191C358.943 99.7504 358.98 99.7148 359.046 99.7189C359.118 99.7197 359.153 99.7561 359.153 99.8282C359.154 99.8595 359.146 99.9192 359.139 99.9946C359.126 100.073 359.121 100.124 359.12 100.164C359.122 100.227 359.127 100.296 359.136 100.371C359.144 100.445 359.155 100.495 359.153 100.52C359.152 100.592 359.116 100.628 359.05 100.624C358.984 100.62 358.946 100.593 358.953 100.533C358.952 100.517 358.955 100.492 358.957 100.467C358.966 100.439 358.968 100.414 358.967 100.398C358.965 100.335 358.914 100.299 358.817 100.296C358.795 100.3 358.751 100.292 358.679 100.291C358.528 100.277 358.337 100.277 358.09 100.276Z" fill="white"/>
<path d="M358.576 99.0419C358.637 99.0963 358.713 99.1345 358.802 99.1505C358.699 99.0786 358.65 99.0019 358.647 98.9081C358.647 98.836 358.679 98.7629 358.755 98.6822L358.849 98.5758C358.909 98.5112 358.936 98.4571 358.938 98.4163C358.937 98.385 358.92 98.3542 358.885 98.3334C358.85 98.3126 358.808 98.2952 358.768 98.2934C358.768 98.2934 358.762 98.2967 358.752 98.2939C358.746 98.2972 358.74 98.3005 358.73 98.2977C358.75 98.319 358.754 98.3408 358.757 98.3626C358.758 98.3939 358.744 98.4257 358.722 98.4452C358.701 98.4647 358.667 98.4752 358.63 98.4795C358.589 98.4777 358.551 98.4664 358.519 98.4361C358.486 98.4058 358.47 98.375 358.471 98.3343C358.473 98.2779 358.496 98.2332 358.548 98.1971C358.601 98.161 358.672 98.1461 358.766 98.1431C358.879 98.1457 358.98 98.1706 359.057 98.2245C359.134 98.2784 359.176 98.3428 359.173 98.4244C359.175 98.4869 359.13 98.5667 359.046 98.6759L358.959 98.7946C358.902 98.8653 358.873 98.9289 358.874 98.9759C358.875 99.0072 358.886 99.0413 358.899 99.0659C358.916 99.0967 358.935 99.1023 358.954 99.108C358.96 99.1046 358.972 99.098 358.981 99.0852C358.996 99.0534 359.033 99.0334 359.07 99.029C359.142 99.0298 359.175 99.0601 359.18 99.1289C359.179 99.1853 359.155 99.2299 359.093 99.2632C359.038 99.2932 358.97 99.3142 358.876 99.3172C358.694 99.32 358.539 99.2686 358.423 99.1721C358.336 99.0997 358.244 98.9587 358.143 98.7427C358.089 98.6129 358.027 98.5272 357.965 98.4728C357.907 98.4245 357.828 98.3958 357.728 98.4022C357.625 98.4024 357.532 98.4367 357.468 98.4951C357.404 98.5536 357.369 98.6361 357.37 98.7395C357.373 98.8334 357.397 98.9077 357.446 98.9688C357.504 99.0327 357.568 99.062 357.649 99.0656C357.663 98.9869 357.705 98.9479 357.79 98.942C357.836 98.9405 357.884 98.9546 357.916 98.9849C357.955 99.0119 357.968 99.0521 357.97 99.0991C357.969 99.1555 357.951 99.1968 357.902 99.2234C357.856 99.2562 357.794 99.2739 357.712 99.2703C357.562 99.272 357.435 99.2135 357.328 99.1042C357.221 98.9949 357.17 98.8556 357.171 98.6958C357.169 98.5455 357.221 98.4217 357.328 98.3243C357.434 98.2269 357.567 98.1787 357.733 98.1765C357.837 98.1763 357.928 98.1984 358.014 98.2394C358.1 98.2805 358.171 98.3377 358.217 98.4083C358.253 98.4604 358.3 98.5465 358.341 98.6517C358.416 98.8341 358.492 98.96 358.576 99.0419Z" fill="white"/>
<path d="M358.015 95.6366L357.421 95.2016L357.426 95.6369C357.427 95.7559 357.466 95.8141 357.544 95.8116C357.56 95.8111 357.597 95.8067 357.644 95.8052C357.676 95.8042 357.704 95.797 357.729 95.7993C357.823 95.7963 357.87 95.8261 357.866 95.892C357.868 95.9546 357.829 95.984 357.741 95.9837C357.716 95.9814 357.669 95.9829 357.609 95.9755C357.553 95.9742 357.509 95.9662 357.471 95.9705L357.318 95.9818C357.236 95.9781 357.192 95.9545 357.196 95.9042C357.199 95.8791 357.201 95.8383 357.199 95.7914C357.207 95.7317 357.206 95.7004 357.208 95.6752L357.208 95.4842L357.209 95.221L357.193 95.0305C357.193 95.0305 357.19 95.0243 357.193 95.0148C357.19 94.9366 357.223 94.8948 357.295 94.8956C357.333 94.8913 357.377 94.9149 357.435 94.9631L357.934 95.3542L357.932 95.3229C357.935 95.1944 357.981 95.0896 358.079 95.005C358.18 94.9266 358.307 94.8817 358.476 94.8857C358.683 94.8852 358.847 94.9394 358.973 95.0544C359.099 95.1693 359.169 95.3143 359.163 95.493C359.165 95.6589 359.11 95.7923 359.004 95.9053C358.904 96.015 358.768 96.0727 358.618 96.0744C358.524 96.0774 358.442 96.0582 358.378 96.0133C358.317 95.9745 358.281 95.9224 358.285 95.8565C358.288 95.7593 358.34 95.7075 358.449 95.704C358.546 95.7071 358.598 95.7431 358.597 95.8151C358.6 95.8213 358.601 95.8369 358.595 95.8559L358.626 95.8549C358.714 95.8552 358.791 95.8214 358.855 95.7473C358.918 95.6732 358.947 95.594 358.946 95.4906C358.949 95.3778 358.905 95.2821 358.809 95.2069C358.712 95.1317 358.599 95.0978 358.461 95.0929C358.351 95.0964 358.267 95.1179 358.203 95.1764C358.139 95.2348 358.107 95.3079 358.11 95.4017C358.111 95.433 358.112 95.4643 358.123 95.4984C358.137 95.5543 358.144 95.5823 358.145 95.5979C358.14 95.6482 358.122 95.6739 358.066 95.6725C358.075 95.6754 358.047 95.6669 358.015 95.6366Z" fill="white"/>
<path d="M358.629 93.8001L358.566 93.8021L358.57 94.3971C358.57 94.5005 358.528 94.5551 358.446 94.5515C358.399 94.553 358.345 94.5265 358.266 94.4821L357.247 93.8792C357.199 93.8495 357.176 93.8064 357.171 93.7533C357.172 93.6969 357.19 93.6556 357.22 93.6389C357.251 93.6223 357.307 93.6079 357.395 93.6082L358.356 93.6053L358.356 93.4143C358.357 93.3422 358.387 93.3099 358.45 93.3079C358.522 93.3087 358.561 93.3513 358.557 93.4328L358.56 93.5988L358.626 93.6029L358.785 93.604C358.895 93.6005 358.944 93.5738 358.948 93.5079C358.948 93.4923 358.947 93.4766 358.943 93.4548C358.939 93.433 358.936 93.4112 358.938 93.4017C358.936 93.3391 358.973 93.3035 359.035 93.3015C359.061 93.3038 359.089 93.3123 359.109 93.3336C359.128 93.3549 359.141 93.3795 359.142 93.4108C359.143 93.4421 359.135 93.4862 359.128 93.5459C359.12 93.6057 359.11 93.6593 359.111 93.6906C359.109 93.7313 359.114 93.7844 359.129 93.856C359.143 93.9276 359.148 93.9806 359.149 94.0119C359.145 94.0778 359.115 94.1101 359.046 94.1155C358.98 94.1114 358.948 94.0811 358.949 94.0247C358.952 94.0152 358.952 93.9995 358.96 93.9711C358.962 93.9459 358.968 93.927 358.967 93.9113C358.969 93.8549 358.921 93.8251 358.836 93.8153C358.814 93.8035 358.748 93.7994 358.629 93.8001ZM358.367 94.3316L358.366 93.7992L357.467 93.8001L358.367 94.3316Z" fill="white"/>
<path d="M357.52 92.6489L357.973 92.6906C357.872 92.578 357.821 92.4544 357.82 92.3197C357.821 92.16 357.879 92.0328 357.995 91.9382C358.118 91.8403 358.266 91.7916 358.457 91.7917C358.664 91.7913 358.832 91.8516 358.964 91.9633C359.096 92.0749 359.163 92.2137 359.166 92.3952C359.168 92.5455 359.122 92.6817 359.028 92.7881C358.935 92.8945 358.82 92.9483 358.68 92.9528C358.608 92.952 358.545 92.9384 358.493 92.9025C358.445 92.8727 358.422 92.8296 358.417 92.7765C358.419 92.7357 358.43 92.6978 358.464 92.6716C358.497 92.6455 358.532 92.635 358.579 92.6335C358.666 92.6338 358.711 92.673 358.711 92.7607C358.882 92.7082 358.962 92.5929 358.963 92.4175C358.962 92.2985 358.919 92.2028 358.822 92.1276C358.726 92.0524 358.602 92.0157 358.462 92.0202C358.333 92.0181 358.225 92.0529 358.142 92.1214C358.066 92.1865 358.025 92.2724 358.019 92.3791C358.02 92.5137 358.08 92.6089 358.195 92.6897C358.23 92.7105 358.256 92.7285 358.263 92.7408C358.269 92.7531 358.273 92.7749 358.274 92.8062C358.276 92.8688 358.24 92.9044 358.161 92.9069C358.121 92.9051 358.08 92.9033 358.02 92.8958C357.945 92.8889 357.894 92.8842 357.875 92.8786C357.835 92.8768 357.765 92.8665 357.672 92.8695C357.54 92.8612 357.424 92.8525 357.336 92.8522L357.264 92.8514C357.233 92.8524 357.207 92.8501 357.195 92.8411C357.182 92.8321 357.175 92.8198 357.177 92.7947C357.177 92.779 357.18 92.7695 357.183 92.76C357.19 92.6126 357.196 92.5059 357.198 92.4495L357.194 92.4277L357.201 92.1769C357.197 92.1551 357.196 92.1238 357.195 92.0768C357.187 92.0332 357.186 92.0019 357.189 91.9768C357.191 91.9517 357.19 91.936 357.203 91.9294C357.209 91.926 357.227 91.9161 357.262 91.9212C357.287 91.9235 357.309 91.9197 357.318 91.9225L357.381 91.9205C357.412 91.9195 357.456 91.9118 357.509 91.9069C357.568 91.8988 357.612 91.8911 357.637 91.8934C357.693 91.8947 357.722 91.9188 357.721 91.9753C357.72 92.0317 357.689 92.064 357.633 92.0627L357.539 92.0657C357.486 92.0706 357.455 92.0872 357.431 92.1162C357.413 92.1418 357.402 92.1954 357.402 92.2675L357.401 92.5463C357.399 92.587 357.413 92.6117 357.419 92.624C357.435 92.6391 357.47 92.6443 357.52 92.6489Z" fill="white"/>
<path d="M357.352 90.75C357.35 90.8784 357.419 90.9764 357.55 91.0568C357.681 91.1371 357.864 91.1813 358.09 91.1865C357.994 91.1113 357.932 91.0413 357.889 90.9769C357.846 90.9125 357.828 90.8348 357.835 90.7438C357.833 90.5935 357.891 90.4663 358.016 90.3589C358.138 90.261 358.293 90.209 358.478 90.2124C358.675 90.2092 358.84 90.2634 358.969 90.3688C359.097 90.4743 359.165 90.6131 359.167 90.779C359.167 90.8823 359.139 90.9772 359.082 91.0636C359.025 91.15 358.949 91.2151 358.851 91.2684C358.665 91.3527 358.441 91.3944 358.178 91.3935C357.878 91.397 357.638 91.3358 357.452 91.2134C357.266 91.091 357.174 90.9343 357.167 90.7465C357.167 90.6275 357.204 90.5198 357.286 90.4358C357.368 90.3517 357.463 90.3079 357.582 90.3072C357.711 90.3093 357.775 90.3542 357.772 90.4514C357.77 90.4922 357.762 90.5206 357.728 90.5468C357.7 90.5696 357.666 90.5801 357.623 90.5877C357.576 90.5893 357.531 90.5656 357.498 90.5197C357.403 90.5635 357.355 90.6371 357.352 90.75ZM358.042 90.7746C358.042 90.878 358.083 90.9675 358.167 91.0337C358.25 91.0999 358.348 91.1343 358.477 91.1364C358.611 91.1352 358.729 91.1032 358.818 91.0314C358.91 90.9658 358.957 90.8766 358.957 90.7733C358.957 90.6699 358.913 90.5899 358.82 90.5208C358.73 90.458 358.617 90.4241 358.482 90.4253C358.347 90.4265 358.245 90.458 358.163 90.5264C358.083 90.5854 358.042 90.6713 358.042 90.7746Z" fill="white"/>
<path d="M346.899 112.969C346.9 112.825 346.949 112.695 347.059 112.588C347.052 112.591 347.043 112.589 347.033 112.586C346.946 112.585 346.907 112.543 346.904 112.449C346.902 112.402 346.917 112.37 346.944 112.347C346.968 112.318 347.002 112.308 347.049 112.306C347.071 112.303 347.1 112.311 347.14 112.313C347.2 112.32 347.25 112.325 347.272 112.321C347.294 112.317 347.319 112.32 347.363 112.312C347.4 112.308 347.432 112.307 347.453 112.303C347.5 112.301 347.542 112.319 347.568 112.352C347.594 112.386 347.611 112.432 347.61 112.489C347.61 112.608 347.559 112.66 347.465 112.663L347.393 112.662C347.346 112.663 347.3 112.68 347.266 112.722C347.233 112.764 347.216 112.821 347.218 112.884C347.219 113.09 347.375 113.189 347.701 113.187C347.87 113.191 347.992 113.165 348.068 113.116C348.145 113.067 348.183 112.99 348.186 112.877C348.184 112.815 348.166 112.753 348.137 112.713C348.107 112.673 348.063 112.649 348.016 112.651L347.938 112.654C347.891 112.655 347.849 112.638 347.823 112.604C347.797 112.57 347.783 112.53 347.782 112.483C347.78 112.421 347.806 112.367 347.849 112.328C347.891 112.289 347.947 112.274 348.026 112.272C348.17 112.273 348.287 112.329 348.382 112.445C348.477 112.561 348.525 112.71 348.518 112.888C348.519 113.111 348.447 113.285 348.304 113.418C348.164 113.542 347.972 113.614 347.724 113.613C347.471 113.615 347.271 113.555 347.124 113.444C346.973 113.327 346.896 113.17 346.899 112.969Z" fill="white"/>
<path d="M347.583 110.704C347.616 110.75 347.643 110.815 347.662 110.908C347.683 110.801 347.712 110.722 347.758 110.674C347.803 110.625 347.871 110.604 347.965 110.601C347.996 110.6 348.021 110.602 348.043 110.599L348.068 110.601C348.138 110.611 348.168 110.595 348.17 110.554C348.173 110.544 348.166 110.532 348.163 110.51C348.159 110.488 348.158 110.473 348.155 110.467C348.154 110.435 348.169 110.403 348.199 110.387C348.23 110.37 348.264 110.36 348.311 110.358C348.358 110.357 348.399 110.374 348.432 110.404C348.464 110.435 348.478 110.475 348.479 110.522C348.48 110.537 348.477 110.563 348.472 110.597C348.467 110.632 348.465 110.657 348.465 110.673C348.466 110.688 348.467 110.72 348.471 110.757C348.476 110.794 348.479 110.816 348.474 110.835C348.472 110.892 348.449 110.936 348.403 110.969C348.36 111.008 348.295 111.02 348.217 111.022C348.207 111.019 348.201 111.023 348.198 111.016L348.063 111.018L348.047 111.018C347.969 111.021 347.917 111.041 347.884 111.083C347.85 111.125 347.84 111.194 347.834 111.301C347.832 111.341 347.849 111.372 347.868 111.378C347.887 111.384 347.912 111.386 347.953 111.388L348.009 111.389C348.113 111.389 348.165 111.368 348.167 111.327C348.17 111.318 348.163 111.306 348.156 111.278C348.152 111.256 348.152 111.24 348.151 111.225C348.15 111.193 348.168 111.168 348.192 111.139C348.22 111.116 348.26 111.102 348.301 111.104C348.41 111.1 348.465 111.158 348.469 111.268C348.473 111.305 348.465 111.349 348.461 111.415C348.454 111.475 348.452 111.531 348.454 111.578C348.455 111.625 348.454 111.682 348.466 111.747C348.468 111.81 348.476 111.869 348.474 111.91C348.471 112.022 348.42 112.074 348.31 112.078C348.27 112.076 348.232 112.065 348.203 112.04C348.174 112.016 348.157 111.986 348.156 111.954C348.156 111.939 348.161 111.92 348.163 111.895C348.172 111.866 348.171 111.85 348.174 111.841C348.176 111.8 348.125 111.78 348.022 111.78L347.386 111.782C347.339 111.783 347.308 111.784 347.292 111.785C347.255 111.789 347.234 111.809 347.235 111.84C347.235 111.856 347.236 111.871 347.239 111.893C347.243 111.915 347.247 111.937 347.248 111.952C347.249 111.984 347.234 112.015 347.2 112.042C347.173 112.064 347.139 112.075 347.092 112.076C347.045 112.078 347.004 112.06 346.971 112.03C346.939 112 346.919 111.963 346.924 111.913C346.927 111.903 346.923 111.897 346.929 111.894L346.946 111.733C346.954 111.689 346.953 111.642 346.954 111.586C346.954 111.498 346.947 111.383 346.937 111.245C346.927 111.155 346.928 111.083 346.924 111.045C346.925 110.901 346.956 110.781 347.038 110.697C347.11 110.61 347.209 110.572 347.334 110.568C347.448 110.586 347.53 110.621 347.583 110.704ZM347.231 111.229C347.233 111.292 347.237 111.329 347.241 111.351C347.251 111.385 347.293 111.403 347.339 111.401L347.48 111.397C347.512 111.396 347.539 111.388 347.552 111.382C347.561 111.369 347.566 111.35 347.565 111.319C347.562 111.122 347.509 111.023 347.39 111.024C347.283 111.018 347.232 111.085 347.231 111.229Z" fill="white"/>
<path d="M347.213 109.416C347.214 109.463 347.219 109.501 347.225 109.513C347.239 109.538 347.267 109.546 347.317 109.551L347.446 109.553C347.471 109.555 347.493 109.551 347.505 109.545C347.517 109.538 347.523 109.519 347.525 109.494C347.523 109.431 347.497 109.398 347.45 109.399L347.419 109.4C347.41 109.398 347.4 109.395 347.384 109.395C347.322 109.397 347.286 109.361 347.29 109.279C347.287 109.201 347.327 109.156 347.408 109.16C347.433 109.162 347.455 109.158 347.477 109.17C347.528 109.174 347.572 109.182 347.619 109.181C347.659 109.183 347.706 109.181 347.772 109.17C347.831 109.162 347.872 109.163 347.894 109.16C347.987 109.156 348.026 109.199 348.032 109.283C348.032 109.356 347.992 109.401 347.92 109.4L347.911 109.397C347.905 109.4 347.886 109.395 347.854 109.396C347.823 109.397 347.799 109.426 347.801 109.488C347.799 109.529 347.828 109.553 347.875 109.552L348.05 109.552C348.107 109.554 348.141 109.543 348.162 109.524C348.184 109.504 348.189 109.469 348.19 109.413L348.189 109.278C348.192 109.181 348.18 109.116 348.163 109.069C348.149 109.029 348.118 109.014 348.077 109.013C348.055 109.016 348.03 109.014 348.002 109.021C347.971 109.022 347.949 109.026 347.927 109.03C347.871 109.029 347.823 109.015 347.791 108.984C347.759 108.954 347.741 108.908 347.743 108.851C347.739 108.742 347.803 108.683 347.922 108.683C347.963 108.684 348.004 108.686 348.044 108.688C348.12 108.695 348.17 108.7 348.186 108.699C348.201 108.699 348.233 108.698 348.286 108.693C348.314 108.686 348.345 108.685 348.376 108.683C348.448 108.684 348.481 108.73 348.481 108.818C348.482 108.849 348.477 108.899 348.473 108.965C348.467 109.072 348.464 109.257 348.459 109.498L348.459 109.705C348.462 109.783 348.464 109.846 348.465 109.893L348.481 110.068L348.484 110.074C348.487 110.08 348.481 110.083 348.481 110.083C348.483 110.13 348.465 110.172 348.431 110.198C348.401 110.23 348.361 110.244 348.311 110.239C348.27 110.237 348.232 110.226 348.203 110.202C348.174 110.178 348.157 110.147 348.162 110.112C348.162 110.097 348.161 110.081 348.173 110.059C348.176 110.034 348.181 110.015 348.178 110.009C348.18 109.968 348.129 109.947 348.026 109.948L347.39 109.949C347.286 109.95 347.234 109.97 347.232 110.011C347.229 110.02 347.233 110.042 347.24 110.07C347.244 110.092 347.245 110.108 347.245 110.123C347.24 110.158 347.231 110.186 347.204 110.209C347.17 110.235 347.136 110.246 347.096 110.244C346.983 110.241 346.931 110.19 346.927 110.08C346.93 110.055 346.931 109.999 346.938 109.923C346.947 109.807 346.952 109.685 346.949 109.575C346.951 109.566 346.942 109.475 346.943 109.3C346.939 109.175 346.933 109.09 346.935 109.05C346.929 108.981 346.927 108.918 346.925 108.84C346.925 108.752 346.958 108.711 347.04 108.714C347.065 108.716 347.1 108.722 347.146 108.72C347.191 108.728 347.231 108.73 347.257 108.732C347.282 108.735 347.319 108.73 347.363 108.723C347.406 108.715 347.444 108.711 347.469 108.713C347.516 108.711 347.551 108.732 347.583 108.762C347.609 108.796 347.629 108.833 347.634 108.886C347.632 108.999 347.574 109.054 347.458 109.061C347.443 109.061 347.408 109.056 347.379 109.048C347.345 109.043 347.32 109.04 347.304 109.041C347.273 109.042 347.248 109.055 347.243 109.09C347.24 109.099 347.238 109.14 347.24 109.187L347.213 109.416Z" fill="white"/>
<path d="M348.17 108.214C348.169 108.167 348.115 108.156 348.008 108.15L347.373 108.152C347.269 108.152 347.217 108.173 347.224 108.216C347.221 108.226 347.225 108.248 347.229 108.27C347.233 108.291 347.237 108.313 347.237 108.329C347.238 108.36 347.224 108.392 347.196 108.415C347.169 108.437 347.129 108.451 347.088 108.45C347.037 108.445 347 108.434 346.967 108.403C346.935 108.373 346.921 108.333 346.92 108.286C346.922 108.261 346.927 108.21 346.936 108.126C346.938 108.069 346.942 108.019 346.947 107.969C346.946 107.953 346.945 107.906 346.94 107.837L346.928 107.669C346.926 107.622 346.922 107.584 346.92 107.537C346.921 107.258 347.037 107.061 347.268 106.943C347.4 106.88 347.54 106.844 347.69 106.842C347.841 106.84 347.98 106.877 348.107 106.935C348.231 107.003 348.325 107.088 348.381 107.192C348.431 107.285 348.46 107.397 348.461 107.531C348.46 107.588 348.458 107.628 348.453 107.663L348.44 107.829C348.438 107.87 348.436 107.911 348.437 107.958C348.439 108.021 348.441 108.067 348.449 108.111L348.458 108.202C348.462 108.239 348.466 108.261 348.463 108.27C348.465 108.317 348.447 108.359 348.417 108.391C348.387 108.423 348.346 108.437 348.293 108.442C348.253 108.44 348.215 108.429 348.186 108.405C348.157 108.38 348.14 108.35 348.139 108.318C348.139 108.303 348.144 108.284 348.147 108.259C348.168 108.239 348.173 108.22 348.17 108.214ZM347.217 107.615C347.219 107.662 347.223 107.7 347.243 107.721C347.259 107.736 347.287 107.745 347.338 107.749L348.061 107.748C348.108 107.746 348.142 107.736 348.157 107.72C348.172 107.703 348.184 107.665 348.182 107.619C348.186 107.537 348.152 107.46 348.084 107.393C348.003 107.317 347.886 107.277 347.726 107.276C347.545 107.279 347.414 107.318 347.329 107.396C347.293 107.431 347.266 107.47 347.248 107.511C347.224 107.54 347.213 107.578 347.217 107.615Z" fill="white"/>
<path d="M348.165 106.41C348.164 106.379 348.144 106.358 348.104 106.356C348.088 106.356 348.053 106.351 348.006 106.353L347.371 106.354C347.324 106.356 347.292 106.357 347.277 106.357C347.239 106.362 347.218 106.381 347.219 106.412C347.216 106.422 347.22 106.444 347.224 106.466C347.228 106.487 347.232 106.509 347.229 106.519C347.23 106.55 347.215 106.582 347.188 106.605C347.16 106.627 347.12 106.641 347.079 106.639C347.026 106.644 346.985 106.627 346.959 106.593C346.926 106.563 346.913 106.523 346.917 106.472C346.92 106.447 346.924 106.397 346.928 106.315C346.935 106.256 346.94 106.205 346.932 106.146C346.934 106.105 346.932 106.043 346.919 105.962C346.907 105.881 346.912 105.83 346.905 105.802C346.908 105.69 346.959 105.638 347.075 105.631C347.122 105.629 347.154 105.644 347.182 105.668C347.211 105.692 347.228 105.723 347.223 105.758C347.223 105.773 347.224 105.789 347.212 105.811C347.207 105.83 347.204 105.855 347.201 105.865C347.2 105.906 347.25 105.926 347.354 105.926L347.989 105.924C348.093 105.924 348.145 105.903 348.147 105.863C348.147 105.847 348.146 105.831 348.139 105.803C348.135 105.782 348.131 105.76 348.134 105.75C348.133 105.719 348.148 105.687 348.175 105.664C348.203 105.642 348.237 105.631 348.284 105.629C348.331 105.628 348.372 105.645 348.404 105.676C348.437 105.706 348.457 105.743 348.458 105.79C348.455 105.799 348.459 105.806 348.456 105.815L348.439 105.96C348.433 105.994 348.432 106.035 348.433 106.082C348.432 106.154 348.438 106.223 348.446 106.298C348.455 106.388 348.464 106.447 348.461 106.473C348.463 106.519 348.445 106.561 348.415 106.593C348.385 106.625 348.345 106.639 348.298 106.641C348.251 106.642 348.219 106.628 348.19 106.603C348.161 106.579 348.15 106.545 348.149 106.514C348.149 106.498 348.148 106.483 348.154 106.464C348.166 106.441 348.165 106.426 348.165 106.41Z" fill="white"/>
<path d="M348.163 104.994C348.168 104.944 348.114 104.918 348.023 104.911L347.362 104.911C347.258 104.911 347.206 104.947 347.209 105.025C347.208 105.097 347.238 105.137 347.284 105.136C347.3 105.135 347.322 105.131 347.353 105.13C347.384 105.129 347.406 105.125 347.422 105.125C347.557 105.124 347.627 105.181 347.625 105.294C347.63 105.347 347.612 105.388 347.572 105.418C347.539 105.444 347.492 105.461 347.43 105.463C347.408 105.467 347.373 105.462 347.323 105.457C347.282 105.455 347.248 105.45 347.216 105.451C347.201 105.452 347.163 105.456 347.104 105.464C347.067 105.468 347.035 105.469 347.013 105.473C346.948 105.469 346.915 105.439 346.91 105.37C346.906 105.333 346.914 105.289 346.915 105.232C346.926 105.106 346.93 104.937 346.929 104.715C346.929 104.493 346.923 104.32 346.913 104.199C346.908 104.146 346.906 104.099 346.905 104.067C346.906 103.995 346.936 103.963 347.009 103.964C347.03 103.96 347.065 103.965 347.109 103.973C347.153 103.981 347.184 103.98 347.21 103.982C347.235 103.985 347.272 103.98 347.319 103.979C347.382 103.977 347.419 103.972 347.431 103.966C347.488 103.967 347.535 103.981 347.568 104.011C347.6 104.042 347.617 104.088 347.619 104.135C347.616 104.248 347.552 104.306 347.417 104.308C347.402 104.308 347.377 104.306 347.342 104.301C347.307 104.295 347.292 104.296 347.273 104.29C347.216 104.289 347.189 104.327 347.191 104.39C347.193 104.437 347.2 104.465 347.226 104.483C347.251 104.501 347.289 104.512 347.346 104.513L348.007 104.514C348.101 104.511 348.15 104.484 348.148 104.437C348.148 104.422 348.15 104.397 348.14 104.363C348.135 104.325 348.131 104.303 348.131 104.288C348.128 104.194 348.177 104.151 348.264 104.152C348.383 104.151 348.448 104.212 348.445 104.324C348.447 104.371 348.442 104.422 348.435 104.481C348.428 104.572 348.421 104.648 348.421 104.72C348.416 104.786 348.428 104.867 348.434 104.951C348.442 105.01 348.447 105.064 348.443 105.114C348.443 105.233 348.392 105.285 348.273 105.285C348.169 105.286 348.121 105.24 348.124 105.143C348.124 105.127 348.126 105.102 348.131 105.068C348.161 105.035 348.164 105.01 348.163 104.994Z" fill="white"/>
<path d="M346.881 102.449C346.883 102.305 346.932 102.175 347.041 102.068C347.035 102.071 347.026 102.068 347.016 102.065C346.928 102.065 346.889 102.023 346.886 101.929C346.888 101.888 346.899 101.85 346.924 101.821C346.948 101.792 346.982 101.782 347.029 101.78C347.051 101.776 347.079 101.785 347.12 101.786C347.18 101.794 347.226 101.792 347.252 101.795C347.267 101.794 347.299 101.793 347.342 101.786C347.38 101.781 347.411 101.78 347.433 101.776C347.48 101.775 347.521 101.792 347.547 101.826C347.573 101.859 347.59 101.906 347.589 101.962C347.59 102.081 347.538 102.133 347.444 102.136L347.372 102.135C347.325 102.137 347.279 102.154 347.246 102.196C347.213 102.238 347.196 102.295 347.198 102.357C347.198 102.564 347.364 102.665 347.687 102.658C347.856 102.662 347.977 102.636 348.054 102.586C348.131 102.537 348.169 102.46 348.172 102.348C348.166 102.279 348.152 102.223 348.122 102.183C348.093 102.143 348.048 102.12 348.001 102.121L347.92 102.118C347.873 102.119 347.832 102.102 347.799 102.071C347.773 102.038 347.753 102.001 347.758 101.951C347.756 101.888 347.782 101.834 347.819 101.798C347.861 101.759 347.917 101.745 347.995 101.742C348.139 101.744 348.257 101.8 348.352 101.916C348.446 102.032 348.495 102.18 348.492 102.365C348.492 102.588 348.42 102.762 348.283 102.892C348.146 103.022 347.951 103.088 347.704 103.086C347.45 103.088 347.251 103.029 347.103 102.918C346.953 102.816 346.878 102.649 346.881 102.449Z" fill="white"/>
<path d="M347.971 100.522L347.969 100.826C347.969 100.913 348.023 100.955 348.126 100.955C348.152 100.958 348.161 100.945 348.163 100.92C348.16 100.913 348.162 100.904 348.159 100.882C348.158 100.866 348.151 100.854 348.154 100.845C348.156 100.788 348.201 100.755 348.292 100.762C348.339 100.76 348.381 100.778 348.41 100.802C348.439 100.826 348.459 100.863 348.457 100.904C348.461 100.926 348.453 100.97 348.44 101.048C348.434 101.083 348.433 101.124 348.431 101.18C348.433 101.243 348.435 101.29 348.439 101.327C348.451 101.408 348.453 101.455 348.453 101.471C348.455 101.518 348.437 101.559 348.413 101.588C348.383 101.62 348.343 101.634 348.296 101.636C348.192 101.636 348.138 101.594 348.135 101.516C348.132 101.509 348.138 101.49 348.137 101.475C348.143 101.456 348.142 101.44 348.139 101.434C348.138 101.403 348.124 101.378 348.093 101.363C348.083 101.361 348.061 101.349 348.01 101.329L347.107 101.013C347.006 100.973 346.939 100.937 346.912 100.888C346.895 100.857 346.887 100.782 346.889 100.669C346.892 100.541 346.895 100.459 346.91 100.428C346.924 100.396 346.97 100.363 347.048 100.345L348.025 100.047C348.099 100.023 348.143 99.9994 348.142 99.9681C348.144 99.9586 348.138 99.9463 348.137 99.915L348.139 99.8899C348.139 99.8021 348.188 99.7599 348.291 99.7596C348.338 99.7581 348.38 99.7756 348.412 99.8059C348.444 99.8361 348.458 99.8764 348.46 99.9233C348.457 99.9485 348.455 99.9736 348.45 100.008C348.442 100.052 348.439 100.077 348.44 100.093C348.435 100.128 348.436 100.175 348.438 100.222C348.437 100.278 348.441 100.315 348.445 100.337C348.457 100.418 348.464 100.462 348.462 100.487C348.46 100.528 348.446 100.56 348.412 100.586C348.378 100.612 348.338 100.626 348.291 100.627C348.197 100.63 348.156 100.597 348.157 100.541C348.16 100.531 348.163 100.522 348.162 100.506C348.162 100.49 348.164 100.481 348.167 100.472C348.166 100.44 348.15 100.425 348.119 100.426C348.078 100.424 348.044 100.435 348.019 100.448C347.986 100.474 347.974 100.497 347.971 100.522ZM347.625 100.558L347.153 100.67L347.643 100.811C347.643 100.811 347.652 100.814 347.658 100.811C347.674 100.81 347.689 100.794 347.685 100.756L347.686 100.612C347.688 100.572 347.678 100.553 347.653 100.551C347.653 100.551 347.647 100.554 347.625 100.558Z" fill="white"/>
<path d="M347.566 98.2578C347.599 98.3037 347.62 98.3719 347.645 98.4619C347.666 98.3547 347.695 98.2755 347.741 98.2271C347.786 98.1786 347.854 98.1576 347.948 98.1546C347.973 98.1569 348.005 98.1559 348.026 98.152L348.051 98.1544C348.114 98.1523 348.145 98.1357 348.15 98.1011C348.153 98.0916 348.146 98.0793 348.142 98.0575C348.138 98.0357 348.132 98.0233 348.135 98.0139C348.134 97.9826 348.152 97.9569 348.179 97.9341C348.21 97.9175 348.244 97.907 348.291 97.9054C348.338 97.9039 348.379 97.9214 348.411 97.9517C348.438 97.9853 348.457 98.0222 348.453 98.0725C348.453 98.0881 348.451 98.1133 348.446 98.1479C348.441 98.1825 348.438 98.2076 348.439 98.2233C348.439 98.2389 348.44 98.2702 348.445 98.3076C348.449 98.3451 348.453 98.3669 348.451 98.392C348.449 98.4484 348.426 98.4931 348.38 98.5259C348.334 98.5587 348.272 98.5763 348.194 98.5789C348.187 98.5822 348.184 98.576 348.181 98.5699L348.046 98.5711L348.03 98.5716C347.952 98.5741 347.9 98.5946 347.867 98.6364C347.833 98.6782 347.817 98.7508 347.817 98.8541C347.815 98.8949 347.832 98.9257 347.851 98.9313C347.864 98.9403 347.895 98.9393 347.936 98.9411L347.986 98.9458C348.09 98.9456 348.142 98.9251 348.144 98.8843C348.147 98.8748 348.143 98.853 348.133 98.8345C348.129 98.8127 348.125 98.7909 348.128 98.7814C348.127 98.7502 348.142 98.7184 348.173 98.7017C348.2 98.6789 348.234 98.6684 348.281 98.6669C348.394 98.6695 348.452 98.7177 348.449 98.8306C348.447 98.8713 348.446 98.9121 348.435 98.9814C348.428 99.0411 348.426 99.0975 348.428 99.1445C348.43 99.1914 348.432 99.254 348.44 99.3132C348.445 99.382 348.456 99.4317 348.448 99.4758C348.445 99.5887 348.388 99.6438 348.284 99.644C348.244 99.6422 348.206 99.6309 348.177 99.6068C348.148 99.5826 348.131 99.5518 348.13 99.5206C348.13 99.5049 348.135 99.4859 348.138 99.4608C348.14 99.4357 348.146 99.4167 348.148 99.4072C348.15 99.3664 348.099 99.3462 347.996 99.3464L347.36 99.3481C347.313 99.3496 347.282 99.3507 347.266 99.3512C347.229 99.3555 347.208 99.375 347.209 99.4063C347.209 99.4219 347.21 99.4376 347.214 99.4594C347.217 99.4812 347.221 99.503 347.218 99.5125C347.213 99.5471 347.205 99.5755 347.171 99.6017C347.144 99.6245 347.103 99.6383 347.063 99.6365C347.016 99.638 346.974 99.6206 346.942 99.5903C346.91 99.56 346.896 99.5197 346.894 99.4728C346.897 99.4633 346.894 99.4572 346.897 99.4477L346.914 99.2874C346.922 99.2433 346.92 99.1964 346.921 99.1399C346.922 99.0522 346.915 98.9366 346.904 98.7991C346.895 98.7086 346.896 98.6365 346.891 98.599C346.893 98.4549 346.927 98.3411 346.999 98.2542C347.072 98.1673 347.171 98.1296 347.296 98.1256C347.421 98.1371 347.507 98.1782 347.566 98.2578ZM347.21 98.7767C347.212 98.8392 347.217 98.8767 347.22 98.8985C347.237 98.9293 347.272 98.9501 347.319 98.9485L347.454 98.9473C347.485 98.9463 347.513 98.9391 347.525 98.9325C347.534 98.9197 347.54 98.9007 347.539 98.8694C347.542 98.6688 347.479 98.5675 347.363 98.5744C347.257 98.5684 347.206 98.6359 347.21 98.7767Z" fill="white"/>
<path d="M348.155 97.5653C348.156 97.5245 348.099 97.5076 347.996 97.5078L347.36 97.5096C347.257 97.5098 347.204 97.5303 347.209 97.5677C347.209 97.5834 347.21 97.599 347.214 97.6208C347.217 97.6426 347.221 97.6644 347.222 97.6801C347.223 97.7113 347.208 97.7431 347.175 97.7693C347.147 97.7921 347.113 97.8026 347.066 97.8041C347.013 97.809 346.972 97.7915 346.946 97.7579C346.913 97.7276 346.899 97.6873 346.898 97.6404C346.9 97.6153 346.902 97.5589 346.915 97.4801C346.919 97.4299 346.921 97.3734 346.925 97.3232C346.925 97.3075 346.923 97.2606 346.918 97.1919L346.906 97.0231C346.905 96.9762 346.897 96.9326 346.899 96.8918C346.899 96.613 347.015 96.4151 347.246 96.298C347.375 96.228 347.518 96.1984 347.669 96.1966C347.819 96.1949 347.964 96.2278 348.085 96.2897C348.216 96.3543 348.309 96.439 348.366 96.5437C348.419 96.6422 348.444 96.7479 348.446 96.8825C348.441 96.9328 348.443 96.9797 348.441 97.0205L348.427 97.1869C348.422 97.2215 348.424 97.2685 348.425 97.3154C348.427 97.378 348.429 97.4249 348.436 97.4685L348.446 97.559C348.45 97.5965 348.454 97.6183 348.451 97.6278C348.446 97.678 348.435 97.716 348.405 97.7483C348.375 97.7806 348.334 97.7944 348.287 97.7959C348.247 97.7941 348.209 97.7828 348.18 97.7587C348.151 97.7346 348.134 97.7038 348.139 97.6692C348.139 97.6535 348.144 97.6346 348.147 97.6094C348.146 97.5938 348.152 97.5748 348.155 97.5653ZM347.196 96.9699C347.191 97.0202 347.202 97.0543 347.221 97.0756C347.237 97.0907 347.266 97.0992 347.316 97.1038L348.039 97.1024C348.086 97.1008 348.12 97.0903 348.136 97.0742C348.157 97.0547 348.162 97.0201 348.16 96.9732C348.164 96.8916 348.13 96.8144 348.062 96.7477C347.982 96.672 347.864 96.6319 347.705 96.6308C347.529 96.6302 347.393 96.6722 347.308 96.7502C347.271 96.7858 347.244 96.8243 347.227 96.8655C347.203 96.8945 347.198 96.9291 347.196 96.9699Z" fill="white"/>
<path d="M350.822 115.16C350.825 114.856 351.067 114.613 351.368 114.61L355.242 114.607C355.543 114.603 355.789 114.852 355.786 115.156L355.794 118.98C355.797 119.281 355.548 119.527 355.248 119.53L351.374 119.533C351.073 119.537 350.827 119.288 350.823 118.987L350.822 115.16Z" fill="#F3F7F8"/>
<path d="M355.793 116.052L355.792 116.227L350.825 116.24L350.826 116.065L355.793 116.052Z" fill="#24447C"/>
<path d="M355.795 116.982L355.794 117.157L350.83 117.161L350.831 116.986L355.795 116.982Z" fill="#24447C"/>
<path d="M355.8 117.902L355.799 118.078L350.829 118.085L350.829 117.91L355.8 117.902Z" fill="#24447C"/>
<path d="M354.31 119.53L354.306 117.913L354.131 117.913L354.135 119.53L354.31 119.53Z" fill="#24447C"/>
<path d="M352.496 119.533L352.494 117.916L352.319 117.916L352.321 119.533L352.496 119.533Z" fill="#24447C"/>
<path d="M354.296 114.609L354.302 116.222L354.126 116.221L354.121 114.609L354.296 114.609Z" fill="#24447C"/>
<path d="M352.498 116.225L352.494 114.608L352.319 114.608L352.323 116.225L352.498 116.225Z" fill="#24447C"/>
<path d="M263.478 3.48744C263.478 2.16019 262.4 1.10254 261.093 1.10254H249.355C248.484 1.10254 247.675 1.57952 247.261 2.34684L245.975 4.66952C245.56 5.43684 244.751 5.91382 243.88 5.91382H215.738C214.411 5.91382 213.354 6.99221 213.354 8.29872V52.5127C213.354 53.84 214.432 54.8976 215.738 54.8976H272.001C273.329 54.8976 274.386 53.8193 274.386 52.5127V8.27798C274.386 6.95073 273.308 5.89308 272.001 5.89308H265.863C264.556 5.89308 263.478 4.81469 263.478 3.48744Z" fill="#00549D"/>
<path d="M244.979 19.8498L238.945 29.2442C238.447 30.0323 237.679 30.4885 236.85 30.4885H211.446C209.932 30.4885 208.978 31.9817 209.31 33.7859L212.856 52.3259C213.125 53.7569 214.411 54.8975 215.738 54.8975H272.001C273.329 54.8975 274.614 53.7569 274.884 52.3259L280.67 22.1932C281.064 20.1401 280.069 18.4603 278.451 18.4603H247.261C246.369 18.4603 245.539 18.958 244.979 19.8498Z" fill="#3276CF"/>
<path d="M302 1.56558L300.434 0L294.006 6.42887L287.566 0L286 1.56558L292.429 8.00555L286 14.4344L287.566 16L294.006 9.57113L300.434 16L302 14.4344L295.571 8.00555L302 1.56558Z" fill="#424E5A"/>
<path d="M302 22.5656L300.434 21L294.006 27.4289L287.566 21L286 22.5656L292.429 29.0056L286 35.4344L287.566 37L294.006 30.5711L300.434 37L302 35.4344L295.571 29.0056L302 22.5656Z" fill="#3276CF"/>
<path d="M302 43.5656L300.434 42L294.006 48.4289L287.566 42L286 43.5656L292.429 50.0056L286 56.4344L287.566 58L294.006 51.5711L300.434 58L302 56.4344L295.571 50.0056L302 43.5656Z" fill="#00549D"/>
<g opacity="0.7">
<path d="M15.375 137H8.625C5.51888 137 3 139.519 3 142.625V149.375C3 152.481 5.51888 155 8.625 155H15.375C18.4811 155 21 152.481 21 149.375V142.625C21 139.519 18.4811 137 15.375 137ZM19.3125 149.375C19.3125 151.546 17.5463 153.312 15.375 153.312H8.625C6.45375 153.312 4.6875 151.546 4.6875 149.375V142.625C4.6875 140.454 6.45375 138.688 8.625 138.688H15.375C17.5463 138.688 19.3125 140.454 19.3125 142.625V149.375Z" fill="white"/>
<path d="M12 141.5C9.51487 141.5 7.5 143.515 7.5 146C7.5 148.485 9.51487 150.5 12 150.5C14.4851 150.5 16.5 148.485 16.5 146C16.5 143.515 14.4851 141.5 12 141.5ZM12 148.812C10.4497 148.812 9.1875 147.55 9.1875 146C9.1875 144.449 10.4497 143.188 12 143.188C13.5503 143.188 14.8125 144.449 14.8125 146C14.8125 147.55 13.5503 148.812 12 148.812Z" fill="white"/>
<path d="M16.8375 141.762C17.1687 141.762 17.4371 141.494 17.4371 141.162C17.4371 140.831 17.1687 140.563 16.8375 140.563C16.5063 140.563 16.2379 140.831 16.2379 141.162C16.2379 141.494 16.5063 141.762 16.8375 141.762Z" fill="white"/>
<path d="M62.5743 137H49.4255C48.086 137 47 138.086 47 139.426V152.574C47 153.914 48.0859 155 49.4255 155H55.9104L55.9215 148.568H54.2504C54.0332 148.568 53.857 148.392 53.8561 148.175L53.8481 146.102C53.8473 145.883 54.0241 145.706 54.2424 145.706H55.9105V143.702C55.9105 141.377 57.3304 140.112 59.4044 140.112H61.1062C61.324 140.112 61.5006 140.288 61.5006 140.506V142.254C61.5006 142.472 61.3241 142.648 61.1065 142.648L60.0621 142.649C58.9342 142.649 58.7158 143.185 58.7158 143.971V145.706H61.1941C61.4303 145.706 61.6135 145.912 61.5857 146.147L61.3399 148.22C61.3164 148.418 61.1482 148.568 60.9484 148.568H58.7268L58.7158 155H62.5744C63.9139 155 64.9999 153.914 64.9999 152.575V139.426C64.9998 138.086 63.9139 137 62.5743 137Z" fill="white"/>
<path fill-rule="evenodd" clip-rule="evenodd" d="M106.392 154.908C107.832 154.908 108.999 153.74 108.999 152.301V139.699C108.999 138.26 107.832 137.092 106.392 137.092H93.6997C92.26 137.092 91.0928 138.26 91.0928 139.699V152.301C91.0928 153.74 92.2599 154.908 93.6997 154.908H106.392ZM96.7893 142.937C96.7893 141.144 98.2429 139.69 100.036 139.69C101.829 139.69 103.283 141.144 103.283 142.937C103.283 144.73 101.829 146.184 100.036 146.184C98.2429 146.184 96.7893 144.73 96.7893 142.937ZM98.6939 142.937C98.6939 143.678 99.2947 144.279 100.036 144.279C100.777 144.279 101.378 143.678 101.378 142.937C101.378 142.196 100.777 141.595 100.036 141.595C99.2947 141.595 98.6939 142.196 98.6939 142.937ZM103.302 147.854C103.261 147.887 102.482 148.502 101.182 148.767L103.144 150.711C103.489 151.056 103.489 151.615 103.145 151.96C102.801 152.305 102.242 152.305 101.897 151.961L99.9919 150.106L98.2619 151.949C98.0887 152.129 97.8576 152.219 97.6263 152.219C97.4057 152.219 97.1849 152.137 97.0136 151.972C96.6627 151.633 96.6525 151.074 96.9909 150.723L98.8531 148.777C97.517 148.519 96.7059 147.887 96.6642 147.854C96.2838 147.549 96.2227 146.993 96.5277 146.613C96.8327 146.232 97.3883 146.171 97.7687 146.476C97.7767 146.483 98.625 147.12 99.9918 147.121C101.359 147.12 102.189 146.483 102.197 146.476C102.578 146.171 103.133 146.232 103.438 146.613C103.743 146.993 103.682 147.549 103.302 147.854Z" fill="white"/>
<path fill-rule="evenodd" clip-rule="evenodd" d="M150.226 137H137.774C136.242 137 135 138.242 135 139.774V152.226C135 153.758 136.242 155 137.774 155H150.226C151.758 155 153 153.758 153 152.226V139.774C153 138.242 151.758 137 150.226 137ZM144.585 149.601H143.849C143.849 149.601 142.224 149.698 140.794 148.209C139.233 146.584 137.855 143.36 137.855 143.36C137.855 143.36 137.776 143.149 137.862 143.046C137.959 142.931 138.223 142.924 138.223 142.924L139.984 142.913C139.984 142.913 140.149 142.94 140.268 143.027C140.366 143.099 140.421 143.234 140.421 143.234C140.421 143.234 140.705 143.953 141.082 144.604C141.817 145.875 142.16 146.153 142.409 146.017C142.773 145.818 142.664 144.22 142.664 144.22C142.664 144.22 142.671 143.641 142.481 143.382C142.334 143.182 142.057 143.124 141.934 143.107C141.835 143.094 141.998 142.864 142.209 142.761C142.525 142.606 143.085 142.597 143.746 142.604C144.26 142.609 144.409 142.641 144.61 142.69C145.077 142.803 145.063 143.164 145.031 143.944C145.022 144.177 145.011 144.447 145.011 144.76C145.011 144.83 145.009 144.905 145.007 144.982C144.996 145.381 144.983 145.838 145.246 146.008C145.381 146.095 145.711 146.021 146.536 144.621C146.927 143.957 147.22 143.176 147.22 143.176C147.22 143.176 147.284 143.037 147.383 142.978C147.485 142.917 147.622 142.936 147.622 142.936L149.475 142.924C149.475 142.924 150.031 142.858 150.121 143.109C150.216 143.373 149.913 143.988 149.157 144.997C148.438 145.955 148.089 146.307 148.122 146.619C148.146 146.846 148.372 147.052 148.807 147.456C149.719 148.302 149.962 148.746 150.02 148.852C150.025 148.86 150.028 148.867 150.031 148.871C150.439 149.547 149.578 149.601 149.578 149.601L147.933 149.624C147.933 149.624 147.58 149.693 147.114 149.374C146.871 149.207 146.633 148.934 146.407 148.675C146.06 148.277 145.74 147.91 145.467 147.997C145.008 148.142 145.023 149.13 145.023 149.13C145.023 149.13 145.026 149.341 144.921 149.454C144.808 149.576 144.585 149.601 144.585 149.601Z" fill="white"/>
</g>
<path d="M15.375 166H8.625C5.51888 166 3 168.519 3 171.625V178.375C3 181.481 5.51888 184 8.625 184H15.375C18.4811 184 21 181.481 21 178.375V171.625C21 168.519 18.4811 166 15.375 166ZM19.3125 178.375C19.3125 180.546 17.5463 182.312 15.375 182.312H8.625C6.45375 182.312 4.6875 180.546 4.6875 178.375V171.625C4.6875 169.454 6.45375 167.688 8.625 167.688H15.375C17.5463 167.688 19.3125 169.454 19.3125 171.625V178.375Z" fill="white"/>
<path d="M12 170.5C9.51487 170.5 7.5 172.515 7.5 175C7.5 177.485 9.51487 179.5 12 179.5C14.4851 179.5 16.5 177.485 16.5 175C16.5 172.515 14.4851 170.5 12 170.5ZM12 177.812C10.4497 177.812 9.1875 176.55 9.1875 175C9.1875 173.449 10.4497 172.188 12 172.188C13.5503 172.188 14.8125 173.449 14.8125 175C14.8125 176.55 13.5503 177.812 12 177.812Z" fill="white"/>
<path d="M16.8375 170.762C17.1687 170.762 17.4371 170.494 17.4371 170.162C17.4371 169.831 17.1687 169.563 16.8375 169.563C16.5063 169.563 16.2379 169.831 16.2379 170.162C16.2379 170.494 16.5063 170.762 16.8375 170.762Z" fill="white"/>
<path d="M62.5743 166H49.4255C48.086 166 47 167.086 47 168.426V181.574C47 182.914 48.0859 184 49.4255 184H55.9104L55.9215 177.568H54.2504C54.0332 177.568 53.857 177.392 53.8561 177.175L53.8481 175.102C53.8473 174.883 54.0241 174.706 54.2424 174.706H55.9105V172.702C55.9105 170.377 57.3304 169.112 59.4044 169.112H61.1062C61.324 169.112 61.5006 169.288 61.5006 169.506V171.254C61.5006 171.472 61.3241 171.648 61.1065 171.648L60.0621 171.649C58.9342 171.649 58.7158 172.185 58.7158 172.971V174.706H61.1941C61.4303 174.706 61.6135 174.912 61.5857 175.147L61.3399 177.22C61.3164 177.418 61.1482 177.568 60.9484 177.568H58.7268L58.7158 184H62.5744C63.9139 184 64.9999 182.914 64.9999 181.575V168.426C64.9998 167.086 63.9139 166 62.5743 166Z" fill="white"/>
<path fill-rule="evenodd" clip-rule="evenodd" d="M106.392 183.908C107.832 183.908 108.999 182.74 108.999 181.301V168.699C108.999 167.26 107.832 166.092 106.392 166.092H93.6997C92.26 166.092 91.0928 167.26 91.0928 168.699V181.301C91.0928 182.74 92.2599 183.908 93.6997 183.908H106.392ZM96.7893 171.937C96.7893 170.144 98.2429 168.69 100.036 168.69C101.829 168.69 103.283 170.144 103.283 171.937C103.283 173.73 101.829 175.184 100.036 175.184C98.2429 175.184 96.7893 173.73 96.7893 171.937ZM98.6939 171.937C98.6939 172.678 99.2947 173.279 100.036 173.279C100.777 173.279 101.378 172.678 101.378 171.937C101.378 171.196 100.777 170.595 100.036 170.595C99.2947 170.595 98.6939 171.196 98.6939 171.937ZM103.302 176.854C103.261 176.887 102.482 177.502 101.182 177.767L103.144 179.711C103.489 180.056 103.489 180.615 103.145 180.96C102.801 181.305 102.242 181.305 101.897 180.961L99.9919 179.106L98.2619 180.949C98.0887 181.129 97.8576 181.219 97.6263 181.219C97.4057 181.219 97.1849 181.137 97.0136 180.972C96.6627 180.633 96.6525 180.074 96.9909 179.723L98.8531 177.777C97.517 177.519 96.7059 176.887 96.6642 176.854C96.2838 176.549 96.2227 175.993 96.5277 175.613C96.8327 175.232 97.3883 175.171 97.7687 175.476C97.7767 175.483 98.625 176.12 99.9918 176.121C101.359 176.12 102.189 175.483 102.197 175.476C102.578 175.171 103.133 175.232 103.438 175.613C103.743 175.993 103.682 176.549 103.302 176.854Z" fill="white"/>
<path fill-rule="evenodd" clip-rule="evenodd" d="M150.226 166H137.774C136.242 166 135 167.242 135 168.774V181.226C135 182.758 136.242 184 137.774 184H150.226C151.758 184 153 182.758 153 181.226V168.774C153 167.242 151.758 166 150.226 166ZM144.585 178.601H143.849C143.849 178.601 142.224 178.698 140.794 177.209C139.233 175.584 137.855 172.36 137.855 172.36C137.855 172.36 137.776 172.149 137.862 172.046C137.959 171.931 138.223 171.924 138.223 171.924L139.984 171.913C139.984 171.913 140.149 171.94 140.268 172.027C140.366 172.099 140.421 172.234 140.421 172.234C140.421 172.234 140.705 172.953 141.082 173.604C141.817 174.875 142.16 175.153 142.409 175.017C142.773 174.818 142.664 173.22 142.664 173.22C142.664 173.22 142.671 172.641 142.481 172.382C142.334 172.182 142.057 172.124 141.934 172.107C141.835 172.094 141.998 171.864 142.209 171.761C142.525 171.606 143.085 171.597 143.746 171.604C144.26 171.609 144.409 171.641 144.61 171.69C145.077 171.803 145.063 172.164 145.031 172.944C145.022 173.177 145.011 173.447 145.011 173.76C145.011 173.83 145.009 173.905 145.007 173.982C144.996 174.381 144.983 174.838 145.246 175.008C145.381 175.095 145.711 175.021 146.536 173.621C146.927 172.957 147.22 172.176 147.22 172.176C147.22 172.176 147.284 172.037 147.383 171.978C147.485 171.917 147.622 171.936 147.622 171.936L149.475 171.924C149.475 171.924 150.031 171.858 150.121 172.109C150.216 172.373 149.913 172.988 149.157 173.997C148.438 174.955 148.089 175.307 148.122 175.619C148.146 175.846 148.372 176.052 148.807 176.456C149.719 177.302 149.962 177.746 150.02 177.852C150.025 177.86 150.028 177.867 150.031 177.871C150.439 178.547 149.578 178.601 149.578 178.601L147.933 178.624C147.933 178.624 147.58 178.693 147.114 178.374C146.871 178.207 146.633 177.934 146.407 177.675C146.06 177.277 145.74 176.91 145.467 176.997C145.008 177.142 145.023 178.13 145.023 178.13C145.023 178.13 145.026 178.341 144.921 178.454C144.808 178.576 144.585 178.601 144.585 178.601Z" fill="white"/>
<defs>
<clipPath id="clip0">
<rect width="70" height="70" fill="white" transform="translate(0 59)"/>
</clipPath>
<clipPath id="clip1">
<rect width="70" height="70" fill="white" transform="translate(80 59)"/>
</clipPath>
</defs>
</svg>
