<?xml version="1.0" standalone="no"?>
<!DOCTYPE svg PUBLIC "-//W3C//DTD SVG 20010904//EN"
 "http://www.w3.org/TR/2001/REC-SVG-20010904/DTD/svg10.dtd">
<svg version="1.0" xmlns="http://www.w3.org/2000/svg"
 width="700.000000pt" height="700.000000pt" viewBox="0 0 700.000000 700.000000"
 preserveAspectRatio="xMidYMid meet">
<metadata>
Created by potrace 1.11, written by Peter Selinger 2001-2013
</metadata>
<g transform="translate(0.000000,700.000000) scale(0.100000,-0.100000)"
fill="#000000" stroke="none">
<path d="M3030 6984 c-128 -27 -220 -82 -340 -203 -196 -197 -322 -466 -368
-781 -9 -62 -9 -385 1 -440 20 -122 30 -169 58 -263 17 -56 35 -106 40 -111 5
-6 9 -18 9 -27 0 -48 284 -549 311 -549 12 0 57 125 73 201 29 145 38 363 23
579 -23 332 -22 370 12 370 54 0 103 -108 137 -300 3 -14 16 -80 19 -90 0 -3
4 -22 8 -42 13 -62 24 -50 60 62 19 57 54 228 62 300 4 30 8 66 10 80 2 14 7
54 10 90 6 70 13 128 21 175 14 78 31 105 65 105 37 0 56 -36 65 -126 9 -83 9
-110 0 -416 -4 -152 -3 -238 3 -238 12 0 63 109 126 265 26 66 51 129 55 140
5 11 32 75 59 142 56 135 103 218 128 228 11 4 23 -2 35 -17 40 -52 3 -270
-97 -573 -75 -227 -92 -299 -74 -310 16 -10 44 20 98 104 52 82 60 94 159 271
93 165 146 244 189 279 63 52 103 38 103 -35 0 -81 -56 -226 -219 -571 -145
-308 -208 -486 -218 -619 -4 -59 -2 -73 12 -88 36 -35 113 -9 255 89 88 61
177 93 270 100 78 5 124 -6 157 -37 25 -23 32 -76 11 -82 -117 -36 -235 -96
-292 -148 -11 -10 -23 -18 -27 -18 -4 0 -14 -6 -21 -13 -7 -7 -57 -45 -111
-83 -103 -74 -212 -133 -302 -164 -70 -24 -232 -58 -320 -66 -38 -4 -80 -10
-93 -13 -23 -6 -23 -8 20 -46 80 -73 160 -140 181 -151 25 -14 33 -11 307 124
255 126 328 165 535 288 217 129 364 240 496 375 352 358 486 837 340 1215
-104 268 -368 465 -646 481 -191 12 -339 -43 -471 -172 -41 -41 -77 -75 -79
-75 -4 0 -12 34 -21 85 -18 107 -82 294 -132 385 -98 179 -243 297 -413 336
-55 13 -217 12 -279 -2z"/>
<path d="M1245 5229 c-105 -14 -162 -29 -243 -66 -192 -88 -346 -268 -412
-482 -76 -243 -24 -473 147 -652 42 -43 69 -79 62 -80 -37 -2 -152 -30 -249
-61 -65 -20 -231 -95 -240 -108 -3 -4 -14 -12 -26 -18 -68 -36 -176 -153 -217
-234 -49 -100 -60 -147 -62 -271 -2 -89 2 -136 16 -190 42 -164 162 -323 339
-450 36 -26 70 -51 76 -56 27 -22 226 -111 299 -134 91 -29 202 -53 290 -63
111 -13 303 -8 400 10 61 11 103 19 123 22 63 12 275 89 365 133 155 76 427
249 427 272 0 9 -151 64 -200 73 -19 3 -46 8 -59 11 -121 23 -487 23 -666 -1
-52 -7 -162 -6 -184 1 -11 3 -21 12 -21 19 0 25 43 68 86 86 34 15 205 56 352
86 26 5 29 29 5 37 -200 60 -329 88 -484 102 -161 14 -263 32 -302 51 -38 20
-34 61 9 86 51 30 169 35 529 23 196 -7 209 -6 195 10 -7 9 -43 30 -79 46 -68
31 -109 49 -386 165 -170 71 -269 124 -285 153 -15 30 20 53 84 56 47 2 86 -3
206 -30 62 -13 159 -42 300 -90 218 -74 279 -88 287 -69 11 29 -52 75 -359
258 -223 132 -294 189 -304 242 -9 49 7 63 64 59 88 -7 220 -60 552 -222 102
-50 210 -102 240 -116 61 -27 223 -83 261 -91 13 -2 35 -7 49 -10 56 -14 115
-14 138 0 44 28 22 105 -70 249 -80 125 -108 209 -109 319 -1 101 36 163 93
154 17 -2 27 -19 47 -79 31 -91 69 -158 164 -292 142 -200 185 -275 227 -397
23 -69 57 -230 67 -320 3 -30 7 -62 9 -70 1 -8 3 -28 3 -45 l1 -30 36 40 c89
100 164 199 164 217 0 36 -250 558 -365 763 -38 66 -73 129 -79 140 -26 48
-130 201 -187 276 -69 90 -198 225 -274 286 -263 211 -580 316 -850 282z"/>
<path d="M5607 4644 c-1 -1 -36 -4 -77 -7 -208 -16 -420 -80 -640 -193 -140
-71 -370 -223 -370 -244 0 -5 15 -14 33 -20 114 -43 112 -43 177 -55 14 -3 36
-7 50 -10 108 -23 407 -23 655 0 102 10 184 8 199 -4 26 -22 -4 -71 -58 -96
-30 -14 -192 -58 -251 -69 -16 -3 -45 -8 -64 -11 -55 -11 -85 -25 -75 -35 10
-10 184 -64 239 -74 17 -3 44 -8 60 -11 17 -3 44 -8 60 -10 17 -2 46 -7 65 -9
19 -3 60 -8 90 -11 30 -3 71 -8 90 -10 19 -3 55 -7 80 -10 69 -9 118 -24 135
-42 26 -25 14 -56 -30 -78 -38 -19 -58 -20 -382 -18 -189 1 -343 -2 -343 -7 0
-12 133 -74 365 -170 259 -107 332 -142 373 -180 44 -41 19 -72 -61 -76 -93
-4 -246 33 -544 132 -73 24 -160 50 -193 58 -57 13 -60 13 -60 -4 0 -30 66
-78 308 -223 232 -138 323 -201 341 -236 6 -10 13 -32 16 -49 4 -25 1 -34 -15
-42 -54 -29 -215 28 -570 202 -342 168 -533 238 -658 241 -71 2 -82 -6 -82
-64 0 -38 41 -126 99 -211 69 -102 101 -205 98 -317 -3 -84 -22 -127 -63 -137
-39 -10 -51 1 -74 73 -23 71 -69 159 -119 228 -201 279 -263 397 -307 585 -8
35 -17 80 -19 100 -3 19 -7 45 -10 58 -4 21 -16 140 -18 170 0 6 -2 12 -3 12
-4 0 -204 -240 -204 -245 0 -16 145 -327 255 -547 195 -390 356 -631 544 -818
116 -115 131 -128 235 -195 95 -62 161 -96 248 -129 486 -182 948 -5 1116 429
43 112 53 169 48 293 -6 174 -57 292 -178 416 -37 39 -66 71 -65 71 1 1 45 12
97 25 245 58 400 131 522 247 88 84 154 202 173 308 13 70 12 208 -2 280 -45
243 -292 496 -613 628 -81 33 -213 74 -269 83 -14 2 -35 6 -46 9 -48 10 -299
26 -308 19z"/>
<path d="M3430 3060 c-38 -11 -477 -228 -632 -313 -362 -199 -632 -407 -786
-605 -116 -149 -230 -381 -258 -526 -21 -110 -23 -127 -24 -238 -2 -157 21
-258 87 -387 66 -129 143 -215 267 -298 133 -90 275 -129 434 -120 164 9 286
67 406 193 l62 63 12 -62 c20 -96 20 -99 46 -188 68 -235 195 -417 351 -504
58 -33 83 -42 159 -62 44 -12 204 -11 266 1 127 24 234 88 357 213 171 174
284 399 343 683 25 119 36 371 21 480 -5 36 -12 83 -15 105 -25 194 -151 505
-292 727 -82 129 -116 171 -125 156 -32 -49 -74 -207 -87 -323 -9 -84 -8 -369
2 -495 11 -146 16 -289 9 -306 -9 -23 -43 -16 -72 15 -35 38 -72 162 -105 356
-22 126 -34 118 -82 -55 -34 -121 -55 -252 -79 -510 -11 -107 -36 -194 -59
-203 -7 -3 -24 0 -37 7 -53 26 -63 163 -45 644 3 77 1 132 -5 132 -15 0 -64
-107 -170 -372 -116 -289 -146 -353 -184 -388 l-27 -25 -19 24 c-48 59 -16
242 115 649 56 172 66 216 55 233 -19 31 -91 -68 -229 -316 -146 -261 -193
-328 -247 -351 -41 -18 -48 -17 -67 2 -15 14 -15 28 -1 109 4 27 31 103 67
195 34 85 50 121 142 312 140 291 207 483 222 631 8 76 -9 97 -70 92 -45 -4
-70 -16 -184 -89 -121 -79 -195 -106 -300 -111 -93 -5 -156 24 -166 78 -6 32
4 40 74 62 62 19 150 67 226 123 277 201 326 231 453 276 73 26 129 41 197 52
20 3 45 7 56 9 11 3 45 7 76 11 30 3 63 8 71 9 9 2 25 4 36 4 22 1 -9 33 -131
136 -85 72 -86 73 -114 65z"/>
</g>
</svg>
