<?xml version="1.0" standalone="no"?>
<!DOCTYPE svg PUBLIC "-//W3C//DTD SVG 20010904//EN"
 "http://www.w3.org/TR/2001/REC-SVG-20010904/DTD/svg10.dtd">
<svg version="1.0" xmlns="http://www.w3.org/2000/svg"
 width="700.000000pt" height="700.000000pt" viewBox="0 0 700.000000 700.000000"
 preserveAspectRatio="xMidYMid meet">
<metadata>
Created by potrace 1.14, written by Peter Selinger 2001-2017
</metadata>
<g transform="translate(0.000000,700.000000) scale(0.100000,-0.100000)"
fill="#000000" stroke="none">
<path d="M3132 6989 c-61 -10 -161 -54 -229 -99 -74 -50 -213 -196 -271 -285
-123 -188 -203 -410 -229 -635 -14 -125 -7 -374 12 -465 53 -244 118 -418 232
-619 49 -85 167 -261 182 -270 23 -15 85 200 99 344 8 84 8 327 -1 455 -23
332 -22 345 16 345 42 0 79 -62 111 -186 8 -33 17 -71 19 -85 18 -101 42 -199
50 -199 17 0 73 178 91 293 3 20 8 52 11 70 8 47 14 94 21 162 16 157 33 265
45 290 19 38 51 49 77 25 38 -35 45 -127 38 -448 -4 -162 -8 -299 -9 -304 -5
-26 20 -15 35 14 23 43 78 167 78 174 0 3 9 24 19 47 10 23 46 110 79 192 70
175 87 213 125 277 31 52 54 65 75 44 53 -53 17 -262 -113 -651 -56 -164 -70
-230 -54 -240 25 -16 80 60 218 298 50 87 91 160 91 163 0 3 23 40 51 82 44
66 102 130 119 133 3 0 14 2 24 4 64 12 72 -51 25 -187 -40 -117 -75 -199
-196 -453 -145 -304 -207 -477 -220 -613 -5 -51 -2 -66 12 -82 37 -41 91 -24
247 75 121 77 211 109 313 109 85 1 139 -22 154 -64 13 -38 -1 -54 -69 -75
-105 -34 -151 -62 -354 -212 -160 -118 -346 -207 -477 -227 -20 -3 -42 -7 -50
-10 -8 -3 -34 -7 -59 -11 -25 -3 -76 -10 -115 -15 -38 -5 -77 -10 -85 -10 -16
0 -5 -10 142 -135 l88 -74 40 14 c45 16 553 266 645 318 462 260 678 439 858
710 94 142 155 292 192 472 15 70 17 232 5 314 -48 329 -300 598 -618 660 -79
15 -219 12 -292 -6 -109 -28 -214 -94 -304 -190 -23 -24 -43 -43 -47 -43 -3 0
-12 33 -19 73 -16 94 -79 286 -120 367 -91 180 -231 307 -390 355 -65 19 -243
27 -318 14z"/>
<path d="M1245 5228 c-266 -35 -487 -195 -608 -444 -94 -191 -96 -435 -4 -604
34 -63 89 -134 131 -169 66 -57 67 -54 -20 -73 -267 -59 -465 -156 -588 -289
-104 -112 -147 -224 -151 -392 -5 -223 58 -365 238 -539 269 -260 679 -391
1112 -355 299 25 635 160 938 375 42 31 77 58 77 61 0 11 -111 52 -194 72
-150 36 -469 42 -736 14 -64 -7 -188 -7 -199 0 -16 10 -13 39 7 62 31 36 102
63 247 94 33 7 62 13 65 14 3 1 28 5 57 9 28 4 59 13 69 20 15 11 10 15 -37
34 -73 28 -131 43 -264 68 -70 13 -134 21 -310 40 -172 18 -228 39 -223 82 8
70 107 82 561 67 135 -5 217 -4 217 2 0 10 -89 56 -190 98 -36 15 -78 33 -95
40 -16 7 -91 38 -165 68 -180 74 -258 112 -298 145 -33 28 -33 28 -15 51 15
18 30 23 78 25 32 2 74 0 94 -5 20 -4 52 -11 71 -14 58 -10 174 -43 385 -112
110 -36 210 -65 223 -65 50 -1 46 19 -14 66 -59 45 -105 74 -384 238 -169 100
-226 146 -239 195 -17 60 4 78 75 67 43 -6 163 -43 179 -54 6 -4 37 -17 70
-30 33 -13 155 -69 270 -126 271 -132 415 -190 540 -219 60 -14 71 -16 115
-20 118 -10 119 80 2 252 -52 77 -77 127 -96 194 -45 153 -11 295 67 287 27
-3 32 -10 61 -93 36 -99 52 -125 216 -355 124 -174 193 -334 225 -525 9 -53
13 -82 21 -141 4 -33 8 -63 9 -69 1 -5 3 -19 4 -30 1 -18 3 -18 14 -4 11 14
78 93 121 143 56 64 68 86 62 111 -10 41 -260 558 -338 700 -65 118 -220 368
-238 385 -3 3 -31 39 -62 80 -107 140 -244 271 -381 363 -113 75 -303 162
-398 181 -107 22 -148 27 -225 29 -49 2 -116 -1 -149 -5z"/>
<path d="M5717 4644 c-1 -1 -37 -5 -80 -8 -286 -22 -629 -162 -946 -386 -72
-50 -71 -54 28 -90 170 -64 460 -79 846 -45 91 8 188 6 198 -4 7 -7 8 -20 1
-38 -15 -44 -141 -96 -289 -120 -16 -3 -34 -6 -40 -8 -29 -6 -82 -17 -100 -19
-11 -2 -21 -10 -23 -18 -2 -10 22 -22 85 -41 149 -46 264 -66 528 -92 160 -16
225 -39 225 -79 0 -12 -8 -30 -17 -38 -37 -33 -110 -38 -440 -33 -178 3 -323
1 -323 -4 0 -11 181 -95 358 -165 78 -32 154 -64 170 -72 15 -7 30 -14 34 -14
21 0 161 -75 189 -101 l32 -30 -21 -21 c-53 -53 -287 -9 -682 127 -100 35
-185 54 -199 46 -31 -19 83 -101 374 -270 234 -136 289 -181 301 -244 13 -76
-85 -69 -301 20 -84 35 -135 59 -340 158 -285 138 -472 205 -613 220 -91 9
-115 -41 -68 -142 14 -29 43 -80 66 -113 23 -34 53 -86 66 -115 79 -172 55
-375 -42 -363 -24 3 -30 12 -55 83 -15 45 -40 101 -54 125 -26 45 -40 65 -165
240 -161 226 -217 387 -254 738 -2 18 -5 35 -7 37 -7 6 -183 -204 -193 -230
-7 -18 7 -58 79 -211 94 -204 223 -459 300 -594 51 -90 224 -358 247 -381 7
-8 29 -34 49 -59 139 -170 329 -322 514 -410 333 -158 676 -152 930 15 285
188 420 551 316 849 -34 95 -103 196 -181 261 -41 34 -41 35 -18 43 13 5 74
21 137 37 115 27 264 83 313 117 14 10 29 18 33 18 15 0 125 92 168 141 47 53
103 156 128 234 18 56 20 229 4 314 -53 276 -371 559 -755 672 -86 26 -199 48
-285 55 -69 6 -224 12 -228 8z"/>
<path d="M3430 3043 c-30 -14 -167 -81 -305 -149 -678 -334 -990 -572 -1199
-915 -208 -344 -233 -748 -62 -1034 247 -415 831 -504 1106 -169 39 48 60 55
61 22 1 -28 2 -34 24 -123 88 -351 254 -573 484 -646 76 -24 232 -33 324 -18
298 48 608 422 702 847 33 148 36 178 39 332 6 284 -56 541 -199 825 -58 115
-222 375 -236 375 -9 0 -47 -94 -64 -160 -33 -126 -43 -239 -39 -445 2 -99 6
-200 8 -225 3 -25 8 -105 11 -178 5 -118 3 -133 -11 -139 -25 -10 -67 18 -86
57 -17 36 -53 160 -63 218 -11 65 -35 174 -41 183 -11 18 -24 -2 -44 -69 -12
-37 -23 -74 -25 -82 -2 -8 -8 -35 -14 -60 -13 -57 -19 -94 -27 -150 -3 -25 -8
-54 -10 -65 -2 -11 -6 -47 -9 -80 -25 -285 -51 -360 -111 -333 -42 19 -49 70
-48 343 0 138 2 286 3 330 4 99 3 105 -8 105 -13 0 -61 -103 -158 -345 -156
-386 -190 -448 -232 -425 -25 13 -33 38 -32 109 0 92 28 207 126 516 74 232
80 260 65 270 -26 16 -99 -88 -245 -345 -95 -168 -148 -249 -189 -293 -32 -35
-91 -54 -112 -36 -43 35 15 220 171 544 182 378 249 558 261 705 5 57 3 68
-14 84 -39 34 -104 13 -251 -82 -115 -75 -198 -104 -300 -106 -91 -1 -144 20
-160 64 -13 38 1 54 69 75 90 29 156 68 325 190 155 112 286 185 390 219 63
20 221 53 300 62 33 4 69 8 80 9 11 1 29 3 40 4 17 1 15 5 -15 32 -91 81 -211
179 -218 178 -4 0 -32 -12 -62 -26z"/>
</g>
</svg>
